<?xml version="1.0" encoding="UTF-8"?>
<svg version="1.1" xmlns="http://www.w3.org/2000/svg" width="707" height="353">
<path d="M0 0 C3.63 0 7.26 0 11 0 C12.98 7.92 14.96 15.84 17 24 C17.61875 21.525 18.2375 19.05 18.875 16.5 C20.9375 8.25 20.9375 8.25 23 0 C26.63 0 30.26 0 34 0 C40 17.14285714 40 17.14285714 40 25 C40.66 25 41.32 25 42 25 C42.0825 23.845 42.165 22.69 42.25 21.5 C43.03684285 14.18353585 45.1274578 7.09824136 47 0 C50.63 0 54.26 0 58 0 C55.67453588 11.59843287 53.07212063 23.12300613 50.3125 34.625 C50.1564328 35.28067963 50.0003656 35.93635925 49.83956909 36.61190796 C49.39308601 38.48440481 48.94080687 40.35551676 48.48828125 42.2265625 C48.09443237 43.85972412 48.09443237 43.85972412 47.69262695 45.52587891 C47 48 47 48 46 49 C44.31391034 49.07205511 42.62499341 49.08386068 40.9375 49.0625 C40.01839844 49.05347656 39.09929687 49.04445313 38.15234375 49.03515625 C37.44207031 49.02355469 36.73179687 49.01195312 36 49 C32.91281757 40.51024831 30.98951778 31.79629435 29 23 C28.74605469 24.03898437 28.49210937 25.07796875 28.23046875 26.1484375 C26.33926142 33.83123686 24.36101578 41.44474949 22 49 C18.7 49 15.4 49 12 49 C5.09556498 24.66565061 5.09556498 24.66565061 2.625 14.9375 C2.18027344 13.18759766 2.18027344 13.18759766 1.7265625 11.40234375 C0.91481883 7.601114 0.43142921 3.86171438 0 0 Z " fill="#160404" transform="translate(472,291)"/>
<path d="M0 0 C0.72364746 0.00483398 1.44729492 0.00966797 2.19287109 0.01464844 C17.67791005 0.18820861 17.67791005 0.18820861 23.4375 5.125 C26.98830637 9.030887 27.05033861 13.311751 26.93359375 18.38671875 C26.15456342 22.68672083 23.88602456 25.50733758 20.4375 28.125 C19.7775 28.125 19.1175 28.125 18.4375 28.125 C21.61392688 35.97958275 21.61392688 35.97958275 25.25 43.625 C26.4375 46.125 26.4375 46.125 26.4375 50.125 C23.1375 50.125 19.8375 50.125 16.4375 50.125 C15.12003667 47.54409233 13.80840383 44.96049542 12.5 42.375 C12.12681641 41.64539063 11.75363281 40.91578125 11.36914062 40.1640625 C10.83256836 39.10058594 10.83256836 39.10058594 10.28515625 38.015625 C9.95523682 37.36625977 9.62531738 36.71689453 9.28540039 36.04785156 C8.42297884 34.09206921 7.89375821 32.20959306 7.4375 30.125 C5.4575 30.125 3.4775 30.125 1.4375 30.125 C1.44273682 30.69532959 1.44797363 31.26565918 1.45336914 31.85327148 C1.47408221 34.42300323 1.4871419 36.99271747 1.5 39.5625 C1.50837891 40.46033203 1.51675781 41.35816406 1.52539062 42.28320312 C1.52861328 43.13720703 1.53183594 43.99121094 1.53515625 44.87109375 C1.54039307 45.66185303 1.54562988 46.4526123 1.55102539 47.26733398 C1.4375 49.125 1.4375 49.125 0.4375 50.125 C-2.8625 50.125 -6.1625 50.125 -9.5625 50.125 C-9.5625 33.955 -9.5625 17.785 -9.5625 1.125 C-6.51389804 -0.39930098 -3.34160203 -0.02272683 0 0 Z M1.4375 10.125 C1.4375 13.755 1.4375 17.385 1.4375 21.125 C4.0671875 21.186875 4.0671875 21.186875 6.75 21.25 C8.22919922 21.28480469 8.22919922 21.28480469 9.73828125 21.3203125 C12.66156527 21.33182639 12.66156527 21.33182639 15.4375 19.125 C16.5325504 16.59796063 16.59045704 15.5368074 15.625 12.9375 C14.55628013 10.97477807 14.55628013 10.97477807 12.4375 10.125 C8.76734725 9.9872315 5.11138652 10.08228039 1.4375 10.125 Z " fill="#0A0102" transform="translate(586.5625,289.875)"/>
<path d="M0 0 C3.85524216 0.05218906 7.70829759 0.14734029 11.5625 0.25 C12.64853516 0.26417969 13.73457031 0.27835937 14.85351562 0.29296875 C21.41897709 0.49252685 25.65719158 1.09026949 31 5 C36.31717126 10.67164935 35.21672572 18.07129623 35.25 25.375 C35.270625 26.4990625 35.29125 27.623125 35.3125 28.78125 C35.36151144 39.14717053 35.36151144 39.14717053 32 44 C26.22337574 49.62049928 20.38897695 50.22701723 12.65234375 50.17578125 C11.65332031 50.15902344 10.65429688 50.14226562 9.625 50.125 C8.60277344 50.11597656 7.58054687 50.10695313 6.52734375 50.09765625 C4.01798478 50.0742043 1.50911664 50.04138355 -1 50 C-1.67870144 39.04381969 -2.12002462 28.10324379 -2.1875 17.125 C-2.20039062 16.10986328 -2.21328125 15.09472656 -2.2265625 14.04882812 C-2.23337817 8.96093032 -2.04140436 4.76058725 0 0 Z M9 11 C8.91224395 13.14558827 8.89304781 15.29404421 8.90234375 17.44140625 C8.90556641 18.74658203 8.90878906 20.05175781 8.91210938 21.39648438 C8.92046599 22.7851569 8.92893095 24.17382877 8.9375 25.5625 C8.94251334 26.95507656 8.94707653 28.34765481 8.95117188 29.74023438 C8.96300566 33.1601987 8.9794912 36.58007844 9 40 C10.93627769 40.10807131 12.87427756 40.1856225 14.8125 40.25 C15.89144531 40.29640625 16.97039063 40.3428125 18.08203125 40.390625 C21.05390331 40.27527366 21.05390331 40.27527366 22.85961914 38.30078125 C24.95786875 34.067447 24.47045261 29.63733113 24.4375 25 C24.45748047 24.00226563 24.47746094 23.00453125 24.49804688 21.9765625 C24.54309448 16.34931452 24.54309448 16.34931452 22.296875 11.33203125 C19.56454502 9.74746574 17.95287615 9.55297872 14.8125 9.6875 C13.93207031 9.71199219 13.05164063 9.73648437 12.14453125 9.76171875 C10.0200301 9.77173822 10.0200301 9.77173822 9 11 Z " fill="#160404" transform="translate(660,290)"/>
<path d="M0 0 C6.496875 -0.12375 6.496875 -0.12375 13.125 -0.25 C15.15744873 -0.30462402 15.15744873 -0.30462402 17.23095703 -0.36035156 C28.33457454 -0.46293304 28.33457454 -0.46293304 33 4 C36.29303407 8.72001551 36.9144813 13.40257053 36 19 C33.87702461 23.01848914 31.20999856 25.8372073 28 29 C28.5775 30.10859375 29.155 31.2171875 29.75 32.359375 C30.50042299 33.82269983 31.25039974 35.28625355 32 36.75 C32.57234375 37.84441406 32.57234375 37.84441406 33.15625 38.9609375 C33.69765625 40.02441406 33.69765625 40.02441406 34.25 41.109375 C34.58515625 41.75874023 34.9203125 42.40810547 35.265625 43.07714844 C36 45 36 45 36 49 C32.7 49 29.4 49 26 49 C24.68253667 46.41909233 23.37090383 43.83549542 22.0625 41.25 C21.68931641 40.52039063 21.31613281 39.79078125 20.93164062 39.0390625 C20.39506836 37.97558594 20.39506836 37.97558594 19.84765625 36.890625 C19.51773682 36.24125977 19.18781738 35.59189453 18.84790039 34.92285156 C17.98547884 32.96706921 17.45625821 31.08459306 17 29 C14.69 29 12.38 29 10 29 C10 35.6 10 42.2 10 49 C6.7 49 3.4 49 0 49 C0 32.83 0 16.66 0 0 Z M10 9 C10 12.63 10 16.26 10 20 C11.93719378 20.05406122 13.87481921 20.09282025 15.8125 20.125 C16.89144531 20.14820313 17.97039062 20.17140625 19.08203125 20.1953125 C22.19402868 20.23023717 22.19402868 20.23023717 25 18 C25.38896226 14.95312897 25.62444849 12.92272458 23.86328125 10.3203125 C21.16483263 8.40820426 19.07595843 8.70722715 15.8125 8.8125 C14.18248047 8.85310547 14.18248047 8.85310547 12.51953125 8.89453125 C11.68808594 8.92933594 10.85664062 8.96414063 10 9 Z " fill="#0F0203" transform="translate(92,291)"/>
<path d="M0 0 C3.980625 -0.0825 7.96125 -0.165 12.0625 -0.25 C13.30394775 -0.28641602 14.54539551 -0.32283203 15.82446289 -0.36035156 C22.46985313 -0.4268967 26.63598559 -0.03606648 32 4 C37.21693185 9.73862503 36.21824269 16.49640905 36.25 23.8125 C36.270625 24.98876953 36.29125 26.16503906 36.3125 27.37695312 C36.36153442 38.21968847 36.36153442 38.21968847 33 43 C23.71005802 52.03886246 12.91878935 49 0 49 C0 32.83 0 16.66 0 0 Z M10 9 C10 18.9 10 28.8 10 39 C13.96 39 17.92 39 22 39 C25.9283715 33.76217133 25.48253064 30.33703911 25.4375 24 C25.45748047 23.00226563 25.47746094 22.00453125 25.49804688 20.9765625 C25.49536918 16.98143431 25.45678103 13.9162255 23.66015625 10.3125 C19.85028179 8.18881123 19.85028179 8.18881123 10 9 Z " fill="#140303" transform="translate(294,291)"/>
<path d="M0 0 C3.07042974 2.2053202 5.01837706 4.86878538 6.69140625 8.21484375 C6.9912535 12.79237389 6.96957853 17.37865998 7.00390625 21.96484375 C7.03291016 23.24101562 7.06191406 24.5171875 7.09179688 25.83203125 C7.17100963 37.50677244 7.17100963 37.50677244 2.69140625 42.21484375 C-3.20769966 47.41167514 -7.03983455 47.56378831 -14.8125 47.4921875 C-19.59316432 47.11293927 -21.62332887 46.259193 -25.30859375 43.21484375 C-30.66026 36.45484428 -30.51511939 30.70051155 -30.55859375 22.40234375 C-30.57921875 21.42974609 -30.59984375 20.45714844 -30.62109375 19.45507812 C-30.65766847 12.70247076 -30.18321047 7.56300522 -25.625 2.25390625 C-25.04621094 1.78726562 -24.46742188 1.320625 -23.87109375 0.83984375 C-23.00677734 0.11667969 -23.00677734 0.11667969 -22.125 -0.62109375 C-15.58841598 -4.81013039 -6.45475934 -3.66421692 0 0 Z M-17.30859375 8.21484375 C-20.14769565 12.75107976 -19.7142471 17.46133906 -19.74609375 22.65234375 C-19.77896484 23.59400391 -19.81183594 24.53566406 -19.84570312 25.50585938 C-19.88223528 30.21186507 -19.86022303 32.47687816 -16.97265625 36.33984375 C-14.41823385 38.41544385 -14.41823385 38.41544385 -11.24609375 38.77734375 C-7.69124794 38.0966286 -6.53154775 37.01411916 -4.30859375 34.21484375 C-2.56034535 30.71834695 -3.08150539 26.7543632 -3.05859375 22.90234375 C-3.03796875 22.04705078 -3.01734375 21.19175781 -2.99609375 20.31054688 C-2.96616264 15.48041339 -3.0662524 12.08129775 -6.30859375 8.21484375 C-10.57286253 6.08270936 -13.17784677 5.69049837 -17.30859375 8.21484375 Z " fill="#0D0203" transform="translate(563.30859375,292.78515625)"/>
<path d="M0 0 C0.99386719 0.10183594 1.98773438 0.20367187 3.01171875 0.30859375 C3.77097656 0.39238281 4.53023438 0.47617187 5.3125 0.5625 C7.316511 6.73395866 9.30914596 12.90900605 11.29394531 19.08666992 C11.97037068 21.18744735 12.64938796 23.28739206 13.33105469 25.38647461 C14.3108829 28.40523106 15.28132565 31.42686752 16.25 34.44921875 C16.55623291 35.38585861 16.86246582 36.32249847 17.17797852 37.28752136 C17.45826904 38.16805679 17.73855957 39.04859222 18.02734375 39.95581055 C18.27605225 40.72636276 18.52476074 41.49691498 18.78100586 42.29081726 C19.3125 44.5625 19.3125 44.5625 19.3125 49.5625 C16.0125 49.5625 12.7125 49.5625 9.3125 49.5625 C8.3225 47.2525 7.3325 44.9425 6.3125 42.5625 C0.7025 42.2325 -4.9075 41.9025 -10.6875 41.5625 C-11.0175 43.8725 -11.3475 46.1825 -11.6875 48.5625 C-12.6875 49.5625 -12.6875 49.5625 -14.97265625 49.66015625 C-16.34744141 49.64275391 -16.34744141 49.64275391 -17.75 49.625 C-18.66910156 49.61597656 -19.58820313 49.60695313 -20.53515625 49.59765625 C-21.24542969 49.58605469 -21.95570313 49.57445312 -22.6875 49.5625 C-23.80931104 46.19706689 -23.58158396 45.47094652 -22.53173828 42.21459961 C-22.25459991 41.3403685 -21.97746155 40.46613739 -21.69192505 39.56541443 C-21.38366791 38.6247261 -21.07541077 37.68403778 -20.7578125 36.71484375 C-20.4480246 35.74720596 -20.13823669 34.77956818 -19.81906128 33.78260803 C-18.82513217 30.68567779 -17.81876734 27.59294045 -16.8125 24.5 C-16.14115201 22.41105623 -15.47056945 20.32186629 -14.80078125 18.23242188 C-13.5722964 14.41384329 -12.34325022 10.59547257 -11.10205078 6.78100586 C-10.85254669 6.01284042 -10.6030426 5.24467499 -10.34597778 4.45323181 C-9.6875 2.5625 -9.6875 2.5625 -8.6875 0.5625 C-5.3763987 -0.54120043 -3.44001051 -0.36423641 0 0 Z M-2.6875 14.5625 C-4.3375 20.5025 -5.9875 26.4425 -7.6875 32.5625 C-3.48854745 33.61223814 -0.89344226 33.29045155 3.3125 32.5625 C2.2132105 26.25128497 0.73112058 20.49911416 -1.6875 14.5625 C-2.0175 14.5625 -2.3475 14.5625 -2.6875 14.5625 Z " fill="#140303" transform="translate(397.6875,290.4375)"/>
<path d="M0 0 C0.77200317 1.75701904 0.77200317 1.75701904 1.51220703 4.07324219 C1.93241623 5.37029083 1.93241623 5.37029083 2.3611145 6.69354248 C2.65702484 7.63514221 2.95293518 8.57674194 3.2578125 9.546875 C3.7196846 10.99190399 3.7196846 10.99190399 4.19088745 12.46612549 C4.84177765 14.50943106 5.48881288 16.55396795 6.13232422 18.59960938 C7.11752946 21.72629124 8.11837522 24.84764677 9.12109375 27.96875 C9.75095099 29.95282335 10.37988736 31.93718932 11.0078125 33.921875 C11.3077713 34.85537781 11.6077301 35.78888062 11.91677856 36.75067139 C12.32753128 38.066633 12.32753128 38.066633 12.74658203 39.40917969 C12.98925812 40.1767157 13.2319342 40.94425171 13.48196411 41.73504639 C14 44 14 44 14 49 C10.7 49 7.4 49 4 49 C3.01 46.69 2.02 44.38 1 42 C-4.28 42 -9.56 42 -15 42 C-15.99 44.31 -16.98 46.62 -18 49 C-21.3 49 -24.6 49 -28 49 C-29.27975051 46.44049898 -28.8129824 45.78033052 -27.9519043 43.10449219 C-27.69801437 42.30315857 -27.44412445 41.50182495 -27.18254089 40.6762085 C-26.89929459 39.80852844 -26.61604828 38.94084839 -26.32421875 38.046875 C-26.03899857 37.15389709 -25.75377838 36.26091919 -25.45991516 35.34088135 C-24.54269404 32.47498149 -23.61519248 29.61252536 -22.6875 26.75 C-22.07289834 24.8348501 -21.45895781 22.9194879 -20.84570312 21.00390625 C-18.59707988 13.99152256 -16.34299297 6.98153843 -14 0 C-12.04235617 -0.19456705 -10.08384679 -0.38044247 -8.125 -0.5625 C-6.48917969 -0.71912109 -6.48917969 -0.71912109 -4.8203125 -0.87890625 C-2 -1 -2 -1 0 0 Z M-8 14 C-9.65 19.94 -11.3 25.88 -13 32 C-4.97949852 33.71610396 -4.97949852 33.71610396 -2 32 C-2.68804496 25.80759538 -4.28048715 19.98044406 -6 14 C-6.66 14 -7.32 14 -8 14 Z " fill="#0C0202" transform="translate(72,291)"/>
<path d="M0 0 C11.55 0 23.1 0 35 0 C35 2.64 35 5.28 35 8 C34 9 34 9 31.77514648 9.11352539 C30.81680908 9.10828857 29.85847168 9.10305176 28.87109375 9.09765625 C27.31938477 9.09282227 27.31938477 9.09282227 25.73632812 9.08789062 C24.64771484 9.07951172 23.55910156 9.07113281 22.4375 9.0625 C20.7987793 9.05573242 20.7987793 9.05573242 19.12695312 9.04882812 C16.41794568 9.0369984 13.7089662 9.01906231 11 9 C11 12.3 11 15.6 11 19 C12.60681641 18.98259766 12.60681641 18.98259766 14.24609375 18.96484375 C15.64322743 18.95546701 17.04036299 18.94636669 18.4375 18.9375 C19.14455078 18.92912109 19.85160156 18.92074219 20.58007812 18.91210938 C22.38693559 18.90346412 24.19387603 18.94779989 26 19 C27 20 27 20 27.1328125 21.8125 C27.13023437 22.534375 27.12765625 23.25625 27.125 24 C27.12886719 25.0828125 27.12886719 25.0828125 27.1328125 26.1875 C27 28 27 28 26 29 C23.46950598 29.07313567 20.96695163 29.09247527 18.4375 29.0625 C17.72658203 29.05798828 17.01566406 29.05347656 16.28320312 29.04882812 C14.52209987 29.03700864 12.76103964 29.01907263 11 29 C11 32.3 11 35.6 11 39 C13.47306641 38.98259766 13.47306641 38.98259766 15.99609375 38.96484375 C18.14322804 38.95546762 20.29036355 38.94636723 22.4375 38.9375 C23.52611328 38.92912109 24.61472656 38.92074219 25.73632812 38.91210938 C26.77080078 38.90888672 27.80527344 38.90566406 28.87109375 38.90234375 C29.82943115 38.89710693 30.78776855 38.89187012 31.77514648 38.88647461 C34 39 34 39 35 40 C35.1328125 41.8125 35.1328125 41.8125 35.125 44 C35.12886719 45.0828125 35.12886719 45.0828125 35.1328125 46.1875 C35 48 35 48 34 49 C31.56339554 49.10082764 29.15575299 49.13972603 26.71875 49.1328125 C25.99006714 49.13376923 25.26138428 49.13472595 24.51062012 49.13571167 C22.9672029 49.13639335 21.42378283 49.13453988 19.88037109 49.13037109 C17.510026 49.12502262 15.13987041 49.13031642 12.76953125 49.13671875 C11.27343708 49.13605797 9.77734303 49.1347768 8.28125 49.1328125 C7.21094543 49.13584885 7.21094543 49.13584885 6.11901855 49.13894653 C1.11495191 49.11495191 1.11495191 49.11495191 0 48 C-0.09311889 46.49581261 -0.11746028 44.98728644 -0.11352539 43.48022461 C-0.11344986 42.51930405 -0.11337433 41.55838348 -0.11329651 40.56834412 C-0.10813522 39.523564 -0.10297394 38.47878387 -0.09765625 37.40234375 C-0.0962413 36.33834854 -0.09482635 35.27435333 -0.09336853 34.17811584 C-0.08775064 30.76454917 -0.07519511 27.351047 -0.0625 23.9375 C-0.05748731 21.62955824 -0.052924 19.32161545 -0.04882812 17.01367188 C-0.03862433 11.34240279 -0.01905243 5.67127399 0 0 Z " fill="#0B0001" transform="translate(336,291)"/>
<path d="M0 0 C11.55 0 23.1 0 35 0 C35 2.64 35 5.28 35 8 C34 9 34 9 31.77514648 9.11352539 C30.81680908 9.10828857 29.85847168 9.10305176 28.87109375 9.09765625 C27.31938477 9.09282227 27.31938477 9.09282227 25.73632812 9.08789062 C24.64771484 9.07951172 23.55910156 9.07113281 22.4375 9.0625 C20.7987793 9.05573242 20.7987793 9.05573242 19.12695312 9.04882812 C16.41794568 9.0369984 13.7089662 9.01906231 11 9 C11 12.3 11 15.6 11 19 C12.60681641 18.98259766 12.60681641 18.98259766 14.24609375 18.96484375 C15.64322743 18.95546701 17.04036299 18.94636669 18.4375 18.9375 C19.14455078 18.92912109 19.85160156 18.92074219 20.58007812 18.91210938 C22.38693559 18.90346412 24.19387603 18.94779989 26 19 C27 20 27 20 27.1328125 21.8125 C27.13023437 22.534375 27.12765625 23.25625 27.125 24 C27.12886719 25.0828125 27.12886719 25.0828125 27.1328125 26.1875 C27 28 27 28 26 29 C23.46950598 29.07313567 20.96695163 29.09247527 18.4375 29.0625 C17.72658203 29.05798828 17.01566406 29.05347656 16.28320312 29.04882812 C14.52209987 29.03700864 12.76103964 29.01907263 11 29 C11 32.3 11 35.6 11 39 C13.47306641 38.98259766 13.47306641 38.98259766 15.99609375 38.96484375 C18.14322804 38.95546762 20.29036355 38.94636723 22.4375 38.9375 C23.52611328 38.92912109 24.61472656 38.92074219 25.73632812 38.91210938 C26.77080078 38.90888672 27.80527344 38.90566406 28.87109375 38.90234375 C29.82943115 38.89710693 30.78776855 38.89187012 31.77514648 38.88647461 C34 39 34 39 35 40 C35.1328125 41.8125 35.1328125 41.8125 35.125 44 C35.12886719 45.0828125 35.12886719 45.0828125 35.1328125 46.1875 C35 48 35 48 34 49 C31.56339554 49.10082764 29.15575299 49.13972603 26.71875 49.1328125 C25.99006714 49.13376923 25.26138428 49.13472595 24.51062012 49.13571167 C22.9672029 49.13639335 21.42378283 49.13453988 19.88037109 49.13037109 C17.510026 49.12502262 15.13987041 49.13031642 12.76953125 49.13671875 C11.27343708 49.13605797 9.77734303 49.1347768 8.28125 49.1328125 C7.21094543 49.13584885 7.21094543 49.13584885 6.11901855 49.13894653 C1.11495191 49.11495191 1.11495191 49.11495191 0 48 C-0.09311889 46.49581261 -0.11746028 44.98728644 -0.11352539 43.48022461 C-0.11344986 42.51930405 -0.11337433 41.55838348 -0.11329651 40.56834412 C-0.10813522 39.523564 -0.10297394 38.47878387 -0.09765625 37.40234375 C-0.0962413 36.33834854 -0.09482635 35.27435333 -0.09336853 34.17811584 C-0.08775064 30.76454917 -0.07519511 27.351047 -0.0625 23.9375 C-0.05748731 21.62955824 -0.052924 19.32161545 -0.04882812 17.01367188 C-0.03862433 11.34240279 -0.01905243 5.67127399 0 0 Z " fill="#0E0202" transform="translate(235,291)"/>
<path d="M0 0 C1.43352212 0.00015908 2.86704998 0.00585132 4.30053711 0.01586914 C5.43041298 0.01799156 5.43041298 0.01799156 6.58311462 0.02015686 C8.99807646 0.02577163 11.41294687 0.03832656 13.82788086 0.05102539 C15.46134307 0.05603849 17.09480672 0.06060173 18.72827148 0.06469727 C22.74067671 0.07574585 26.75301326 0.09302033 30.76538086 0.11352539 C31.66505218 7.34136099 30.5760332 11.48272076 26.14086914 17.24316406 C25.50133301 18.0253833 24.86179687 18.80760254 24.20288086 19.61352539 C22.91701821 21.26531948 21.63185495 22.91765827 20.34741211 24.57055664 C19.72817871 25.35124512 19.10894531 26.13193359 18.47094727 26.9362793 C15.38878039 30.870829 12.59867242 34.99821717 9.76538086 39.11352539 C10.36600342 39.10828857 10.96662598 39.10305176 11.58544922 39.09765625 C14.29124924 39.07694525 16.99703263 39.06388414 19.70288086 39.05102539 C20.6484082 39.04264648 21.59393555 39.03426758 22.56811523 39.02563477 C23.91679687 39.02080078 23.91679687 39.02080078 25.29272461 39.01586914 C26.12537842 39.01063232 26.95803223 39.00539551 27.81591797 39 C29.76538086 39.11352539 29.76538086 39.11352539 30.76538086 40.11352539 C30.89819336 41.92602539 30.89819336 41.92602539 30.89038086 44.11352539 C30.89424805 45.19633789 30.89424805 45.19633789 30.89819336 46.30102539 C30.76538086 48.11352539 30.76538086 48.11352539 29.76538086 49.11352539 C27.31707659 49.20196332 24.89717487 49.22881291 22.44897461 49.21118164 C21.71792007 49.20976669 20.98686554 49.20835175 20.23365784 49.20689392 C17.89002454 49.20127947 15.54648547 49.18872461 13.20288086 49.17602539 C11.61759578 49.17101225 10.0323092 49.16644902 8.44702148 49.16235352 C4.55310476 49.15130536 0.6592588 49.13403111 -3.23461914 49.11352539 C-3.75249313 42.61944463 -3.94012535 37.78295273 0.17041016 32.52197266 C0.65550049 31.95406006 1.14059082 31.38614746 1.64038086 30.80102539 C2.64559146 29.53382982 3.64946413 28.26557194 4.65209961 26.99633789 C5.16691895 26.36115234 5.68173828 25.7259668 6.2121582 25.0715332 C8.75537494 21.86552907 11.09776534 18.52125246 13.45288086 15.17602539 C14.28962352 13.99989045 15.12681438 12.82407416 15.96459961 11.64868164 C16.55885742 10.81208008 17.15311523 9.97547852 17.76538086 9.11352539 C17.13446533 9.11876221 16.5035498 9.12399902 15.85351562 9.12939453 C13.01164739 9.15010365 10.16979498 9.16316605 7.32788086 9.17602539 C5.83804687 9.18859375 5.83804687 9.18859375 4.31811523 9.20141602 C3.37387695 9.20463867 2.42963867 9.20786133 1.45678711 9.21118164 C0.58223877 9.21641846 -0.29230957 9.22165527 -1.19335938 9.22705078 C-3.23461914 9.11352539 -3.23461914 9.11352539 -4.23461914 8.11352539 C-4.35961914 4.61352539 -4.35961914 4.61352539 -4.23461914 1.11352539 C-3.23461914 0.11352539 -3.23461914 0.11352539 0 0 Z " fill="#110203" transform="translate(424.234619140625,290.886474609375)"/>
<path d="M0 0 C4.6693313 1.82847708 8.57230064 4.99225753 10.828125 9.50390625 C10.96227972 12.17626835 10.87131041 14.82641113 10.828125 17.50390625 C7.528125 17.50390625 4.228125 17.50390625 0.828125 17.50390625 C0.168125 15.19390625 -0.491875 12.88390625 -1.171875 10.50390625 C-6.20035485 9.41314231 -6.20035485 9.41314231 -11.046875 10.75390625 C-13.43363058 12.40369126 -13.43363058 12.40369126 -14.171875 15.50390625 C-14.26310738 16.85311259 -14.30252878 18.20630812 -14.3046875 19.55859375 C-14.30597656 20.33847656 -14.30726562 21.11835938 -14.30859375 21.921875 C-14.30472656 22.73269531 -14.30085937 23.54351562 -14.296875 24.37890625 C-14.30074219 25.18199219 -14.30460938 25.98507812 -14.30859375 26.8125 C-14.30195728 30.84083911 -14.17441388 34.57331729 -13.171875 38.50390625 C-11.73777132 38.7534463 -10.29927428 38.97783267 -8.859375 39.19140625 C-8.05886719 39.31902344 -7.25835938 39.44664062 -6.43359375 39.578125 C-4.11139016 39.72098615 -4.11139016 39.72098615 -2.453125 38.19140625 C-0.86475427 36.09940577 -0.0390594 33.97204646 0.828125 31.50390625 C8.578125 31.37890625 8.578125 31.37890625 10.828125 32.50390625 C11.15101652 36.54005027 11.06442071 39.021863 9.265625 42.69140625 C5.41685338 47.13229658 2.49094842 49.2084059 -3.3046875 49.8515625 C-14.32347074 50.14020944 -14.32347074 50.14020944 -19.171875 46.50390625 C-25.82721998 39.66622305 -25.38372846 34.45675876 -25.421875 25.25390625 C-25.4425 24.02542969 -25.463125 22.79695313 -25.484375 21.53125 C-25.48953125 20.34144531 -25.4946875 19.15164063 -25.5 17.92578125 C-25.5093457 16.8387793 -25.51869141 15.75177734 -25.52832031 14.63183594 C-25.04352298 10.3775733 -23.5707808 7.00247964 -20.63671875 3.859375 C-14.16985405 -1.08587448 -8.07096054 -1.84354674 0 0 Z " fill="#0F0303" transform="translate(28.171875,290.49609375)"/>
<path d="M0 0 C3.96 0 7.92 0 12 0 C14.64 9.9 17.28 19.8 20 30 C22.41759473 22.78831665 22.41759473 22.78831665 24.60546875 15.52734375 C24.86650391 14.60888672 25.12753906 13.69042969 25.39648438 12.74414062 C25.65751953 11.81794922 25.91855469 10.89175781 26.1875 9.9375 C26.59645508 8.49600586 26.59645508 8.49600586 27.01367188 7.02539062 C27.67761618 4.68411333 28.33907015 2.34213005 29 0 C32.63 0 36.26 0 40 0 C38.77088507 6.58010654 37.2579225 12.88365654 35.21484375 19.25390625 C34.95369278 20.08083481 34.69254181 20.90776337 34.42347717 21.75975037 C33.87720528 23.48557161 33.32839105 25.21059008 32.77709961 26.93481445 C31.9301876 29.58538555 31.0924625 32.23873729 30.25585938 34.89257812 C29.7218865 36.57568981 29.1874003 38.25863875 28.65234375 39.94140625 C28.40129379 40.73607803 28.15024384 41.53074982 27.8915863 42.34950256 C26.1157755 47.8842245 26.1157755 47.8842245 25 49 C21.66672158 49.1424478 18.33546107 49.04222103 15 49 C11.2074587 40.4351317 8.63231772 31.51613174 5.99853516 22.54736328 C5.24307849 19.9764452 4.47949582 17.40804021 3.71484375 14.83984375 C3.23129703 13.2058693 2.74820708 11.5717596 2.265625 9.9375 C2.03756165 9.16986328 1.80949829 8.40222656 1.57452393 7.61132812 C0 2.23166647 0 2.23166647 0 0 Z " fill="#180304" transform="translate(190,291)"/>
<path d="M0 0 C3.3 0.33 6.6 0.66 10 1 C10 13.87 10 26.74 10 40 C17.52432774 39.96041166 17.52432774 39.96041166 25.04858398 39.90991211 C26.44572632 39.90616577 26.44572632 39.90616577 27.87109375 39.90234375 C28.82943115 39.89710693 29.78776855 39.89187012 30.77514648 39.88647461 C33 40 33 40 34 41 C34.1328125 42.8125 34.1328125 42.8125 34.125 45 C34.12886719 46.0828125 34.12886719 46.0828125 34.1328125 47.1875 C34 49 34 49 33 50 C30.56339554 50.10082764 28.15575299 50.13972603 25.71875 50.1328125 C24.99006714 50.13376923 24.26138428 50.13472595 23.51062012 50.13571167 C21.9672029 50.13639335 20.42378283 50.13453988 18.88037109 50.13037109 C16.510026 50.12502262 14.13987041 50.13031642 11.76953125 50.13671875 C10.27343708 50.13605797 8.77734303 50.1347768 7.28125 50.1328125 C6.21094543 50.13584885 6.21094543 50.13584885 5.11901855 50.13894653 C0.11495191 50.11495191 0.11495191 50.11495191 -1 49 C-1.09831146 47.50129952 -1.12798456 45.99801461 -1.12939453 44.49609375 C-1.13254669 43.53840088 -1.13569885 42.58070801 -1.13894653 41.59399414 C-1.1369223 40.55235107 -1.13489807 39.51070801 -1.1328125 38.4375 C-1.13376923 37.37587646 -1.13472595 36.31425293 -1.13571167 35.22045898 C-1.13639364 32.97086528 -1.13453819 30.72126963 -1.13037109 28.47167969 C-1.1250231 25.01492929 -1.13031554 21.55830883 -1.13671875 18.1015625 C-1.13605797 15.92187471 -1.13477682 13.742187 -1.1328125 11.5625 C-1.13483673 10.52085693 -1.13686096 9.47921387 -1.13894653 8.40600586 C-1.13579437 7.44831299 -1.13264221 6.49062012 -1.12939453 5.50390625 C-1.12859894 4.65642822 -1.12780334 3.8089502 -1.12698364 2.93579102 C-1 1 -1 1 0 0 Z " fill="#020001" transform="translate(620,290)"/>
<path d="M0 0 C12.21 0 24.42 0 37 0 C37 2.97 37 5.94 37 9 C32.71 9 28.42 9 24 9 C24.00785522 10.76428345 24.00785522 10.76428345 24.01586914 12.56420898 C24.03391663 16.91202031 24.04543108 21.2598283 24.05493164 25.60766602 C24.05997244 27.4924373 24.06680498 29.37720465 24.07543945 31.26196289 C24.08751617 33.96501636 24.09323068 36.66801831 24.09765625 39.37109375 C24.10281754 40.21900986 24.10797882 41.06692596 24.11329651 41.9405365 C24.11349195 43.96071068 24.06206211 45.98077934 24 48 C23.67 48.33 23.34 48.66 23 49 C19.7 49 16.4 49 13 49 C13 35.8 13 22.6 13 9 C8.71 9 4.42 9 0 9 C0 6.03 0 3.06 0 0 Z " fill="#040001" transform="translate(132,291)"/>
<path d="M0 0 C4.186875 -0.061875 8.37375 -0.12375 12.6875 -0.1875 C13.99936279 -0.21481201 15.31122559 -0.24212402 16.6628418 -0.27026367 C17.70609619 -0.27775635 18.74935059 -0.28524902 19.82421875 -0.29296875 C20.88729248 -0.3086792 21.95036621 -0.32438965 23.0456543 -0.34057617 C26.46052243 0.0530889 28.30728156 0.87898785 31 3 C31.875 6.625 31.875 6.625 32 10 C31 11 31 11 27.4375 11.0625 C26.303125 11.041875 25.16875 11.02125 24 11 C24 10.01 24 9.02 24 8 C19.05 8 14.1 8 9 8 C9.08378906 9.27617187 9.16757813 10.55234375 9.25390625 11.8671875 C9.35706232 13.53644035 9.45991099 15.20571221 9.5625 16.875 C9.61857422 17.71675781 9.67464844 18.55851562 9.73242188 19.42578125 C9.78076172 20.23144531 9.82910156 21.03710938 9.87890625 21.8671875 C9.9260376 22.61081543 9.97316895 23.35444336 10.02172852 24.12060547 C10 26 10 26 9 28 C8.84995027 29.3734635 8.75161994 30.7528526 8.68359375 32.1328125 C8.64169922 32.93847656 8.59980469 33.74414062 8.55664062 34.57421875 C8.49766602 35.83685547 8.49766602 35.83685547 8.4375 37.125 C8.39431641 37.97449219 8.35113281 38.82398438 8.30664062 39.69921875 C8.20045764 41.79928223 8.09971503 43.89961948 8 46 C5.36 46.33 2.72 46.66 0 47 C0 31.49 0 15.98 0 0 Z " fill="#0A0101" transform="translate(93,291)"/>
<path d="M0 0 C3.63 0 7.26 0 11 0 C11.02464247 6.81762424 11.04283244 13.6352228 11.05493164 20.45288086 C11.05997333 22.77417451 11.06680651 25.09546497 11.07543945 27.41674805 C11.08751225 30.74528795 11.09322979 34.07378602 11.09765625 37.40234375 C11.10281754 38.44712387 11.10797882 39.49190399 11.11329651 40.56834412 C11.11337204 41.52926468 11.11344757 42.49018524 11.11352539 43.48022461 C11.115746 44.33071884 11.11796661 45.18121307 11.12025452 46.05747986 C11 48 11 48 10 49 C8.50261876 49.0979057 7.00057108 49.12974864 5.5 49.125 C4.6853125 49.12757813 3.870625 49.13015625 3.03125 49.1328125 C1 49 1 49 0 48 C-0.09311889 46.49581261 -0.11746028 44.98728644 -0.11352539 43.48022461 C-0.11344986 42.51930405 -0.11337433 41.55838348 -0.11329651 40.56834412 C-0.10813522 39.523564 -0.10297394 38.47878387 -0.09765625 37.40234375 C-0.0962413 36.33834854 -0.09482635 35.27435333 -0.09336853 34.17811584 C-0.08775064 30.76454917 -0.07519511 27.351047 -0.0625 23.9375 C-0.05748731 21.62955824 -0.052924 19.32161545 -0.04882812 17.01367188 C-0.03777539 11.34242289 -0.02049877 5.6712224 0 0 Z " fill="#050000" transform="translate(174,291)"/>
<path d="M0 0 C3.3 0 6.6 0 10 0 C10 16.17 10 32.34 10 49 C6.7 49 3.4 49 0 49 C0 32.83 0 16.66 0 0 Z " fill="#010001" transform="translate(276,291)"/>
<path d="M0 0 C0.33 0 0.66 0 1 0 C1.66 15.18 2.32 30.36 3 46 C12.9 46.33 22.8 46.66 33 47 C33 45.02 33 43.04 33 41 C31.9627478 41.00785522 31.9627478 41.00785522 30.90454102 41.01586914 C27.79053648 41.036575 24.67654639 41.04963963 21.5625 41.0625 C20.47388672 41.07087891 19.38527344 41.07925781 18.26367188 41.08789062 C17.22919922 41.09111328 16.19472656 41.09433594 15.12890625 41.09765625 C14.17056885 41.10289307 13.21223145 41.10812988 12.22485352 41.11352539 C10 41 10 41 9 40 C8.9010706 37.83519203 8.870289 35.66706215 8.875 33.5 C8.87113281 31.72109375 8.87113281 31.72109375 8.8671875 29.90625 C9 27 9 27 10 26 C12.53049402 25.92686433 15.03304837 25.90752473 17.5625 25.9375 C18.27341797 25.94201172 18.98433594 25.94652344 19.71679688 25.95117188 C21.47790013 25.96299136 23.23896036 25.98092737 25 26 C25 24.35 25 22.7 25 21 C20.05 21 15.1 21 10 21 C10 16.71 10 12.42 10 8 C17.92 8 25.84 8 34 8 C34 8.33 34 8.66 34 9 C26.41 9 18.82 9 11 9 C11 12.3 11 15.6 11 19 C12.60681641 18.98259766 12.60681641 18.98259766 14.24609375 18.96484375 C15.64322743 18.95546701 17.04036299 18.94636669 18.4375 18.9375 C19.14455078 18.92912109 19.85160156 18.92074219 20.58007812 18.91210938 C22.38693559 18.90346412 24.19387603 18.94779989 26 19 C27 20 27 20 27.1328125 21.8125 C27.13023437 22.534375 27.12765625 23.25625 27.125 24 C27.12886719 25.0828125 27.12886719 25.0828125 27.1328125 26.1875 C27 28 27 28 26 29 C23.46950598 29.07313567 20.96695163 29.09247527 18.4375 29.0625 C17.72658203 29.05798828 17.01566406 29.05347656 16.28320312 29.04882812 C14.52209987 29.03700864 12.76103964 29.01907263 11 29 C11 32.3 11 35.6 11 39 C13.47306641 38.98259766 13.47306641 38.98259766 15.99609375 38.96484375 C18.14322804 38.95546762 20.29036355 38.94636723 22.4375 38.9375 C23.52611328 38.92912109 24.61472656 38.92074219 25.73632812 38.91210938 C26.77080078 38.90888672 27.80527344 38.90566406 28.87109375 38.90234375 C29.82943115 38.89710693 30.78776855 38.89187012 31.77514648 38.88647461 C34 39 34 39 35 40 C35.1328125 41.8125 35.1328125 41.8125 35.125 44 C35.12886719 45.0828125 35.12886719 45.0828125 35.1328125 46.1875 C35 48 35 48 34 49 C31.56339554 49.10082764 29.15575299 49.13972603 26.71875 49.1328125 C25.99006714 49.13376923 25.26138428 49.13472595 24.51062012 49.13571167 C22.9672029 49.13639335 21.42378283 49.13453988 19.88037109 49.13037109 C17.510026 49.12502262 15.13987041 49.13031642 12.76953125 49.13671875 C11.27343708 49.13605797 9.77734303 49.1347768 8.28125 49.1328125 C7.21094543 49.13584885 7.21094543 49.13584885 6.11901855 49.13894653 C1.11495191 49.11495191 1.11495191 49.11495191 0 48 C-0.09311889 46.49581261 -0.11746028 44.98728644 -0.11352539 43.48022461 C-0.11344986 42.51930405 -0.11337433 41.55838348 -0.11329651 40.56834412 C-0.10813522 39.523564 -0.10297394 38.47878387 -0.09765625 37.40234375 C-0.0962413 36.33834854 -0.09482635 35.27435333 -0.09336853 34.17811584 C-0.08775064 30.76454917 -0.07519511 27.351047 -0.0625 23.9375 C-0.05748731 21.62955824 -0.052924 19.32161545 -0.04882812 17.01367188 C-0.0377754 11.34242574 -0.02101987 5.67121747 0 0 Z " fill="#741E1D" transform="translate(336,291)"/>
<path d="M0 0 C12.21 0 24.42 0 37 0 C37 2.97 37 5.94 37 9 C32.71 9 28.42 9 24 9 C24.00785522 10.76428345 24.00785522 10.76428345 24.01586914 12.56420898 C24.03391663 16.91202031 24.04543108 21.2598283 24.05493164 25.60766602 C24.05997244 27.4924373 24.06680498 29.37720465 24.07543945 31.26196289 C24.08751617 33.96501636 24.09323068 36.66801831 24.09765625 39.37109375 C24.10281754 40.21900986 24.10797882 41.06692596 24.11329651 41.9405365 C24.11349195 43.96071068 24.06206211 45.98077934 24 48 C23.67 48.33 23.34 48.66 23 49 C19.7 49 16.4 49 13 49 C13 35.8 13 22.6 13 9 C8.71 9 4.42 9 0 9 C0 6.03 0 3.06 0 0 Z M1 1 C1 3.31 1 5.62 1 8 C7.93 8.495 7.93 8.495 15 9 C15 21.21 15 33.42 15 46 C16.98 46 18.96 46 21 46 C21 33.79 21 21.58 21 9 C25.95 8.67 30.9 8.34 36 8 C36 5.69 36 3.38 36 1 C24.45 1 12.9 1 1 1 Z " fill="#540D0D" transform="translate(132,291)"/>
<path d="M0 0 C4.6693313 1.82847708 8.57230064 4.99225753 10.828125 9.50390625 C10.96227972 12.17626835 10.87131041 14.82641113 10.828125 17.50390625 C7.528125 17.50390625 4.228125 17.50390625 0.828125 17.50390625 C0.168125 15.19390625 -0.491875 12.88390625 -1.171875 10.50390625 C-4.471875 10.17390625 -7.771875 9.84390625 -11.171875 9.50390625 C-10.841875 8.51390625 -10.511875 7.52390625 -10.171875 6.50390625 C-7.09570312 6.2109375 -7.09570312 6.2109375 -4.01953125 5.91796875 C-3.40980469 5.78132813 -2.80007812 5.6446875 -2.171875 5.50390625 C-1.841875 4.84390625 -1.511875 4.18390625 -1.171875 3.50390625 C-6.451875 3.50390625 -11.731875 3.50390625 -17.171875 3.50390625 C-17.831875 5.15390625 -18.491875 6.80390625 -19.171875 8.50390625 C-20.491875 8.50390625 -21.811875 8.50390625 -23.171875 8.50390625 C-19.32337212 -1.29228291 -9.11752099 -2.08259922 0 0 Z " fill="#1C0505" transform="translate(28.171875,290.49609375)"/>
<path d="M0 0 C10.23 0 20.46 0 31 0 C30.67 2.97 30.34 5.94 30 9 C29.34 9 28.68 9 28 9 C28 9.66 28 10.32 28 11 C25.03 10.505 25.03 10.505 22 10 C21.67 9.01 21.34 8.02 21 7 C14.07 6.67 7.14 6.34 0 6 C0 4.02 0 2.04 0 0 Z " fill="#050001" transform="translate(423,292)"/>
<path d="M0 0 C1.2065625 0.0309375 1.2065625 0.0309375 2.4375 0.0625 C2.4375 0.7225 2.4375 1.3825 2.4375 2.0625 C0.7875 2.0625 -0.8625 2.0625 -2.5625 2.0625 C-2.5625 17.2425 -2.5625 32.4225 -2.5625 48.0625 C7.9975 48.0625 18.5575 48.0625 29.4375 48.0625 C29.1075 46.4125 28.7775 44.7625 28.4375 43.0625 C21.1775 42.4025 13.9175 41.7425 6.4375 41.0625 C6.4375 27.8625 6.4375 14.6625 6.4375 1.0625 C6.7675 1.0625 7.0975 1.0625 7.4375 1.0625 C7.4375 13.9325 7.4375 26.8025 7.4375 40.0625 C14.96182774 40.02291166 14.96182774 40.02291166 22.48608398 39.97241211 C23.88322632 39.96866577 23.88322632 39.96866577 25.30859375 39.96484375 C26.26693115 39.95960693 27.22526855 39.95437012 28.21264648 39.94897461 C30.4375 40.0625 30.4375 40.0625 31.4375 41.0625 C31.5703125 42.875 31.5703125 42.875 31.5625 45.0625 C31.56636719 46.1453125 31.56636719 46.1453125 31.5703125 47.25 C31.4375 49.0625 31.4375 49.0625 30.4375 50.0625 C28.00089554 50.16332764 25.59325299 50.20222603 23.15625 50.1953125 C22.42756714 50.19626923 21.69888428 50.19722595 20.94812012 50.19821167 C19.4047029 50.19889335 17.86128283 50.19703988 16.31787109 50.19287109 C13.947526 50.18752262 11.57737041 50.19281642 9.20703125 50.19921875 C7.71093708 50.19855797 6.21484303 50.1972768 4.71875 50.1953125 C3.64844543 50.19834885 3.64844543 50.19834885 2.55651855 50.20144653 C-2.44754809 50.17745191 -2.44754809 50.17745191 -3.5625 49.0625 C-3.66081146 47.56379952 -3.69048456 46.06051461 -3.69189453 44.55859375 C-3.69504669 43.60090088 -3.69819885 42.64320801 -3.70144653 41.65649414 C-3.6994223 40.61485107 -3.69739807 39.57320801 -3.6953125 38.5 C-3.69626923 37.43837646 -3.69722595 36.37675293 -3.69821167 35.28295898 C-3.69889364 33.03336528 -3.69703819 30.78376963 -3.69287109 28.53417969 C-3.6875231 25.07742929 -3.69281554 21.62080883 -3.69921875 18.1640625 C-3.69855797 15.98437471 -3.69727682 13.804687 -3.6953125 11.625 C-3.69733673 10.58335693 -3.69936096 9.54171387 -3.70144653 8.46850586 C-3.69829437 7.51081299 -3.69514221 6.55312012 -3.69189453 5.56640625 C-3.69109894 4.71892822 -3.69030334 3.8714502 -3.68948364 2.99829102 C-3.4921592 -0.00980411 -3.03226661 0.07395772 0 0 Z " fill="#8D2221" transform="translate(622.5625,289.9375)"/>
<path d="M0 0 C3.3 0 6.6 0 10 0 C10 16.17 10 32.34 10 49 C6.7 49 3.4 49 0 49 C0 32.83 0 16.66 0 0 Z M1 2 C1 16.52 1 31.04 1 46 C3.31 46 5.62 46 8 46 C8 31.48 8 16.96 8 2 C5.69 2 3.38 2 1 2 Z " fill="#370504" transform="translate(276,291)"/>
<path d="M0 0 C3.63 0 7.26 0 11 0 C11.02464247 6.81762424 11.04283244 13.6352228 11.05493164 20.45288086 C11.05997333 22.77417451 11.06680651 25.09546497 11.07543945 27.41674805 C11.08751225 30.74528795 11.09322979 34.07378602 11.09765625 37.40234375 C11.10281754 38.44712387 11.10797882 39.49190399 11.11329651 40.56834412 C11.11337204 41.52926468 11.11344757 42.49018524 11.11352539 43.48022461 C11.115746 44.33071884 11.11796661 45.18121307 11.12025452 46.05747986 C11 48 11 48 10 49 C8.50261876 49.0979057 7.00057108 49.12974864 5.5 49.125 C4.6853125 49.12757813 3.870625 49.13015625 3.03125 49.1328125 C1 49 1 49 0 48 C-0.09311889 46.49581261 -0.11746028 44.98728644 -0.11352539 43.48022461 C-0.11344986 42.51930405 -0.11337433 41.55838348 -0.11329651 40.56834412 C-0.10813522 39.523564 -0.10297394 38.47878387 -0.09765625 37.40234375 C-0.0962413 36.33834854 -0.09482635 35.27435333 -0.09336853 34.17811584 C-0.08775064 30.76454917 -0.07519511 27.351047 -0.0625 23.9375 C-0.05748731 21.62955824 -0.052924 19.32161545 -0.04882812 17.01367188 C-0.03777539 11.34242289 -0.02049877 5.6712224 0 0 Z M2 1 C1.97472938 7.39037231 1.95716683 13.78073183 1.94506836 20.17114258 C1.94002692 22.34692873 1.93319393 24.52271147 1.92456055 26.69848633 C1.91248662 29.81853067 1.90676995 32.93853038 1.90234375 36.05859375 C1.89718246 37.03775253 1.89202118 38.01691132 1.88670349 39.02574158 C1.88662796 39.92659988 1.88655243 40.82745819 1.88647461 41.75561523 C1.884254 42.55281479 1.88203339 43.35001434 1.87974548 44.17137146 C1.79949544 46.01922281 1.79949544 46.01922281 3 47 C6 47.16666667 6 47.16666667 9 47 C10.20050456 46.01922281 10.20050456 46.01922281 10.12025452 44.17137146 C10.11803391 43.37417191 10.11581329 42.57697235 10.11352539 41.75561523 C10.11341209 40.40432777 10.11341209 40.40432777 10.11329651 39.02574158 C10.10813522 38.04658279 10.10297394 37.06742401 10.09765625 36.05859375 C10.0962413 35.06118668 10.09482635 34.0637796 10.09336853 33.03614807 C10.08775114 29.83656876 10.07519571 26.63705831 10.0625 23.4375 C10.05748724 21.27408955 10.05292395 19.11067801 10.04882812 16.94726562 C10.03777607 11.63148675 10.02102104 6.31574829 10 1 C7.36 1 4.72 1 2 1 Z " fill="#741817" transform="translate(174,291)"/>
<path d="M0 0 C11.55 0 23.1 0 35 0 C35 2.64 35 5.28 35 8 C34 9 34 9 31.77514648 9.11352539 C30.81680908 9.10828857 29.85847168 9.10305176 28.87109375 9.09765625 C27.31938477 9.09282227 27.31938477 9.09282227 25.73632812 9.08789062 C24.64771484 9.07951172 23.55910156 9.07113281 22.4375 9.0625 C20.7987793 9.05573242 20.7987793 9.05573242 19.12695312 9.04882812 C16.41791505 9.03699826 13.70898401 9.02051543 11 9 C11 8.34 11 7.68 11 7 C18.26 7 25.52 7 33 7 C33 5.02 33 3.04 33 1 C22.77 1 12.54 1 2 1 C2.020625 4.485625 2.04125 7.97125 2.0625 11.5625 C2.09715972 23.72975392 1.64443522 35.85171059 1 48 C0.67 48 0.34 48 0 48 C0 32.16 0 16.32 0 0 Z " fill="#6B1414" transform="translate(235,291)"/>
<path d="M0 0 C0 13.2 0 26.4 0 40 C4.29 40 8.58 40 13 40 C16.00518091 40.28284056 19.00890943 40.5944284 22 41 C22 41.33 22 41.66 22 42 C18.58340509 42.05816623 15.16693795 42.09365195 11.75 42.125 C10.29787109 42.15013672 10.29787109 42.15013672 8.81640625 42.17578125 C7.41455078 42.18544922 7.41455078 42.18544922 5.984375 42.1953125 C5.12553711 42.20578613 4.26669922 42.21625977 3.38183594 42.22705078 C1 42 1 42 -3 40 C-2.67 27.79 -2.34 15.58 -2 3 C-4.97 2.505 -4.97 2.505 -8 2 C-8 16.85 -8 31.7 -8 47 C-8.33 47 -8.66 47 -9 47 C-9 31.82 -9 16.64 -9 1 C-4 0 -4 0 0 0 Z " fill="#1B0000" transform="translate(629,291)"/>
<path d="M0 0 C0.99 0.33 1.98 0.66 3 1 C2.01 1.495 2.01 1.495 1 2 C1 16.85 1 31.7 1 47 C8.59 47.33 16.18 47.66 24 48 C24 47.34 24 46.68 24 46 C25.32 46 26.64 46 28 46 C28 44.68 28 43.36 28 42 C29.65 42 31.3 42 33 42 C29.89385158 46.78864547 26.43094067 48.68122975 21 50 C17.15497227 50.33599009 13.35572693 50.28617018 9.5 50.1875 C8.48679687 50.17396484 7.47359375 50.16042969 6.4296875 50.14648438 C3.95255596 50.11143063 1.47657073 50.06229764 -1 50 C-1.67870144 39.04381969 -2.12002462 28.10324379 -2.1875 17.125 C-2.20039062 16.10986328 -2.21328125 15.09472656 -2.2265625 14.04882812 C-2.23337817 8.96093032 -2.04140436 4.76058725 0 0 Z " fill="#761414" transform="translate(660,290)"/>
<path d="M0 0 C0.75410156 0.00451172 1.50820313 0.00902344 2.28515625 0.01367188 C4.14847127 0.02546501 6.01174555 0.04340058 7.875 0.0625 C7.875 0.3925 7.875 0.7225 7.875 1.0625 C2.875 2.0625 2.875 2.0625 -9.125 2.0625 C-9.125 17.2425 -9.125 32.4225 -9.125 48.0625 C-6.485 48.0625 -3.845 48.0625 -1.125 48.0625 C-1.125 41.7925 -1.125 35.5225 -1.125 29.0625 C1.515 29.0625 4.155 29.0625 6.875 29.0625 C6.875 29.3925 6.875 29.7225 6.875 30.0625 C4.895 30.0625 2.915 30.0625 0.875 30.0625 C0.88023682 30.63282959 0.88547363 31.20315918 0.89086914 31.79077148 C0.91158221 34.36050323 0.9246419 36.93021747 0.9375 39.5 C0.94587891 40.39783203 0.95425781 41.29566406 0.96289062 42.22070312 C0.96611328 43.07470703 0.96933594 43.92871094 0.97265625 44.80859375 C0.97789307 45.59935303 0.98312988 46.3901123 0.98852539 47.20483398 C0.875 49.0625 0.875 49.0625 -0.125 50.0625 C-3.425 50.0625 -6.725 50.0625 -10.125 50.0625 C-10.125 33.8925 -10.125 17.7225 -10.125 1.0625 C-6.93675432 -0.53162284 -3.49603338 -0.03924735 0 0 Z " fill="#7F1312" transform="translate(587.125,289.9375)"/>
<path d="M0 0 C4.42326378 1.35155282 6.40412982 3.19890438 9 7 C10.70231183 12.10693548 10.22679329 17.4662538 10.25 22.8125 C10.270625 23.98876953 10.29125 25.16503906 10.3125 26.37695312 C10.36166675 37.24895079 10.36166675 37.24895079 7 42 C2.68421053 46 2.68421053 46 0 46 C0 45.34 0 44.68 0 44 C1.98 43.505 1.98 43.505 4 43 C4 42.01 4 41.02 4 40 C4.99 40 5.98 40 7 40 C6.88133375 35.67650376 6.7570589 31.3532153 6.62768555 27.0300293 C6.58449295 25.56067232 6.54280744 24.0912702 6.50268555 22.62182617 C6.44460118 20.50425645 6.38101902 18.38691063 6.31640625 16.26953125 C6.27974854 14.99698486 6.24309082 13.72443848 6.20532227 12.41333008 C6.0299208 9.49741104 5.66607117 6.83732095 5 4 C3.68 4 2.36 4 1 4 C0.67 2.68 0.34 1.36 0 0 Z " fill="#150000" transform="translate(320,292)"/>
<path d="M0 0 C5.28 0 10.56 0 16 0 C16 0.33 16 0.66 16 1 C11.05 1 6.1 1 1 1 C1 4.3 1 7.6 1 11 C2.64871094 10.98839844 4.29742187 10.97679687 5.99609375 10.96484375 C8.14322804 10.95546762 10.29036355 10.94636723 12.4375 10.9375 C13.52611328 10.92912109 14.61472656 10.92074219 15.73632812 10.91210938 C16.77080078 10.90888672 17.80527344 10.90566406 18.87109375 10.90234375 C20.30859985 10.89448853 20.30859985 10.89448853 21.77514648 10.88647461 C24 11 24 11 25 12 C25.1328125 13.8125 25.1328125 13.8125 25.125 16 C25.12886719 17.0828125 25.12886719 17.0828125 25.1328125 18.1875 C25 20 25 20 24 21 C21.55169574 21.08843793 19.13179401 21.11528752 16.68359375 21.09765625 C15.95253922 21.0962413 15.22148468 21.09482635 14.46827698 21.09336853 C12.12464368 21.08775408 9.78110461 21.07519922 7.4375 21.0625 C5.85221492 21.05748686 4.26692834 21.05292363 2.68164062 21.04882812 C-1.2122761 21.03777997 -5.10612205 21.02050572 -9 21 C-9 20.67 -9 20.34 -9 20 C1.56 19.67 12.12 19.34 23 19 C22.505 16.525 22.505 16.525 22 14 C21.36908447 13.97494385 20.73816895 13.9498877 20.08813477 13.92407227 C17.24603175 13.80845863 14.40428917 13.68557684 11.5625 13.5625 C10.56927734 13.52318359 9.57605469 13.48386719 8.55273438 13.44335938 C7.60849609 13.40146484 6.66425781 13.35957031 5.69140625 13.31640625 C4.81685791 13.27974854 3.94230957 13.24309082 3.04125977 13.20532227 C1 13 1 13 0 12 C-0.14355117 7.99779347 -0.04216403 4.00558317 0 0 Z " fill="#842624" transform="translate(245,319)"/>
<path d="M0 0 C7.92 0 15.84 0 24 0 C24 0.33 24 0.66 24 1 C16.41 1 8.82 1 1 1 C1 4.3 1 7.6 1 11 C2.60681641 10.98259766 2.60681641 10.98259766 4.24609375 10.96484375 C5.64322743 10.95546701 7.04036299 10.94636669 8.4375 10.9375 C9.14455078 10.92912109 9.85160156 10.92074219 10.58007812 10.91210938 C12.38693559 10.90346412 14.19387603 10.94779989 16 11 C17 12 17 12 17 20 C11.39 20 5.78 20 0 20 C0 23.96 0 27.92 0 32 C-0.33 32 -0.66 32 -1 32 C-1.02685938 29.85423363 -1.04633088 27.70837355 -1.0625 25.5625 C-1.07410156 24.36753906 -1.08570313 23.17257812 -1.09765625 21.94140625 C-1 19 -1 19 0 18 C2.53049402 17.92686433 5.03304837 17.90752473 7.5625 17.9375 C8.27341797 17.94201172 8.98433594 17.94652344 9.71679688 17.95117188 C11.47790013 17.96299136 13.23896036 17.98092737 15 18 C15 16.35 15 14.7 15 13 C10.05 13 5.1 13 0 13 C0 8.71 0 4.42 0 0 Z " fill="#561111" transform="translate(346,299)"/>
<path d="M0 0 C1 2 1 2 0 10 C10.23 10 20.46 10 31 10 C31 8.02 31 6.04 31 4 C24.07 3.67 17.14 3.34 10 3 C12 1 12 1 14.04711914 0.84887695 C14.86817139 0.89488037 15.68922363 0.94088379 16.53515625 0.98828125 C17.42654297 1.03533203 18.31792969 1.08238281 19.23632812 1.13085938 C20.6352832 1.22077148 20.6352832 1.22077148 22.0625 1.3125 C22.99900391 1.36083984 23.93550781 1.40917969 24.90039062 1.45898438 C31.85693284 1.85693284 31.85693284 1.85693284 33 3 C33.1328125 4.8125 33.1328125 4.8125 33.125 7 C33.12886719 8.0828125 33.12886719 8.0828125 33.1328125 9.1875 C33 11 33 11 32 12 C29.55169574 12.08843793 27.13179401 12.11528752 24.68359375 12.09765625 C23.95253922 12.0962413 23.22148468 12.09482635 22.46827698 12.09336853 C20.12464368 12.08775408 17.78110461 12.07519922 15.4375 12.0625 C13.85221492 12.05748686 12.26692834 12.05292363 10.68164062 12.04882812 C6.7877239 12.03777997 2.89387795 12.02050572 -1 12 C-1.02687279 10.18757948 -1.04633715 8.37504767 -1.0625 6.5625 C-1.07410156 5.55316406 -1.08570313 4.54382813 -1.09765625 3.50390625 C-1 1 -1 1 0 0 Z " fill="#6F1B1A" transform="translate(422,328)"/>
<path d="M0 0 C1.43352212 0.00015908 2.86704998 0.00585132 4.30053711 0.01586914 C5.43041298 0.01799156 5.43041298 0.01799156 6.58311462 0.02015686 C8.99807646 0.02577163 11.41294687 0.03832656 13.82788086 0.05102539 C15.46134307 0.05603849 17.09480672 0.06060173 18.72827148 0.06469727 C22.74067671 0.07574585 26.75301326 0.09302033 30.76538086 0.11352539 C31.33734991 7.27969784 30.95208453 11.15485357 26.32788086 16.73852539 C25.50416992 17.76204102 24.68045898 18.78555664 23.83178711 19.84008789 C23.14987305 20.59032227 22.46795898 21.34055664 21.76538086 22.11352539 C21.43538086 22.11352539 21.10538086 22.11352539 20.76538086 22.11352539 C20.76538086 20.46352539 20.76538086 18.81352539 20.76538086 17.11352539 C22.08538086 16.45352539 23.40538086 15.79352539 24.76538086 15.11352539 C24.76538086 14.12352539 24.76538086 13.13352539 24.76538086 12.11352539 C25.42538086 12.11352539 26.08538086 12.11352539 26.76538086 12.11352539 C26.76538086 11.45352539 26.76538086 10.79352539 26.76538086 10.11352539 C27.42538086 10.11352539 28.08538086 10.11352539 28.76538086 10.11352539 C29.09538086 7.14352539 29.42538086 4.17352539 29.76538086 1.11352539 C19.20538086 1.11352539 8.64538086 1.11352539 -2.23461914 1.11352539 C-2.23461914 3.42352539 -2.23461914 5.73352539 -2.23461914 8.11352539 C4.69538086 8.11352539 11.62538086 8.11352539 18.76538086 8.11352539 C18.43538086 9.10352539 18.10538086 10.09352539 17.76538086 11.11352539 C17.76538086 10.45352539 17.76538086 9.79352539 17.76538086 9.11352539 C17.13446533 9.11876221 16.5035498 9.12399902 15.85351562 9.12939453 C13.01164739 9.15010365 10.16979498 9.16316605 7.32788086 9.17602539 C5.83804687 9.18859375 5.83804687 9.18859375 4.31811523 9.20141602 C3.37387695 9.20463867 2.42963867 9.20786133 1.45678711 9.21118164 C0.58223877 9.21641846 -0.29230957 9.22165527 -1.19335938 9.22705078 C-3.23461914 9.11352539 -3.23461914 9.11352539 -4.23461914 8.11352539 C-4.35961914 4.61352539 -4.35961914 4.61352539 -4.23461914 1.11352539 C-3.23461914 0.11352539 -3.23461914 0.11352539 0 0 Z " fill="#6A0C0C" transform="translate(424.234619140625,290.886474609375)"/>
<path d="M0 0 C0.33 0 0.66 0 1 0 C1 15.51 1 31.02 1 47 C3.64 46.67 6.28 46.34 9 46 C9 40.06 9 34.12 9 28 C12.3 28 15.6 28 19 28 C22.42857143 35.28571429 22.42857143 35.28571429 22 40 C19.77174356 37.77174356 19.30760631 36.34238372 18.375 33.375 C18.11460938 32.55773437 17.85421875 31.74046875 17.5859375 30.8984375 C17.39257812 30.27195312 17.19921875 29.64546875 17 29 C14.69 29 12.38 29 10 29 C10 35.6 10 42.2 10 49 C6.7 49 3.4 49 0 49 C0 32.83 0 16.66 0 0 Z " fill="#510B0D" transform="translate(92,291)"/>
<path d="M0 0 C1.05896484 -0.01224609 2.11792969 -0.02449219 3.20898438 -0.03710938 C4.22927734 -0.03904297 5.24957031 -0.04097656 6.30078125 -0.04296875 C7.23704346 -0.04707764 8.17330566 -0.05118652 9.13793945 -0.05541992 C11.78511326 0.19680051 13.41719047 0.84224247 15.6875 2.1875 C15.3575 2.8475 15.0275 3.5075 14.6875 4.1875 C14.13481445 4.02902588 13.58212891 3.87055176 13.01269531 3.70727539 C10.46685695 3.13817733 8.09050555 2.9771572 5.484375 2.87109375 C4.60104492 2.83298584 3.71771484 2.79487793 2.80761719 2.75561523 C1.69547852 2.71251221 0.58333984 2.66940918 -0.5625 2.625 C-4.11 2.480625 -7.6575 2.33625 -11.3125 2.1875 C-11.3125 16.7075 -11.3125 31.2275 -11.3125 46.1875 C-11.6425 46.1875 -11.9725 46.1875 -12.3125 46.1875 C-12.33777062 39.79712769 -12.35533317 33.40676817 -12.36743164 27.01635742 C-12.37247308 24.84057127 -12.37930607 22.66478853 -12.38793945 20.48901367 C-12.40001338 17.36896933 -12.40573005 14.24896962 -12.41015625 11.12890625 C-12.41531754 10.14974747 -12.42047882 9.17058868 -12.42579651 8.16175842 C-12.42587204 7.26090012 -12.42594757 6.36004181 -12.42602539 5.43188477 C-12.428246 4.63468521 -12.43046661 3.83748566 -12.43275452 3.01612854 C-12.10199147 -2.01355981 -3.73811797 0.00225052 0 0 Z " fill="#110000" transform="translate(672.3125,290.8125)"/>
<path d="M0 0 C2.31 0 4.62 0 7 0 C9.22225717 6.26835886 9.33329237 12.13802538 9.3125 18.75 C9.32861328 19.79027344 9.34472656 20.83054687 9.36132812 21.90234375 C9.36197266 22.89878906 9.36261719 23.89523437 9.36328125 24.921875 C9.36626221 25.82518555 9.36924316 26.72849609 9.37231445 27.65917969 C8.93421501 30.41360425 8.14212139 31.28517005 6 33 C5.01 32.67 4.02 32.34 3 32 C3 32.66 3 33.32 3 34 C0.36 34 -2.28 34 -5 34 C-5 33.34 -5 32.68 -5 32 C-6.485 32.495 -6.485 32.495 -8 33 C-7.67 31.68 -7.34 30.36 -7 29 C-5.515 29.99 -5.515 29.99 -4 31 C-0.5896024 31.21314985 1.74531799 31.084894 5 30 C6.60322236 25.74890858 6.22282567 21.04286689 6.25 16.5625 C6.270625 15.71623047 6.29125 14.86996094 6.3125 13.99804688 C6.34268517 9.17973958 6.19542414 5.87482506 3 2 C2.01 1.34 1.02 0.68 0 0 Z " fill="#520E0C" transform="translate(553,299)"/>
<path d="M0 0 C3.63 0 7.26 0 11 0 C10.37693049 3.00041238 9.7515989 6.00032443 9.125 9 C8.95097656 9.83917969 8.77695312 10.67835938 8.59765625 11.54296875 C7.51224894 16.72880369 6.31853943 21.8683871 5 27 C4.67 27 4.34 27 4 27 C3.94527912 25.60461746 3.90688462 24.20859103 3.875 22.8125 C3.85179687 22.03519531 3.82859375 21.25789063 3.8046875 20.45703125 C4.02901419 17.63500143 4.91870885 15.60781982 6 13 C6.42148875 11.07207923 6.79676438 9.1334683 7.125 7.1875 C7.37636719 5.72376953 7.37636719 5.72376953 7.6328125 4.23046875 C7.75398437 3.49441406 7.87515625 2.75835937 8 2 C6.02 2 4.04 2 2 2 C1.01 6.62 0.02 11.24 -1 16 C-1.66 16 -2.32 16 -3 16 C-2.52013969 10.43109483 -1.70084819 5.32932432 0 0 Z " fill="#470607" transform="translate(519,291)"/>
<path d="M0 0 C0.66 0 1.32 0 2 0 C1.99476318 0.60996826 1.98952637 1.21993652 1.98413086 1.84838867 C1.96326665 4.62808185 1.95030987 7.40775851 1.9375 10.1875 C1.92912109 11.14720703 1.92074219 12.10691406 1.91210938 13.09570312 C1.90727539 14.49272461 1.90727539 14.49272461 1.90234375 15.91796875 C1.89710693 16.77156982 1.89187012 17.6251709 1.88647461 18.50463867 C2.00420677 21.09246747 2.42892956 23.47661953 3 26 C3.93972656 26.09087891 3.93972656 26.09087891 4.8984375 26.18359375 C5.71570313 26.26738281 6.53296875 26.35117187 7.375 26.4375 C8.59316406 26.55931641 8.59316406 26.55931641 9.8359375 26.68359375 C12 27 12 27 14 28 C12 30 12 30 10.0546875 30.1953125 C8.03645833 30.13020833 6.01822917 30.06510417 4 30 C4 29.34 4 28.68 4 28 C3.01 27.67 2.02 27.34 1 27 C-1.04824485 23.9628003 -1.24704202 21.43948039 -1.23046875 17.83203125 C-1.22853516 16.85685547 -1.22660156 15.88167969 -1.22460938 14.87695312 C-1.21236328 13.86568359 -1.20011719 12.85441406 -1.1875 11.8125 C-1.18685547 10.78962891 -1.18621094 9.76675781 -1.18554688 8.71289062 C-1.14032251 1.14032251 -1.14032251 1.14032251 0 0 Z " fill="#2D0202" transform="translate(12,303)"/>
<path d="M0 0 C1.84036681 2.76055022 2.68344114 4.74598117 3.625 7.875 C4.01558594 9.13957031 4.01558594 9.13957031 4.4140625 10.4296875 C5 13 5 13 5 18 C1.7 18 -1.6 18 -5 18 C-5.99 15.69 -6.98 13.38 -8 11 C-13.61 11 -19.22 11 -25 11 C-25 10.34 -25 9.68 -25 9 C-19.06 9 -13.12 9 -7 9 C-6.67 8.34 -6.34 7.68 -6 7 C-5.67 9.97 -5.34 12.94 -5 16 C-1.535 15.505 -1.535 15.505 2 15 C2 13.35 2 11.7 2 10 C1.34 9.67 0.68 9.34 0 9 C0 6.03 0 3.06 0 0 Z " fill="#631515" transform="translate(81,322)"/>
<path d="M0 0 C0.33 0 0.66 0 1 0 C1.01981934 0.89307861 1.03963867 1.78615723 1.06005859 2.70629883 C1.13818698 6.02200708 1.22487971 9.33726162 1.31738281 12.65258789 C1.35564866 14.08707068 1.39050581 15.52164865 1.421875 16.95629883 C1.46757862 19.01938878 1.52556193 21.08182495 1.5859375 23.14453125 C1.6173584 24.38565674 1.6487793 25.62678223 1.68115234 26.90551758 C1.77399209 30.16636101 1.77399209 30.16636101 4 33 C3.67 33.99 3.34 34.98 3 36 C-2.35845059 30.19765409 -1.49119615 23.85347759 -1.3125 16.3125 C-1.30283203 15.07693359 -1.29316406 13.84136719 -1.28320312 12.56835938 C-1.16952328 3.50856983 -1.16952328 3.50856983 0 0 Z " fill="#4A0707" transform="translate(4,299)"/>
<path d="M0 0 C1.89515194 6.58996015 -0.2013755 12.03771302 -3 18 C-0.69 18.33 1.62 18.66 4 19 C4 17.68 4 16.36 4 15 C4.99 15 5.98 15 7 15 C6.34 16.98 5.68 18.96 5 21 C1.7 21 -1.6 21 -5 21 C-6.33201473 18.33597054 -5.69751146 17.4413616 -4.78515625 14.6484375 C-4.51123047 13.79765625 -4.23730469 12.946875 -3.95507812 12.0703125 C-3.66052734 11.18085938 -3.36597656 10.29140625 -3.0625 9.375 C-2.77181641 8.4778125 -2.48113281 7.580625 -2.18164062 6.65625 C-1.46100166 4.43526435 -0.73354395 2.21675021 0 0 Z " fill="#611414" transform="translate(49,319)"/>
<path d="M0 0 C1.24546405 2.49092811 0.7767578 3.41080733 0 6 C-0.66 6 -1.32 6 -2 6 C-1.67 15.9 -1.34 25.8 -1 36 C-5.35820643 31.64179357 -4.21970827 24.96943464 -4.25 19.1875 C-4.270625 18.21490234 -4.29125 17.24230469 -4.3125 16.24023438 C-4.34436845 10.35652112 -3.80909479 6.19966284 -1 1 C-0.67 0.67 -0.34 0.34 0 0 Z " fill="#621113" transform="translate(537,296)"/>
<path d="M0 0 C0.99 0.33 1.98 0.66 3 1 C2.67 1.66 2.34 2.32 2 3 C1.91550372 4.7404417 1.89276976 6.48409722 1.90234375 8.2265625 C1.90556641 9.2578125 1.90878906 10.2890625 1.91210938 11.3515625 C1.92048828 12.43179687 1.92886719 13.51203125 1.9375 14.625 C1.94201172 15.71296875 1.94652344 16.8009375 1.95117188 17.921875 C1.96298224 20.61463789 1.97945222 23.30729188 2 26 C-1 24 -1 24 -2 21 C-2.39074812 13.76661621 -2.60176692 6.82963816 0 0 Z " fill="#490D0D" transform="translate(543,302)"/>
<path d="M0 0 C0.99 0 1.98 0 3 0 C3 3.63 3 7.26 3 11 C9.435 10.505 9.435 10.505 16 10 C15.67 10.99 15.34 11.98 15 13 C12.68756208 13.02685412 10.3750373 13.04632841 8.0625 13.0625 C6.77472656 13.07410156 5.48695313 13.08570313 4.16015625 13.09765625 C1 13 1 13 0 12 C-0.07244053 9.98035801 -0.08377188 7.95832876 -0.0625 5.9375 C-0.05347656 4.83277344 -0.04445313 3.72804688 -0.03515625 2.58984375 C-0.02355469 1.73519531 -0.01195312 0.88054687 0 0 Z " fill="#581415" transform="translate(585,300)"/>
<path d="M0 0 C4.95 0 9.9 0 15 0 C15.8814688 2.64440639 16.16174818 4.28060752 16.1875 7 C16.20167969 7.680625 16.21585938 8.36125 16.23046875 9.0625 C16 11 16 11 14 14 C10.7421875 14.29296875 10.7421875 14.29296875 6.875 14.1875 C4.95300781 14.14689453 4.95300781 14.14689453 2.9921875 14.10546875 C2.00476563 14.07066406 1.01734375 14.03585937 0 14 C0 13.34 0 12.68 0 12 C0.84304687 11.93941406 1.68609375 11.87882812 2.5546875 11.81640625 C3.65039062 11.73261719 4.74609375 11.64882813 5.875 11.5625 C6.96554688 11.48128906 8.05609375 11.40007812 9.1796875 11.31640625 C11.94728971 11.16998297 11.94728971 11.16998297 14 10 C14.16681109 7.08347826 14.16681109 7.08347826 14 4 C11.31907309 1.31907309 9.60832637 1.61329743 5.875 1.375 C4.23144531 1.26285156 4.23144531 1.26285156 2.5546875 1.1484375 C1.71164063 1.09945313 0.86859375 1.05046875 0 1 C0 0.67 0 0.34 0 0 Z " fill="#5B1312" transform="translate(102,299)"/>
<path d="M0 0 C0.33 0 0.66 0 1 0 C1.125 6.625 1.125 6.625 0 10 C3.465 9.505 3.465 9.505 7 9 C7.33 7.68 7.66 6.36 8 5 C8.66 5 9.32 5 10 5 C9.125 11.875 9.125 11.875 8 13 C6.31391034 13.07205511 4.62499341 13.08386068 2.9375 13.0625 C2.01839844 13.05347656 1.09929687 13.04445313 0.15234375 13.03515625 C-0.55792969 13.02355469 -1.26820313 13.01195312 -2 13 C-3.18414294 9.44757118 -2.69535532 8.30169438 -1.5625 4.8125 C-1.27503906 3.91144531 -0.98757813 3.01039063 -0.69140625 2.08203125 C-0.46324219 1.39496094 -0.23507812 0.70789063 0 0 Z " fill="#5D1413" transform="translate(377,327)"/>
<path d="M0 0 C3.22342679 4.83514019 2.32791763 10.12956217 2.3125 15.8125 C2.32861328 16.98876953 2.34472656 18.16503906 2.36132812 19.37695312 C2.36746293 30.22942751 2.36746293 30.22942751 -1 35 C-5.31578947 39 -5.31578947 39 -8 39 C-8 38.34 -8 37.68 -8 37 C-6.02 36.505 -6.02 36.505 -4 36 C-4 35.01 -4 34.02 -4 33 C-3.01 33 -2.02 33 -1 33 C-1.020625 32.030625 -1.04125 31.06125 -1.0625 30.0625 C-1 27 -1 27 0 26 C0.08748207 24.07332493 0.10697334 22.14348139 0.09765625 20.21484375 C0.09443359 19.04501953 0.09121094 17.87519531 0.08789062 16.66992188 C0.07951172 15.43822266 0.07113281 14.20652344 0.0625 12.9375 C0.05798828 11.70193359 0.05347656 10.46636719 0.04882812 9.19335938 C0.03699608 6.12885883 0.02051173 3.06445279 0 0 Z " fill="#6A1816" transform="translate(328,299)"/>
<path d="M0 0 C1.04929687 -0.01417969 2.09859375 -0.02835937 3.1796875 -0.04296875 C6.125 0.1875 6.125 0.1875 10.125 2.1875 C0.72 3.1775 0.72 3.1775 -8.875 4.1875 C-9.535 5.8375 -10.195 7.4875 -10.875 9.1875 C-12.195 9.1875 -13.515 9.1875 -14.875 9.1875 C-12.17833592 2.32326417 -6.8964383 0.04215427 0 0 Z " fill="#6A1112" transform="translate(19.875,289.8125)"/>
<path d="M0 0 C0.33 0 0.66 0 1 0 C0.22095672 14.78132118 0.22095672 14.78132118 -2 21 C-3.32 21 -4.64 21 -6 21 C-7.10228696 16.59085217 -7.07654536 12.51617599 -7 8 C-5.5268006 10.74997221 -4.77595125 12.89619499 -4 16 C-2.68 10.72 -1.36 5.44 0 0 Z " fill="#641315" transform="translate(493,299)"/>
<path d="M0 0 C3.46651602 3.31579793 4.21876514 5.3819613 4.4375 10.1875 C4.41646548 15.51624527 3.1699741 18.07831174 -0.4921875 21.85546875 C-2 23 -2 23 -4 23 C-4.33 23.99 -4.66 24.98 -5 26 C-5 24.02 -5 22.04 -5 20 C-4.360625 19.71125 -3.72125 19.4225 -3.0625 19.125 C-0.84793921 18.17176549 -0.84793921 18.17176549 0 16 C0.66 16 1.32 16 2 16 C2.05422947 14.5629191 2.09289723 13.12524538 2.125 11.6875 C2.14820313 10.88699219 2.17140625 10.08648437 2.1953125 9.26171875 C2.15817322 6.71611424 2.15817322 6.71611424 0 4 C0 2.68 0 1.36 0 0 Z " fill="#490D0E" transform="translate(609,295)"/>
<path d="M0 0 C1.82560937 2.73841406 2.49824222 4.34837081 3.2890625 7.44921875 C3.50820312 8.29677734 3.72734375 9.14433594 3.953125 10.01757812 C4.17484375 10.89865234 4.3965625 11.77972656 4.625 12.6875 C4.85445312 13.58017578 5.08390625 14.47285156 5.3203125 15.39257812 C5.88533134 17.59379736 6.44501493 19.79623357 7 22 C7.66 21.67 8.32 21.34 9 21 C8.67 22.65 8.34 24.3 8 26 C7.34 26 6.68 26 6 26 C5.67 23.69 5.34 21.38 5 19 C4.34 19 3.68 19 3 19 C0.99134292 12.49577707 -0.38614349 6.8218683 0 0 Z " fill="#5E1414" transform="translate(203,299)"/>
<path d="M0 0 C0.99 0 1.98 0 3 0 C3.08678303 3.95819611 3.14031733 7.91614934 3.1875 11.875 C3.21263672 13.00292969 3.23777344 14.13085938 3.26367188 15.29296875 C3.27333984 16.36933594 3.28300781 17.44570313 3.29296875 18.5546875 C3.3086792 19.54968262 3.32438965 20.54467773 3.34057617 21.56982422 C3.22818604 22.37178223 3.1157959 23.17374023 3 24 C2.01 24.66 1.02 25.32 0 26 C0 17.42 0 8.84 0 0 Z " fill="#59100E" transform="translate(318,302)"/>
<path d="M0 0 C2.41018108 2.9968234 4.08914691 6.00570256 5.6875 9.5 C6.12449219 10.4384375 6.56148437 11.376875 7.01171875 12.34375 C8 15 8 15 8 19 C4.7 19 1.4 19 -2 19 C-2 18.67 -2 18.34 -2 18 C0.64 18 3.28 18 6 18 C5.34 16.35 4.68 14.7 4 13 C3.34 13 2.68 13 2 13 C0.54815522 8.46298506 -0.23509196 4.81938524 0 0 Z " fill="#681516" transform="translate(605,321)"/>
<path d="M0 0 C1.27710684 3.83132052 0.44164418 5.35667355 -0.875 9.125 C-1.24367187 10.20007813 -1.61234375 11.27515625 -1.9921875 12.3828125 C-3 15 -3 15 -4 16 C-5.68608966 16.07205511 -7.37500659 16.08386068 -9.0625 16.0625 C-9.98160156 16.05347656 -10.90070313 16.04445313 -11.84765625 16.03515625 C-12.55792969 16.02355469 -13.26820313 16.01195312 -14 16 C-14 15.01 -14 14.02 -14 13 C-10.7 13.33 -7.4 13.66 -4 14 C-4 11.69 -4 9.38 -4 7 C-3.34 7 -2.68 7 -2 7 C-1.855625 6.21625 -1.71125 5.4325 -1.5625 4.625 C-1 2 -1 2 0 0 Z " fill="#661415" transform="translate(219,324)"/>
<path d="M0 0 C3.74993479 -0.05811773 7.49975352 -0.09363593 11.25 -0.125 C12.84521484 -0.15013672 12.84521484 -0.15013672 14.47265625 -0.17578125 C16.00986328 -0.18544922 16.00986328 -0.18544922 17.578125 -0.1953125 C18.52075195 -0.20578613 19.46337891 -0.21625977 20.43457031 -0.22705078 C23.09951941 0.00880787 24.71863092 0.64338341 27 2 C26.67 2.66 26.34 3.32 26 4 C25.44731445 3.8460376 24.89462891 3.6920752 24.32519531 3.53344727 C21.80487927 2.95523532 19.37271955 2.68948136 16.796875 2.46484375 C15.8171875 2.37783203 14.8375 2.29082031 13.828125 2.20117188 C12.81234375 2.11416016 11.7965625 2.02714844 10.75 1.9375 C9.203125 1.80118164 9.203125 1.80118164 7.625 1.66210938 C5.08356856 1.43855754 2.54191609 1.2179601 0 1 C0 0.67 0 0.34 0 0 Z " fill="#3F0606" transform="translate(661,291)"/>
<path d="M0 0 C4.56406321 -0.077357 8.52686324 0.05115281 13 1 C13.33 0.67 13.66 0.34 14 0 C16.67058851 -0.14115161 19.32432238 -0.04247107 22 0 C18.47890858 3.33623412 15.74954824 3.37790691 11 3.3125 C9.783125 3.30863281 8.56625 3.30476563 7.3125 3.30078125 C4.26638572 3.02418833 2.55354231 2.6023478 0 1 C0 0.67 0 0.34 0 0 Z " fill="#460B0B" transform="translate(541,337)"/>
<path d="M0 0 C3.46798329 3.46798329 4.15761602 5.59261457 4.3125 10.3125 C4.28917819 15.07014874 2.98044903 17.36757775 0 21 C-0.33 20.01 -0.66 19.02 -1 18 C-0.34 18 0.32 18 1 18 C0.67 12.06 0.34 6.12 0 0 Z " fill="#661516" transform="translate(124,295)"/>
<path d="M0 0 C2 2 2 2 2.1953125 3.9453125 C2.13020833 5.96354167 2.06510417 7.98177083 2 10 C-1.3 10 -4.6 10 -8 10 C-8.66 7.69 -9.32 5.38 -10 3 C-9.01 3.33 -8.02 3.66 -7 4 C-7 5.32 -7 6.64 -7 8 C-4.69 8 -2.38 8 0 8 C0 5.36 0 2.72 0 0 Z " fill="#4C0608" transform="translate(37,298)"/>
<path d="M0 0 C0.33 0.99 0.66 1.98 1 3 C1.66 3.33 2.32 3.66 3 4 C2.360625 4.845625 1.72125 5.69125 1.0625 6.5625 C-0.67653823 9.13773082 -1.03725288 10.26077019 -1.5 13.5 C-2.109545 17.76681503 -3.43653209 19.60960695 -6 23 C-7 21 -7 21 -6.47094727 18.84521484 C-6.02319946 17.54124756 -6.02319946 17.54124756 -5.56640625 16.2109375 C-5.24736328 15.26992188 -4.92832031 14.32890625 -4.59960938 13.359375 C-4.25736328 12.37453125 -3.91511719 11.3896875 -3.5625 10.375 C-3.05493164 8.88613281 -3.05493164 8.88613281 -2.53710938 7.3671875 C-1.69804913 4.90909552 -0.85209309 2.45359843 0 0 Z " fill="#6A1314" transform="translate(57,294)"/>
<path d="M0 0 C2.31 0 4.62 0 7 0 C8.84532714 5.47059581 9.25309068 10.18819928 9.125 15.9375 C9.11597656 16.71673828 9.10695313 17.49597656 9.09765625 18.29882812 C9.07433691 20.19935447 9.03847586 22.09972008 9 24 C8.67 24 8.34 24 8 24 C7.96132813 22.37191406 7.96132813 22.37191406 7.921875 20.7109375 C7.86556262 19.26558651 7.808216 17.82027556 7.75 16.375 C7.73582031 15.66214844 7.72164062 14.94929688 7.70703125 14.21484375 C7.47222675 9.09610556 6.34894811 6.07007197 3 2 C2.01 1.34 1.02 0.68 0 0 Z " fill="#120000" transform="translate(553,299)"/>
<path d="M0 0 C0.99 0.33 1.98 0.66 3 1 C2.67 1.99 2.34 2.98 2 4 C1.14301019 6.72831838 0.28872368 9.45738485 -0.5625 12.1875 C-0.79646484 12.93708984 -1.03042969 13.68667969 -1.27148438 14.45898438 C-1.84791321 16.30590941 -2.42399063 18.15294411 -3 20 C-3.33 20 -3.66 20 -4 20 C-3.40546697 6.3667426 -3.40546697 6.3667426 0 0 Z " fill="#611212" transform="translate(394,302)"/>
<path d="M0 0 C2.83374881 3.20336822 3.5205537 5.78087253 4 10 C0.7 10 -2.6 10 -6 10 C-6.33 9.01 -6.66 8.02 -7 7 C-4.36 7.33 -1.72 7.66 1 8 C0.67 5.36 0.34 2.72 0 0 Z " fill="#6D1619" transform="translate(124,330)"/>
<path d="M0 0 C0.66 0 1.32 0 2 0 C2 0.99 2 1.98 2 3 C5.3 3.33 8.6 3.66 12 4 C12.33 3.01 12.66 2.02 13 1 C13.5625 2.9375 13.5625 2.9375 14 5 C13 6 13 6 10.05859375 6.09765625 C8.26615234 6.08025391 8.26615234 6.08025391 6.4375 6.0625 C4.64119141 6.04896484 4.64119141 6.04896484 2.80859375 6.03515625 C1.88175781 6.02355469 0.95492187 6.01195312 0 6 C0 4.02 0 2.04 0 0 Z " fill="#7B0D17" transform="translate(58,319)"/>
<path d="M0 0 C2.56616632 3.84924948 2.55097676 6.4349304 3 11 C-0.3 11 -3.6 11 -7 11 C-7 10.01 -7 9.02 -7 8 C-4.36 8.33 -1.72 8.66 1 9 C0.67 6.03 0.34 3.06 0 0 Z " fill="#6F1817" transform="translate(414,329)"/>
<path d="M0 0 C2 3 2 3 2 5 C2.62648438 5.06058594 3.25296875 5.12117188 3.8984375 5.18359375 C4.71570313 5.26738281 5.53296875 5.35117187 6.375 5.4375 C7.59316406 5.55931641 7.59316406 5.55931641 8.8359375 5.68359375 C11 6 11 6 13 7 C11 9 11 9 9.0546875 9.1953125 C7.03645833 9.13020833 5.01822917 9.06510417 3 9 C3 8.34 3 7.68 3 7 C2.01 6.67 1.02 6.34 0 6 C0 4.02 0 2.04 0 0 Z " fill="#580D0D" transform="translate(13,324)"/>
<path d="M0 0 C0.66 0.33 1.32 0.66 2 1 C0.89309248 7.40593286 -0.33945169 13.71363856 -2 20 C-2.33 20 -2.66 20 -3 20 C-3.20379605 14.8032007 -3.20550798 10.80022325 -1 6 C-0.62406934 4.0075675 -0.28020455 2.0081326 0 0 Z " fill="#621312" transform="translate(526,298)"/>
<path d="M0 0 C2.39073445 3.82517513 2.55966552 7.59665524 3 12 C3.66 12 4.32 12 5 12 C5 13.32 5 14.64 5 16 C4.01 16 3.02 16 2 16 C0.40837921 10.42932723 -0.20674944 5.78898419 0 0 Z " fill="#631919" transform="translate(509,304)"/>
<path d="M0 0 C0.33 0 0.66 0 1 0 C1.1921227 5.47549707 0.99186369 9.86308839 -1 15 C-1.99 15.33 -2.98 15.66 -4 16 C-3.39891424 10.34979382 -1.92471317 5.33835539 0 0 Z " fill="#571111" transform="translate(388,293)"/>
<path d="M0 0 C7.75 -0.125 7.75 -0.125 10 1 C10 3.31 10 5.62 10 8 C9.67 8 9.34 8 9 8 C8.34 6.02 7.68 4.04 7 2 C4.03 1.505 4.03 1.505 1 1 C1.33 2.65 1.66 4.3 2 6 C0.35 6.66 -1.3 7.32 -3 8 C-2.01 5.36 -1.02 2.72 0 0 Z " fill="#851919" transform="translate(29,322)"/>
<path d="M0 0 C0.6328125 1.84765625 0.6328125 1.84765625 1.125 4.0625 C1.29257813 4.79597656 1.46015625 5.52945312 1.6328125 6.28515625 C1.75398438 6.85105469 1.87515625 7.41695313 2 8 C0 7 0 7 -1 4 C-5.26754372 1.54292937 -9.2214118 1.83801396 -14 2 C-14 1.34 -14 0.68 -14 0 C-12.04235617 -0.19456705 -10.08384679 -0.38044247 -8.125 -0.5625 C-6.48917969 -0.71912109 -6.48917969 -0.71912109 -4.8203125 -0.87890625 C-2 -1 -2 -1 0 0 Z " fill="#5B0A08" transform="translate(72,291)"/>
<path d="M0 0 C2.97 0 5.94 0 9 0 C12.42857143 7.28571429 12.42857143 7.28571429 12 12 C9.77174356 9.77174356 9.30760631 8.34238372 8.375 5.375 C8.11460938 4.55773437 7.85421875 3.74046875 7.5859375 2.8984375 C7.39257812 2.27195312 7.19921875 1.64546875 7 1 C4.69 1 2.38 1 0 1 C0 0.67 0 0.34 0 0 Z " fill="#631818" transform="translate(102,319)"/>
<path d="M0 0 C1.58360016 4.75080047 0.52258147 9.24561936 -0.875 13.9375 C-2 16 -2 16 -5 17 C-1.92482916 5.47835991 -1.92482916 5.47835991 0 0 Z " fill="#661212" transform="translate(383,309)"/>
<path d="M0 0 C1.51553092 3.97450493 0.49888623 7.20481149 -0.4375 11.25 C-0.72496094 12.51328125 -1.01242187 13.7765625 -1.30859375 15.078125 C-1.53675781 16.04234375 -1.76492188 17.0065625 -2 18 C-2.33 18 -2.66 18 -3 18 C-2.67 12.39 -2.34 6.78 -2 1 C-1.34 0.67 -0.68 0.34 0 0 Z " fill="#5F1111" transform="translate(499,312)"/>
<path d="M0 0 C3.63 0 7.26 0 11 0 C11.33 1.65 11.66 3.3 12 5 C11.34 4.01 10.68 3.02 10 2 C8.03638136 1.42251197 8.03638136 1.42251197 5.875 1.3125 C4.59625 1.209375 3.3175 1.10625 2 1 C1.87625 1.78375 1.7525 2.5675 1.625 3.375 C1 6 1 6 -1 8 C-0.67 5.36 -0.34 2.72 0 0 Z " fill="#5F0B0D" transform="translate(495,291)"/>
<path d="M0 0 C0.99 0 1.98 0 3 0 C4.19088986 5.38027025 5.2919519 10.45291384 5 16 C3.15209462 12.68983906 2.25458513 9.42826509 1.375 5.75 C0.98441406 4.13351562 0.98441406 4.13351562 0.5859375 2.484375 C0.39257812 1.66453125 0.19921875 0.8446875 0 0 Z " fill="#5D1312" transform="translate(194,304)"/>
<path d="M0 0 C5.95345745 2.09175532 5.95345745 2.09175532 8 5 C8.1875 7.6875 8.1875 7.6875 8 10 C7.01 9.34 6.02 8.68 5 8 C5 6.68 5 5.36 5 4 C3.68 4 2.36 4 1 4 C0.67 2.68 0.34 1.36 0 0 Z " fill="#4D0E0E" transform="translate(320,292)"/>
<path d="M0 0 C3.96 0 7.92 0 12 0 C12 2.64 12 5.28 12 8 C11.34 8 10.68 8 10 8 C9.67 6.02 9.34 4.04 9 2 C6.03 1.67 3.06 1.34 0 1 C0 0.67 0 0.34 0 0 Z " fill="#611312" transform="translate(642,331)"/>
<path d="M0 0 C0.99 0 1.98 0 3 0 C4.49821059 3.37097383 5 5.20442119 5 9 C5.66 9.33 6.32 9.66 7 10 C6.01 11.485 6.01 11.485 5 13 C4.16209211 11.21046815 3.32980604 9.41830305 2.5 7.625 C1.80390625 6.12839844 1.80390625 6.12839844 1.09375 4.6015625 C0 2 0 2 0 0 Z " fill="#571211" transform="translate(594,320)"/>
<path d="M0 0 C0.66 0 1.32 0 2 0 C1.58578031 4.83256305 -0.46413986 6.82679218 -4 10 C-4 8.35 -4 6.7 -4 5 C-2.68 4.34 -1.36 3.68 0 3 C0 2.01 0 1.02 0 0 Z " fill="#480F0F" transform="translate(449,303)"/>
<path d="M0 0 C4.95 0 9.9 0 15 0 C15.33 2.97 15.66 5.94 16 9 C15.67 9 15.34 9 15 9 C14.5359375 7.5459375 14.5359375 7.5459375 14.0625 6.0625 C13.30476658 3.15934208 13.30476658 3.15934208 12 2 C9.98405418 1.76572222 7.961526 1.58663876 5.9375 1.4375 C4.83277344 1.35371094 3.72804688 1.26992188 2.58984375 1.18359375 C1.73519531 1.12300781 0.88054687 1.06242187 0 1 C0 0.67 0 0.34 0 0 Z " fill="#791C1E" transform="translate(102,299)"/>
<path d="M0 0 C0.66 0.33 1.32 0.66 2 1 C2 1.99 2 2.98 2 4 C2.66 4.33 3.32 4.66 4 5 C3.01 5.495 3.01 5.495 2 6 C1.34 5.67 0.68 5.34 0 5 C-2.0374763 4.77141886 -4.08040303 4.58975722 -6.125 4.4375 C-7.76855469 4.31181641 -7.76855469 4.31181641 -9.4453125 4.18359375 C-10.28835938 4.12300781 -11.13140625 4.06242187 -12 4 C-12 3.67 -12 3.34 -12 3 C-8.37 3 -4.74 3 -1 3 C-0.67 2.01 -0.34 1.02 0 0 Z " fill="#4C1211" transform="translate(599,296)"/>
<path d="M0 0 C3.63 0 7.26 0 11 0 C11.33 2.31 11.66 4.62 12 7 C11.67 6.38125 11.34 5.7625 11 5.125 C8.04391412 1.98415875 5.19079141 1.82441798 1 1 C0.67 1.99 0.34 2.98 0 4 C0 2.68 0 1.36 0 0 Z " fill="#5E0D0B" transform="translate(472,291)"/>
<path d="M0 0 C2.11044382 3.16566573 2.75552077 5.51197415 3.625 9.1875 C3.88539062 10.27417969 4.14578125 11.36085938 4.4140625 12.48046875 C4.60742188 13.31191406 4.80078125 14.14335937 5 15 C4.34 14.67 3.68 14.34 3 14 C3 13.34 3 12.68 3 12 C2.34 12 1.68 12 1 12 C0.67 8.04 0.34 4.08 0 0 Z " fill="#621415" transform="translate(74,300)"/>
<path d="M0 0 C1.46535356 0.02652224 2.93044676 0.07413383 4.39453125 0.140625 C5.14412109 0.15867187 5.89371094 0.17671875 6.66601562 0.1953125 C8.51356835 0.24238391 10.36046284 0.31412734 12.20703125 0.390625 C12.20703125 0.720625 12.20703125 1.050625 12.20703125 1.390625 C11.33820312 1.43960937 10.469375 1.48859375 9.57421875 1.5390625 C8.42179688 1.61382812 7.269375 1.68859375 6.08203125 1.765625 C4.37660156 1.87003906 4.37660156 1.87003906 2.63671875 1.9765625 C-0.74690491 2.38506376 -3.60909316 3.20030069 -6.79296875 4.390625 C-4.98264994 0.75567657 -4.13480698 0.42582976 0 0 Z " fill="#380809" transform="translate(544.79296875,291.609375)"/>
<path d="M0 0 C1.65 0 3.3 0 5 0 C2.11658466 4.21422242 -0.04303419 5.76075855 -5 7 C-4.67 6.01 -4.34 5.02 -4 4 C-2.68 4 -1.36 4 0 4 C0 2.68 0 1.36 0 0 Z " fill="#510F0F" transform="translate(688,332)"/>
<path d="M0 0 C1.24546405 2.49092811 0.7767578 3.41080733 0 6 C-0.66 6 -1.32 6 -2 6 C-2 6.99 -2 7.98 -2 9 C-3.32 9.33 -4.64 9.66 -6 10 C-4.6302836 6.00499382 -2.74277578 3.19990508 0 0 Z " fill="#5F1213" transform="translate(429,318)"/>
<path d="M0 0 C0.33 0 0.66 0 1 0 C1.02708567 1.60407328 1.04643483 3.2082785 1.0625 4.8125 C1.07410156 5.70582031 1.08570313 6.59914063 1.09765625 7.51953125 C1 10 1 10 0 13 C-0.66 13 -1.32 13 -2 13 C-1.85769192 11.58297487 -1.71099254 10.1663904 -1.5625 8.75 C-1.48128906 7.96109375 -1.40007813 7.1721875 -1.31640625 6.359375 C-1.02365007 4.17635361 -0.57935581 2.1226818 0 0 Z " fill="#561011" transform="translate(518,294)"/>
<path d="M0 0 C2.61940964 2.50552226 3.95696227 3.85347491 4.09765625 7.6015625 C4.08605469 8.59929687 4.07445312 9.59703125 4.0625 10.625 C4.05347656 11.62789063 4.04445313 12.63078125 4.03515625 13.6640625 C4.02355469 14.43492187 4.01195312 15.20578125 4 16 C3.67 16 3.34 16 3 16 C2.92652344 15.07767578 2.92652344 15.07767578 2.8515625 14.13671875 C2.77679687 13.32847656 2.70203125 12.52023437 2.625 11.6875 C2.55539062 10.88699219 2.48578125 10.08648437 2.4140625 9.26171875 C2.10435574 6.72775559 2.10435574 6.72775559 0 4 C0 2.68 0 1.36 0 0 Z " fill="#801211" transform="translate(609,295)"/>
<path d="M0 0 C0.33 0.99 0.66 1.98 1 3 C-2.26760563 8.63380282 -2.26760563 8.63380282 -5 10 C-5 8.68 -5 7.36 -5 6 C-4.01 6 -3.02 6 -2 6 C-1.855625 5.195625 -1.71125 4.39125 -1.5625 3.5625 C-1 1 -1 1 0 0 Z " fill="#4F0E0E" transform="translate(569,326)"/>
<path d="M0 0 C3 3 3 3 3.29296875 5.04296875 C3.1953125 7.02864583 3.09765625 9.01432292 3 11 C2.34 11 1.68 11 1 11 C0.67 7.37 0.34 3.74 0 0 Z " fill="#410909" transform="translate(124,295)"/>
<path d="M0 0 C0.99 0.33 1.98 0.66 3 1 C3 2.65 3 4.3 3 6 C5.97 6 8.94 6 12 6 C12 6.33 12 6.66 12 7 C8.7 7 5.4 7 2 7 C1.34 4.69 0.68 2.38 0 0 Z " fill="#741617" transform="translate(27,301)"/>
<path d="M0 0 C0.33 0.99 0.66 1.98 1 3 C1.66 3.33 2.32 3.66 3 4 C1.35 6.31 -0.3 8.62 -2 11 C-3 9 -3 9 -2.44140625 6.8359375 C-2.15136719 6.02382813 -1.86132812 5.21171875 -1.5625 4.375 C-1.27503906 3.55773437 -0.98757812 2.74046875 -0.69140625 1.8984375 C-0.46324219 1.27195312 -0.23507813 0.64546875 0 0 Z " fill="#571111" transform="translate(57,294)"/>
<path d="M0 0 C0.33 0 0.66 0 1 0 C1.08096803 1.45742463 1.13917774 2.91612807 1.1875 4.375 C1.22230469 5.18710937 1.25710937 5.99921875 1.29296875 6.8359375 C1.19628906 7.55007813 1.09960938 8.26421875 1 9 C0.01 9.66 -0.98 10.32 -2 11 C-1.125 3.375 -1.125 3.375 0 0 Z " fill="#5C1010" transform="translate(214,309)"/>
<path d="M0 0 C0.33 1.32 0.66 2.64 1 4 C-0.9375 6.25 -0.9375 6.25 -3 8 C-3.66 7.67 -4.32 7.34 -5 7 C-3.35 4.69 -1.7 2.38 0 0 Z " fill="#570D0E" transform="translate(438,306)"/>
<path d="M0 0 C2.45823172 3.68734758 3.01242616 6.69699971 4 11 C3.01 10.67 2.02 10.34 1 10 C-0.1577506 6.52674819 -0.06866652 3.63932552 0 0 Z " fill="#5C1311" transform="translate(405,301)"/>
<path d="M0 0 C1.70840281 1.63412443 2.93453047 2.86906094 4 5 C4.039992 6.99960012 4.04346799 9.00047242 4 11 C3.67 10.01 3.34 9.02 3 8 C2.34 8 1.68 8 1 8 C0.67 5.36 0.34 2.72 0 0 Z " fill="#641718" transform="translate(566,296)"/>
<path d="M0 0 C2.31 0 4.62 0 7 0 C7.625 1.8125 7.625 1.8125 8 4 C7.01 5.485 7.01 5.485 6 7 C5.566875 6.21625 5.13375 5.4325 4.6875 4.625 C3.10779753 1.78301625 3.10779753 1.78301625 0 0 Z " fill="#5C1616" transform="translate(553,299)"/>
<path d="M0 0 C0.66 0 1.32 0 2 0 C2.33 1.98 2.66 3.96 3 6 C2.34 6 1.68 6 1 6 C1 6.66 1 7.32 1 8 C0.34 7.67 -0.32 7.34 -1 7 C-0.67 4.69 -0.34 2.38 0 0 Z " fill="#4A1211" transform="translate(602,302)"/>
</svg>
