<?xml version="1.0" encoding="UTF-8"?>
<svg version="1.1" xmlns="http://www.w3.org/2000/svg" width="1280" height="134">
<path d="M0 0 C1.24330078 -0.05607422 1.24330078 -0.05607422 2.51171875 -0.11328125 C3.30964844 -0.12488281 4.10757813 -0.13648437 4.9296875 -0.1484375 C6.02772705 -0.1781665 6.02772705 -0.1781665 7.14794922 -0.20849609 C9.125 0.375 9.125 0.375 10.7956543 2.55688477 C12.13277292 5.39147803 12.92120006 7.93056263 13.58984375 10.98828125 C13.95118408 12.60307373 13.95118408 12.60307373 14.31982422 14.25048828 C14.56490723 15.38470215 14.80999023 16.51891602 15.0625 17.6875 C15.58349777 20.02499344 16.10563261 22.36223374 16.62890625 24.69921875 C16.88172363 25.83665527 17.13454102 26.9740918 17.39501953 28.14599609 C18.36734511 32.44699212 19.41562729 36.7260603 20.5 41 C20.81710937 42.25039063 21.13421875 43.50078125 21.4609375 44.7890625 C21.68007813 45.64242187 21.89921875 46.49578125 22.125 47.375 C22.455 47.375 22.785 47.375 23.125 47.375 C23.30675781 46.37082031 23.48851562 45.36664063 23.67578125 44.33203125 C25.06983333 36.71533543 26.5695192 29.15333398 28.375 21.62109375 C29.46669665 16.8960942 30.37291161 12.13446354 31.28125 7.37109375 C32.67210644 2.43226557 32.67210644 2.43226557 35.125 0.375 C38.10659657 -0.00366276 40.6551562 -0.13934905 43.625 -0.0625 C44.39714844 -0.06958984 45.16929687 -0.07667969 45.96484375 -0.08398438 C51.57361608 -0.02080063 51.57361608 -0.02080063 53.77758789 1.5612793 C55.53130967 3.92192418 55.97231353 5.95468045 56.58984375 8.828125 C56.8307373 9.91577148 57.07163086 11.00341797 57.31982422 12.12402344 C57.68744873 13.85700684 57.68744873 13.85700684 58.0625 15.625 C58.58247527 17.99005929 59.10460127 20.35464678 59.62890625 22.71875 C59.88172363 23.8634375 60.13454102 25.008125 60.39501953 26.1875 C61.5702266 31.31910651 62.98819404 36.36904784 64.4609375 41.421875 C65.15279567 44.498609 65.24732974 47.23206677 65.125 50.375 C65.785 50.375 66.445 50.375 67.125 50.375 C67.104375 49.075625 67.08375 47.77625 67.0625 46.4375 C67.04100546 45.08334367 67.05351801 43.72743917 67.125 42.375 C67.455 42.045 67.785 41.715 68.125 41.375 C68.45058177 39.35935288 68.73502447 37.33700606 69 35.3125 C70.0604793 28.05410832 70.0604793 28.05410832 71.5625 24.5625 C73.54111965 19.91574172 74.22167882 14.96281013 75.03491211 10.00854492 C75.63377299 6.4846588 76.27319702 3.45868909 78.125 0.375 C80.91673055 0.34809896 83.70820348 0.32820947 86.5 0.3125 C87.2940625 0.30412109 88.088125 0.29574219 88.90625 0.28710938 C94.8984375 0.26171875 94.8984375 0.26171875 97.125 1.375 C96.19483053 8.35968631 94.72965532 15.20056915 93.22363281 22.08056641 C92.75302028 24.23616585 92.29039045 26.39337854 91.828125 28.55078125 C90.44328184 34.93929053 88.98397874 41.20288205 86.78613281 47.37060547 C85.58742309 51.00480297 84.91659297 54.74881277 84.1875 58.5 C82.48936761 66.89641314 80.44997777 75.13012085 78.125 83.375 C77.95129883 84.01501953 77.77759766 84.65503906 77.59863281 85.31445312 C76.23686404 90.26313596 76.23686404 90.26313596 75.125 91.375 C72.13481839 91.50167764 69.17805892 91.56020838 66.1875 91.5625 C65.35025391 91.57474609 64.51300781 91.58699219 63.65039062 91.59960938 C62.84923828 91.60154297 62.04808594 91.60347656 61.22265625 91.60546875 C60.48539307 91.60957764 59.74812988 91.61368652 58.98852539 91.61791992 C57.125 91.375 57.125 91.375 55.125 89.375 C54.5625 87.23828125 54.5625 87.23828125 54.125 84.6875 C53.60839137 81.72161297 52.99083571 78.90921189 52.15625 76.01171875 C50.76135111 71.09258666 49.86045439 66.11369486 48.90625 61.09375 C47.49032972 54.35396945 45.33935664 47.88520851 43.125 41.375 C40.3920408 53.13684663 37.73437895 64.90045559 35.46972656 76.76269531 C34.57585959 81.38327015 33.63229041 85.91132532 32.125 90.375 C28.96544583 91.95477708 25.59036183 91.55947084 22.125 91.5625 C21.38765625 91.57474609 20.6503125 91.58699219 19.890625 91.59960938 C17.96729942 91.60487395 16.04445737 91.49703447 14.125 91.375 C11.72854313 88.97854313 11.55447109 87.65241832 10.8125 84.375 C9.90225542 80.49473056 8.93447612 76.65025983 7.8203125 72.82421875 C7.59255127 72.03724609 7.36479004 71.25027344 7.13012695 70.43945312 C6.67726706 68.8853312 6.21773691 67.3331334 5.75073242 65.78320312 C4.41212487 61.14447423 3.88900195 57.2033926 4.125 52.375 C3.465 52.375 2.805 52.375 2.125 52.375 C1.87105469 51.1684375 1.61710938 49.961875 1.35546875 48.71875 C1.00813085 47.10409815 0.6604566 45.48951863 0.3125 43.875 C0.14685547 43.08351562 -0.01878906 42.29203125 -0.18945312 41.4765625 C-1.19347628 36.85426721 -2.48807469 32.55996261 -4.22143555 28.16162109 C-5.09041344 25.78613352 -5.50990482 23.43612012 -5.875 20.9375 C-6.46992393 17.30241394 -7.26440206 13.97006712 -8.5 10.5 C-9.6202201 7.34301609 -10.29900749 4.76705993 -9.875 1.375 C-7.69792824 -0.80207176 -3.00469122 0.05092697 0 0 Z " fill="#010101" transform="translate(877.875,18.625)"/>
<path d="M0 0 C0.95149429 -0.00807175 1.90298859 -0.01614349 2.88331604 -0.02445984 C4.90681118 -0.03832697 6.93032998 -0.04903729 8.95385742 -0.05688477 C12.02244006 -0.0739739 15.08991035 -0.11782066 18.15820312 -0.16210938 C20.12629417 -0.17224699 22.09439439 -0.18075974 24.0625 -0.1875 C24.97019638 -0.20500809 25.87789276 -0.22251617 26.81309509 -0.24055481 C34.8211265 -0.21383884 41.21884203 2.05069288 47.94140625 6.36328125 C54.69472513 13.58776191 56.31275179 20.46361436 56.15454102 30.11132812 C55.80529053 37.45462764 54.05026125 41.43460704 49.25390625 46.98828125 C46.51456257 49.33629012 43.64328625 51.26191089 40.62890625 53.23828125 C42.35510779 57.03130452 44.08541843 60.82244014 45.81640625 64.61328125 C46.29916016 65.67417969 46.78191406 66.73507813 47.27929688 67.828125 C49.96242969 73.6986035 52.72484231 79.49333811 55.73950195 85.20166016 C56.62890625 87.23828125 56.62890625 87.23828125 56.62890625 90.23828125 C53.35868666 91.87339104 49.78156874 91.46456424 46.19140625 91.48828125 C45.41474609 91.50890625 44.63808594 91.52953125 43.83789062 91.55078125 C38.11266881 91.59023153 38.11266881 91.59023153 35.88256836 89.96777344 C34.62890625 88.23828125 34.62890625 88.23828125 34.62890625 84.23828125 C33.96890625 84.23828125 33.30890625 84.23828125 32.62890625 84.23828125 C31.2833568 81.32709912 29.95466096 78.40852472 28.62890625 75.48828125 C28.0565625 74.25078125 28.0565625 74.25078125 27.47265625 72.98828125 C27.11171875 72.1890625 26.75078125 71.38984375 26.37890625 70.56640625 C26.04375 69.83325195 25.70859375 69.10009766 25.36328125 68.34472656 C24.62890625 66.23828125 24.62890625 66.23828125 24.62890625 62.23828125 C23.96890625 62.23828125 23.30890625 62.23828125 22.62890625 62.23828125 C21.63890625 59.92828125 20.64890625 57.61828125 19.62890625 55.23828125 C16.32890625 54.90828125 13.02890625 54.57828125 9.62890625 54.23828125 C9.63937988 55.28806152 9.64985352 56.3378418 9.66064453 57.41943359 C9.69679078 61.30693158 9.71978703 65.19441466 9.73876953 69.08203125 C9.74883942 70.76597591 9.76249613 72.44990304 9.77978516 74.13378906 C9.80399051 76.55147626 9.81537921 78.96893268 9.82421875 81.38671875 C9.83454132 82.14197845 9.84486389 82.89723816 9.85549927 83.67538452 C9.85589943 85.53122105 9.75113341 87.38647405 9.62890625 89.23828125 C7.62890625 91.23828125 7.62890625 91.23828125 3.75 91.46875 C2.18874149 91.46475701 0.62748211 91.44999386 -0.93359375 91.42578125 C-1.72701172 91.42513672 -2.52042969 91.42449219 -3.33789062 91.42382812 C-9.23083853 91.37853647 -9.23083853 91.37853647 -10.37109375 90.23828125 C-10.47159589 87.47426717 -10.5072545 84.73520899 -10.50048828 81.97070312 C-10.5022406 81.10409561 -10.50399292 80.2374881 -10.50579834 79.34461975 C-10.510218 76.46540352 -10.50727847 73.58624816 -10.50390625 70.70703125 C-10.50457926 68.71545398 -10.50554925 66.72387679 -10.50680542 64.7322998 C-10.50828255 60.5524823 -10.50612736 56.37268612 -10.50146484 52.19287109 C-10.49576755 46.82225599 -10.49904648 41.45169085 -10.50503731 36.08107758 C-10.50864252 31.96685405 -10.50750452 27.85264246 -10.50490952 23.73841858 C-10.50424014 21.75757339 -10.50506905 19.77672713 -10.50738907 17.79588318 C-10.50991494 15.03251249 -10.50607593 12.26922391 -10.50048828 9.50585938 C-10.50251251 8.67880997 -10.50453674 7.85176056 -10.50662231 6.99964905 C-10.47493382 -1.4150597 -7.52036484 0.05999736 0 0 Z M9.62890625 18.23828125 C9.62890625 24.83828125 9.62890625 31.43828125 9.62890625 38.23828125 C14.42421875 38.33109375 14.42421875 38.33109375 19.31640625 38.42578125 C20.31502686 38.45309326 21.31364746 38.48040527 22.3425293 38.50854492 C28.99302375 38.57241295 28.99302375 38.57241295 34.62890625 35.23828125 C35.52105277 32.56184168 35.76430836 30.98443747 35.75390625 28.23828125 C35.75648437 27.55765625 35.7590625 26.87703125 35.76171875 26.17578125 C35.57067052 23.3887247 35.01144211 21.63611855 33.06640625 19.61328125 C27.51961361 16.4843213 15.41567499 15.34489688 9.62890625 18.23828125 Z " fill="#020202" transform="translate(1072.37109375,18.76171875)"/>
<path d="M0 0 C0.84288574 -0.0033284 1.68577148 -0.0066568 2.55419922 -0.01008606 C4.34651137 -0.01516282 6.13883301 -0.01749416 7.93115234 -0.01733398 C10.6482762 -0.01949998 13.36498044 -0.0375901 16.08203125 -0.05664062 C17.82551945 -0.05957866 19.56900958 -0.06156071 21.3125 -0.0625 C22.11598877 -0.06968552 22.91947754 -0.07687103 23.74731445 -0.08427429 C33.5435918 -0.04547979 41.90703688 1.98586902 49.6875 8.16796875 C56.86945224 16.04590399 58.00525346 25.17615035 57.953125 35.48046875 C57.95503845 36.33423096 57.9569519 37.18799316 57.95892334 38.06762695 C57.96027452 39.85921527 57.95665331 41.65081373 57.94824219 43.44238281 C57.93752733 46.16103424 57.94817397 48.87902501 57.9609375 51.59765625 C57.95961572 53.35026185 57.95705293 55.10286705 57.953125 56.85546875 C57.95717346 57.65573486 57.96122192 58.45600098 57.96539307 59.28051758 C57.88219984 69.45613893 55.95539882 76.79992172 48.6875 84.16796875 C40.93856445 90.64116491 31.87933844 91.48362977 22.09375 91.3984375 C20.78464661 91.39775017 20.78464661 91.39775017 19.44909668 91.39704895 C17.62392804 91.39405174 15.79876136 91.38624248 13.97363281 91.3737793 C11.16722688 91.35533551 8.36114818 91.35327124 5.5546875 91.35351562 C3.77603879 91.34860648 1.99739232 91.34278082 0.21875 91.3359375 C-1.04358459 91.33426826 -1.04358459 91.33426826 -2.3314209 91.33256531 C-8.19639039 91.28407836 -8.19639039 91.28407836 -9.3125 90.16796875 C-9.41300214 87.40395467 -9.44866075 84.66489649 -9.44189453 81.90039062 C-9.44364685 81.03378311 -9.44539917 80.1671756 -9.44720459 79.27430725 C-9.45162425 76.39509102 -9.44868472 73.51593566 -9.4453125 70.63671875 C-9.44598551 68.64514148 -9.4469555 66.65356429 -9.44821167 64.6619873 C-9.4496888 60.4821698 -9.44753361 56.30237362 -9.44287109 52.12255859 C-9.4371738 46.75194349 -9.44045273 41.38137835 -9.44644356 36.01076508 C-9.45004877 31.89654155 -9.44891077 27.78232996 -9.44631577 23.66810608 C-9.44564639 21.68726089 -9.4464753 19.70641463 -9.44879532 17.72557068 C-9.45132119 14.96219999 -9.44748218 12.19891141 -9.44189453 9.43554688 C-9.44391876 8.60849747 -9.44594299 7.78144806 -9.44802856 6.92933655 C-9.41794445 -1.05933761 -7.22735792 0.00981206 0 0 Z M10.6875 17.16796875 C10.6875 35.97796875 10.6875 54.78796875 10.6875 74.16796875 C26.27132361 75.43507394 26.27132361 75.43507394 33.6875 71.16796875 C37.4583542 66.87263839 37.12448452 62.31603138 37.0859375 56.88671875 C37.08880768 55.99561401 37.09167786 55.10450928 37.09463501 54.18640137 C37.09667162 52.30704104 37.09116998 50.42765932 37.07861328 48.54833984 C37.06255375 45.67757609 37.07847549 42.80822015 37.09765625 39.9375 C37.09567375 38.10806982 37.09182992 36.27864051 37.0859375 34.44921875 C37.09201019 33.5938855 37.09808289 32.73855225 37.1043396 31.8572998 C37.04900886 27.15106351 36.77516082 23.96565553 33.6875 20.16796875 C26.59841753 15.44191377 19.32658295 17.16796875 10.6875 17.16796875 Z " fill="#000000" transform="translate(1221.3125,18.83203125)"/>
<path d="M0 0 C1.29406517 -0.00855011 1.29406517 -0.00855011 2.61427307 -0.01727295 C4.44946053 -0.0267451 6.28466517 -0.03326567 8.11987305 -0.03710938 C10.89858956 -0.04672681 13.67653825 -0.07769098 16.45507812 -0.109375 C30.35129475 -0.19343799 41.08471255 1.04681035 52.00390625 10.328125 C53.50390625 12.203125 53.50390625 12.203125 53.50390625 15.203125 C54.16390625 15.203125 54.82390625 15.203125 55.50390625 15.203125 C57.8943051 20.85126192 57.82659878 26.1652732 57.83984375 32.19140625 C57.84982895 33.77806343 57.84982895 33.77806343 57.86001587 35.39677429 C57.87011867 37.62997709 57.87483363 39.86320992 57.87451172 42.09643555 C57.87887825 45.49383912 57.91520627 48.88993592 57.953125 52.28710938 C57.95899514 54.46353726 57.96296321 56.63997127 57.96484375 58.81640625 C57.97921478 59.82294754 57.99358582 60.82948883 58.00839233 61.86653137 C57.95911198 69.56277597 56.41793447 75.7804664 51.35546875 81.7265625 C42.14629301 89.38471917 35.02818413 91.36442648 23.23828125 91.3359375 C22.36367249 91.33689423 21.48906372 91.33785095 20.58795166 91.33883667 C18.74906339 91.33951441 16.91017268 91.33768857 15.07128906 91.33349609 C12.24929495 91.32811621 9.42745812 91.33346804 6.60546875 91.33984375 C4.8164059 91.3391834 3.02734314 91.33790314 1.23828125 91.3359375 C0.39247498 91.33796173 -0.4533313 91.33998596 -1.32476807 91.34207153 C-7.26614092 91.31810142 -7.26614092 91.31810142 -9.49609375 90.203125 C-9.51921603 78.61624098 -9.53700825 67.02936241 -9.54790592 55.44246006 C-9.553135 50.06278738 -9.5602331 44.68313042 -9.5715332 39.3034668 C-9.5823612 34.11637657 -9.5883704 28.92930151 -9.59097099 23.74220085 C-9.5928254 21.7585622 -9.59644631 19.77492442 -9.60182381 17.79129219 C-9.60903307 15.02303364 -9.61008474 12.25483862 -9.60961914 9.48657227 C-9.61321442 8.65795181 -9.61680969 7.82933136 -9.62051392 6.9756012 C-9.60572537 -1.09537054 -7.28926108 0.03694866 0 0 Z M10.50390625 17.203125 C10.50390625 36.013125 10.50390625 54.823125 10.50390625 74.203125 C26.08772986 75.47023019 26.08772986 75.47023019 33.50390625 71.203125 C37.78771406 66.39054025 38.09703441 62.43574278 38.03515625 56.296875 C38.04089661 55.03248596 38.04089661 55.03248596 38.04675293 53.74255371 C38.04946441 51.96751708 38.04215682 50.19243998 38.02539062 48.41748047 C38.0039686 45.71100206 38.02521674 43.00717777 38.05078125 40.30078125 C38.04813784 38.57030668 38.04301257 36.83983375 38.03515625 35.109375 C38.04325317 34.30608765 38.0513501 33.50280029 38.05969238 32.6751709 C37.97241349 27.40748515 37.0016344 24.37312728 33.50390625 20.203125 C26.64318471 15.62931064 18.52198566 17.203125 10.50390625 17.203125 Z " fill="#020202" transform="translate(549.49609375,18.796875)"/>
<path d="M0 0 C0.95149429 -0.00807175 1.90298859 -0.01614349 2.88331604 -0.02445984 C4.90681118 -0.03832697 6.93032998 -0.04903729 8.95385742 -0.05688477 C12.02244006 -0.0739739 15.08991035 -0.11782066 18.15820312 -0.16210938 C20.12629417 -0.17224699 22.09439439 -0.18075974 24.0625 -0.1875 C24.97019638 -0.20500809 25.87789276 -0.22251617 26.81309509 -0.24055481 C34.8211265 -0.21383884 41.21884203 2.05069288 47.94140625 6.36328125 C53.89119794 12.72817468 56.36832173 19.61399874 56.76953125 28.2734375 C56.54865169 32.9303149 55.39076586 36.94474048 53.62890625 41.23828125 C53.25765625 42.14578125 52.88640625 43.05328125 52.50390625 43.98828125 C49.5100663 47.58088919 45.59419316 49.81920685 41.62890625 52.23828125 C42.29654418 56.69776027 43.92740285 60.58986942 45.75390625 64.67578125 C46.05941406 65.37155273 46.36492187 66.06732422 46.6796875 66.78417969 C48.25448734 70.32747934 49.89750287 73.81588427 51.68359375 77.2578125 C52.00956543 77.88695557 52.33553711 78.51609863 52.67138672 79.16430664 C53.58195936 80.89885233 54.51119708 82.62356166 55.44140625 84.34765625 C56.72529574 87.47291356 56.59626521 88.1733327 55.62890625 91.23828125 C52.69085629 91.31914501 49.7550255 91.37870955 46.81640625 91.42578125 C45.98302734 91.45091797 45.14964844 91.47605469 44.29101562 91.50195312 C43.48857422 91.51162109 42.68613281 91.52128906 41.859375 91.53125 C41.12098389 91.54696045 40.38259277 91.5626709 39.62182617 91.57885742 C37.00479555 91.13162507 36.24237741 90.32324935 34.62890625 88.23828125 C33.54150391 86.12866211 33.54150391 86.12866211 32.54296875 83.703125 C32.16914063 82.81044922 31.7953125 81.91777344 31.41015625 80.99804688 C31.02859375 80.06669922 30.64703125 79.13535156 30.25390625 78.17578125 C27.59586087 71.74606113 24.82727082 65.48159863 21.56005859 59.33422852 C20.62890625 57.23828125 20.62890625 57.23828125 20.62890625 54.23828125 C16.66890625 54.23828125 12.70890625 54.23828125 8.62890625 54.23828125 C8.63676147 55.86624634 8.63676147 55.86624634 8.64477539 57.52709961 C8.66282461 61.53946107 8.67433796 65.55181892 8.68383789 69.56420898 C8.68887829 71.30347293 8.69571055 73.04273261 8.7043457 74.78198242 C8.71642417 77.27654062 8.72213733 79.77104298 8.7265625 82.265625 C8.73172379 83.04791977 8.73688507 83.83021454 8.74220276 84.63621521 C8.74239851 86.50395239 8.69090319 88.37157329 8.62890625 90.23828125 C6.74338095 92.12380655 4.05121794 91.37074814 1.546875 91.375 C0.34998047 91.36919922 0.34998047 91.36919922 -0.87109375 91.36328125 C-1.66902344 91.36714844 -2.46695313 91.37101562 -3.2890625 91.375 C-9.24448608 91.36488892 -9.24448608 91.36488892 -10.37109375 90.23828125 C-10.47159589 87.47426717 -10.5072545 84.73520899 -10.50048828 81.97070312 C-10.5022406 81.10409561 -10.50399292 80.2374881 -10.50579834 79.34461975 C-10.510218 76.46540352 -10.50727847 73.58624816 -10.50390625 70.70703125 C-10.50457926 68.71545398 -10.50554925 66.72387679 -10.50680542 64.7322998 C-10.50828255 60.5524823 -10.50612736 56.37268612 -10.50146484 52.19287109 C-10.49576755 46.82225599 -10.49904648 41.45169085 -10.50503731 36.08107758 C-10.50864252 31.96685405 -10.50750452 27.85264246 -10.50490952 23.73841858 C-10.50424014 21.75757339 -10.50506905 19.77672713 -10.50738907 17.79588318 C-10.50991494 15.03251249 -10.50607593 12.26922391 -10.50048828 9.50585938 C-10.50251251 8.67880997 -10.50453674 7.85176056 -10.50662231 6.99964905 C-10.47493382 -1.4150597 -7.52036484 0.05999736 0 0 Z M8.62890625 18.23828125 C8.62890625 24.83828125 8.62890625 31.43828125 8.62890625 38.23828125 C14.20079047 41.02422336 23.64086802 39.49021824 29.62890625 38.23828125 C33.37560811 36.4945996 33.37560811 36.4945996 35.62890625 33.23828125 C36.25651874 28.17255184 36.47112648 24.45206923 33.50390625 20.17578125 C28.53565105 16.82760927 23.23495499 17.10082157 17.37890625 17.11328125 C16.156875 17.11070313 14.93484375 17.108125 13.67578125 17.10546875 C10.71121442 17.02719447 10.71121442 17.02719447 8.62890625 18.23828125 Z " fill="#010101" transform="translate(179.37109375,18.76171875)"/>
<path d="M0 0 C7.60884325 5.28509968 11.48176366 11.74285368 13.72265625 20.64453125 C14.12774724 23.86662802 14.1906231 27.04395327 14.19140625 30.2890625 C14.20282654 31.62562141 14.20282654 31.62562141 14.21447754 32.98918152 C14.22521313 34.86230693 14.2281585 36.73549187 14.22363281 38.60864258 C14.22266209 41.44000504 14.26432524 44.2686379 14.30859375 47.09960938 C14.38506098 58.7915066 13.59401892 68.34642431 6.41015625 78.08203125 C-1.29546181 85.42924847 -10.04504666 88.70184139 -20.65234375 89.08203125 C-31.35940346 88.77971427 -40.75491296 85.39304321 -48.27734375 77.64453125 C-53.50815855 70.26913013 -55.1748411 63.91824905 -55.0390625 54.984375 C-55.04411552 53.37859337 -55.04411552 53.37859337 -55.04927063 51.7403717 C-55.04897372 49.49410155 -55.03390935 47.24778844 -55.00463867 45.00170898 C-54.96489525 41.58645689 -54.98399427 38.17508402 -55.00976562 34.75976562 C-55.00220658 32.5637872 -54.99125319 30.36781729 -54.9765625 28.171875 C-54.9835466 27.16430649 -54.9905307 26.15673798 -54.99772644 25.11863708 C-54.84096085 17.15360671 -52.78601075 10.52405366 -47.36308289 4.52793884 C-34.58478725 -7.71206391 -14.94843057 -8.89726485 0 0 Z M-31.27734375 15.64453125 C-35.11918258 20.72567293 -35.43618457 25.4238562 -35.4453125 31.6015625 C-35.4486409 32.38214523 -35.4519693 33.16272797 -35.45539856 33.96696472 C-35.4604595 35.61867687 -35.46280714 37.27039924 -35.46264648 38.92211914 C-35.46482655 41.43718548 -35.48297301 43.9518085 -35.50195312 46.46679688 C-35.50488859 48.07421726 -35.50687236 49.68163971 -35.5078125 51.2890625 C-35.51499802 52.03613968 -35.52218353 52.78321686 -35.52958679 53.55293274 C-35.51048098 57.96581157 -34.90867522 61.5433712 -33.27734375 65.64453125 C-32.61734375 65.64453125 -31.95734375 65.64453125 -31.27734375 65.64453125 C-31.27734375 66.30453125 -31.27734375 66.96453125 -31.27734375 67.64453125 C-27.40898031 70.9971129 -23.6166792 71.16322598 -18.7109375 70.98828125 C-14.99359154 70.46319867 -13.01203906 69.18389118 -10.27734375 66.64453125 C-6.67442118 61.35293203 -5.68365397 57.66846771 -5.78125 51.33203125 C-5.77979477 50.55947998 -5.77833954 49.78692871 -5.77684021 48.9909668 C-5.77849068 47.36731166 -5.78995592 45.74363948 -5.81079102 44.12011719 C-5.83976773 41.65100878 -5.83137847 39.18404967 -5.81835938 36.71484375 C-5.82459767 35.12889594 -5.83298932 33.54295483 -5.84375 31.95703125 C-5.84081436 31.22766357 -5.83787872 30.4982959 -5.83485413 29.74682617 C-5.92650259 24.70619699 -7.04195713 21.16791926 -9.27734375 16.64453125 C-9.93734375 16.64453125 -10.59734375 16.64453125 -11.27734375 16.64453125 C-11.27734375 15.98453125 -11.27734375 15.32453125 -11.27734375 14.64453125 C-12.52397706 14.13619534 -13.77483762 13.6382198 -15.02734375 13.14453125 C-16.07148437 12.726875 -16.07148437 12.726875 -17.13671875 12.30078125 C-22.66239201 10.60677923 -26.72921241 12.64469994 -31.27734375 15.64453125 Z " fill="#000000" transform="translate(1036.27734375,23.35546875)"/>
<path d="M0 0 C1.01900391 0.00322266 2.03800781 0.00644531 3.08789062 0.00976562 C4.10302734 -0.00634766 5.11816406 -0.02246094 6.1640625 -0.0390625 C7.62489258 -0.0400293 7.62489258 -0.0400293 9.11523438 -0.04101562 C10.45509399 -0.04548706 10.45509399 -0.04548706 11.82202148 -0.05004883 C14.6338513 0.3995727 15.46081877 1.067435 17.15039062 3.32226562 C18.07103173 5.78692865 18.86264834 8.1769159 19.58789062 10.69726562 C19.91200928 11.77790283 19.91200928 11.77790283 20.24267578 12.88037109 C20.68200379 14.34620279 21.11758386 15.81316326 21.54931641 17.28125 C22.35293507 20.01002824 23.18756159 22.72881605 24.02539062 25.44726562 C24.34378906 26.48367187 24.6621875 27.52007812 24.99023438 28.58789062 C28.47511622 39.80522075 32.01100628 51.007863 35.77539062 62.13476562 C37.58404137 67.55468903 39.34648666 72.9858623 41.02539062 78.44726562 C41.25307129 79.15858643 41.48075195 79.86990723 41.71533203 80.6027832 C43.01131942 84.9030114 43.0686217 86.73111023 42.15039062 91.32226562 C35.88039063 91.32226562 29.61039063 91.32226562 23.15039062 91.32226562 C20.15039062 85.32226562 20.15039062 85.32226562 19.15039062 77.32226562 C8.92039062 77.32226562 -1.30960938 77.32226562 -11.84960938 77.32226562 C-12.83960938 81.28226562 -13.82960938 85.24226563 -14.84960938 89.32226562 C-18.71877228 91.90170756 -21.93525728 91.58035499 -26.41210938 91.50976562 C-27.19263672 91.50912109 -27.97316406 91.50847656 -28.77734375 91.5078125 C-34.56845523 91.4628427 -34.56845523 91.4628427 -36.84960938 90.32226562 C-35.89676413 85.10189009 -34.93165884 80.22120554 -32.84960938 75.32226562 C-32.38031751 73.81731345 -31.92655843 72.30748877 -31.48242188 70.79492188 C-29.93854059 65.59561265 -28.31378847 60.42569636 -26.66210938 55.25976562 C-26.36385254 54.32438965 -26.0655957 53.38901367 -25.75830078 52.42529297 C-24.10651167 47.24775016 -22.44943404 42.07190705 -20.79101562 36.89648438 C-20.44917236 35.82930176 -20.1073291 34.76211914 -19.75512695 33.66259766 C-19.07220286 31.53179683 -18.38845627 29.40125943 -17.70385742 27.27099609 C-16.20780414 22.6077154 -14.72401719 17.94253009 -13.30273438 13.25585938 C-13.07473145 12.50739746 -12.84672852 11.75893555 -12.61181641 10.98779297 C-12.02156298 9.03973052 -11.43915148 7.08929667 -10.85742188 5.13867188 C-8.75043701 -0.74945249 -5.54815376 0.0404438 0 0 Z M3.15039062 26.32226562 C2.69664062 27.53914063 2.24289062 28.75601563 1.77539062 30.00976562 C0.94875994 32.22663881 0.10854134 34.42008203 -0.82226562 36.59570312 C-2.13650321 40.08367967 -3.02937246 43.64490759 -3.91210938 47.25976562 C-4.08548828 47.95005859 -4.25886719 48.64035156 -4.4375 49.3515625 C-5.42667269 53.34994254 -6.16841157 57.23507882 -6.84960938 61.32226562 C-0.57960938 61.65226562 5.69039062 61.98226562 12.15039062 62.32226562 C13.18956027 57.56854823 13.18956027 57.56854823 12.29492188 53.35351562 C12.08633545 52.62310059 11.87774902 51.89268555 11.6628418 51.14013672 C11.31636597 49.99279053 11.31636597 49.99279053 10.96289062 48.82226562 C10.73384033 48.03287598 10.50479004 47.24348633 10.26879883 46.43017578 C9.57587561 44.05670362 8.86630345 41.6888947 8.15039062 39.32226562 C7.94124023 38.62713867 7.73208984 37.93201172 7.51660156 37.21582031 C6.41827672 33.57705382 5.29649292 29.94625389 4.15039062 26.32226562 C3.82039062 26.32226562 3.49039063 26.32226562 3.15039062 26.32226562 Z " fill="#010101" transform="translate(724.849609375,18.677734375)"/>
<path d="M0 0 C2.19897461 -0.38818359 2.19897461 -0.38818359 4.90234375 -0.3984375 C5.87494141 -0.40230469 6.84753906 -0.40617187 7.84960938 -0.41015625 C9.37811523 -0.39275391 9.37811523 -0.39275391 10.9375 -0.375 C11.95263672 -0.38660156 12.96777344 -0.39820312 14.01367188 -0.41015625 C14.98755859 -0.40628906 15.96144531 -0.40242188 16.96484375 -0.3984375 C18.30470337 -0.39336182 18.30470337 -0.39336182 19.67163086 -0.38818359 C22.45069792 0.07513995 23.30638451 0.79196547 25 3 C25.87890625 5.26953125 25.87890625 5.26953125 26.5625 7.8125 C27.35998941 10.70025113 28.17528517 13.48895337 29.1875 16.3125 C30.00821578 19.02717529 30.16573548 21.1824969 30 24 C30.66 24 31.32 24 32 24 C32.25394531 24.99 32.50789063 25.98 32.76953125 27 C35.11250054 36.04636361 35.11250054 36.04636361 38.21875 44.8515625 C39.73645045 49.02523874 40.83105597 53.33595685 42.03125 57.609375 C43.48942784 62.71299742 45.1175043 67.72740768 47.0390625 72.67578125 C49.29694024 78.54788776 50.695015 83.69697665 51 90 C49.0604886 91.9395114 46.1879288 91.13256629 43.61132812 91.13671875 C42.77021484 91.13285156 41.92910156 91.12898438 41.0625 91.125 C39.80663086 91.13080078 39.80663086 91.13080078 38.52539062 91.13671875 C37.72423828 91.13542969 36.92308594 91.13414063 36.09765625 91.1328125 C35.36039307 91.13168457 34.62312988 91.13055664 33.86352539 91.12939453 C32 91 32 91 30 90 C29.1484375 87.8203125 29.1484375 87.8203125 28.375 85.125 C28.11460937 84.24070312 27.85421875 83.35640625 27.5859375 82.4453125 C27 80 27 80 27 77 C11.655 77.495 11.655 77.495 -4 78 C-4.99 81.3 -5.98 84.6 -7 88 C-10 91 -10 91 -11.99291992 91.34057617 C-12.73131104 91.32486572 -13.46970215 91.30915527 -14.23046875 91.29296875 C-15.03291016 91.28330078 -15.83535156 91.27363281 -16.66210938 91.26367188 C-17.49548828 91.23853516 -18.32886719 91.21339844 -19.1875 91.1875 C-20.4549707 91.16719727 -20.4549707 91.16719727 -21.74804688 91.14648438 C-23.83230384 91.11115799 -25.91623277 91.05735139 -28 91 C-29.16728206 87.49815383 -28.78643802 86.55176127 -27.69921875 83.109375 C-27.22995972 81.60274292 -27.22995972 81.60274292 -26.7512207 80.06567383 C-26.40019287 78.97150146 -26.04916504 77.8773291 -25.6875 76.75 C-25.32938232 75.61135498 -24.97126465 74.47270996 -24.60229492 73.29956055 C-23.61967581 70.18649708 -22.6284901 67.07635542 -21.63122559 63.96795654 C-20.99126419 61.97276458 -20.35333999 59.97693042 -19.71582031 57.98095703 C-15.60417812 45.11652786 -11.44617355 32.26866273 -7.13818359 19.46850586 C-5.63071847 14.87464978 -4.25097491 10.25014394 -2.89453125 5.609375 C-2 3 -2 3 0 0 Z M10 26 C9.7525 27.216875 9.505 28.43375 9.25 29.6875 C8.12167015 34.78499019 6.58159836 39.72049549 5.01953125 44.69921875 C2.21545213 52.70688196 2.21545213 52.70688196 1 61 C7.93 61.33 14.86 61.66 22 62 C20.80045798 56.60206091 19.62942653 51.47244018 18.0546875 46.21484375 C17.70019531 45.02568359 17.34570312 43.83652344 16.98046875 42.61132812 C16.43326172 40.7927832 16.43326172 40.7927832 15.875 38.9375 C15.50246094 37.69033203 15.12992188 36.44316406 14.74609375 35.15820312 C13.83352827 32.10461862 12.9180976 29.05192485 12 26 C11.34 26 10.68 26 10 26 Z " fill="#010101" transform="translate(108,19)"/>
<path d="M0 0 C1.21473495 -0.00960754 2.42946991 -0.01921509 3.68101501 -0.02911377 C5.01724054 -0.03396088 6.35346822 -0.03823992 7.68969727 -0.04199219 C9.05111189 -0.04774098 10.41252649 -0.05349874 11.77394104 -0.05926514 C14.63136168 -0.06978296 17.48875412 -0.0756206 20.34619141 -0.07910156 C24.01292852 -0.08459039 27.67929504 -0.10862285 31.34591579 -0.13707352 C34.15885009 -0.15566951 36.97169455 -0.16090383 39.78468513 -0.16243744 C41.13672984 -0.16547103 42.48877272 -0.17352328 43.84075737 -0.18662262 C45.7297015 -0.20361903 47.61879764 -0.19996738 49.5078125 -0.1953125 C50.58401352 -0.19895813 51.66021454 -0.20260376 52.76902771 -0.20635986 C53.61038773 -0.08508728 54.45174774 0.0361853 55.31860352 0.16113281 C57.6345064 3.63498714 57.58852186 5.12543287 57.56860352 9.22363281 C57.57633789 10.81884766 57.57633789 10.81884766 57.58422852 12.44628906 C57.31860352 15.16113281 57.31860352 15.16113281 55.31860352 17.16113281 C53.48361206 17.40164185 53.48361206 17.40164185 51.23608398 17.38818359 C49.9750032 17.387957 49.9750032 17.387957 48.68844604 17.38772583 C47.78006989 17.37740326 46.87169373 17.36708069 45.93579102 17.35644531 C44.54168503 17.35220047 44.54168503 17.35220047 43.11941528 17.34786987 C40.14401502 17.3366535 37.16891316 17.31154642 34.19360352 17.28613281 C32.17928494 17.27610489 30.16496166 17.26697871 28.15063477 17.25878906 C23.20641622 17.23840894 18.26284483 17.19926321 13.31860352 17.16113281 C13.31860352 23.43113281 13.31860352 29.70113281 13.31860352 36.16113281 C15.24446289 36.14953125 17.17032227 36.13792969 19.15454102 36.12597656 C21.66756088 36.11659962 24.18058179 36.10749932 26.69360352 36.09863281 C27.96461914 36.09025391 29.23563477 36.081875 30.54516602 36.07324219 C31.75688477 36.07001953 32.96860352 36.06679688 34.21704102 36.06347656 C35.33771973 36.05823975 36.45839844 36.05300293 37.61303711 36.04760742 C40.31860352 36.16113281 40.31860352 36.16113281 42.31860352 37.16113281 C42.31860352 42.44113281 42.31860352 47.72113281 42.31860352 53.16113281 C39.55242789 54.54422063 37.30842352 54.27323478 34.21704102 54.25878906 C32.39946289 54.25395508 32.39946289 54.25395508 30.54516602 54.24902344 C29.27415039 54.24064453 28.00313477 54.23226562 26.69360352 54.22363281 C25.41485352 54.21912109 24.13610352 54.21460938 22.81860352 54.20996094 C19.65191707 54.19814494 16.48525455 54.18020902 13.31860352 54.16113281 C13.31860352 60.76113281 13.31860352 67.36113281 13.31860352 74.16113281 C16.32727539 74.13792969 19.33594727 74.11472656 22.43579102 74.09082031 C25.34154844 74.07523423 28.24730126 74.06308355 31.15307617 74.05126953 C33.17653479 74.04119611 35.19997879 74.02753686 37.22338867 74.01025391 C40.12755941 73.98606434 43.03153812 73.97466332 45.93579102 73.96582031 C46.84416718 73.95549774 47.75254333 73.94517517 48.68844604 73.93453979 C49.52916656 73.93438873 50.36988708 73.93423767 51.23608398 73.93408203 C51.97776825 73.92964081 52.71945251 73.92519958 53.48361206 73.92062378 C55.31860352 74.16113281 55.31860352 74.16113281 57.31860352 76.16113281 C57.58422852 78.87597656 57.58422852 78.87597656 57.56860352 82.09863281 C57.57633789 83.68998047 57.57633789 83.68998047 57.58422852 85.31347656 C57.31860352 88.16113281 57.31860352 88.16113281 55.31860352 91.16113281 C52.72433472 91.52189636 52.72433472 91.52189636 49.40014648 91.50170898 C48.15901093 91.50148239 46.91787537 91.5012558 45.63912964 91.50102234 C44.2796798 91.48570129 42.9202336 91.47005329 41.56079102 91.45410156 C40.17359881 91.44850709 38.78640069 91.44423629 37.39920044 91.4412384 C33.74611071 91.42977778 30.09337818 91.40030067 26.44042969 91.36712646 C22.71367221 91.33645148 18.98685707 91.32273861 15.26000977 91.30761719 C7.94604474 91.27543168 0.63237416 91.2242212 -6.68139648 91.16113281 C-7.64510412 87.11689685 -7.80810247 83.34276741 -7.81079102 79.19042969 C-7.81254333 78.50832428 -7.81429565 77.82621887 -7.81610107 77.1234436 C-7.82048943 74.87556384 -7.8175896 72.62776334 -7.81420898 70.37988281 C-7.81488351 68.80391424 -7.81585478 67.22794576 -7.81710815 65.65197754 C-7.81858157 62.346751 -7.8164443 59.04155151 -7.81176758 55.73632812 C-7.80610798 51.53509073 -7.80932746 47.33391776 -7.81534004 43.1326828 C-7.81898743 39.87410006 -7.81778744 36.61553208 -7.81521225 33.35694885 C-7.81455252 31.81026705 -7.81533741 30.26358384 -7.8176918 28.71690369 C-7.84003539 9.89260838 -7.84003539 9.89260838 -6.68139648 1.16113281 C-4.91676965 -0.60349402 -2.39286587 0.01519287 0 0 Z " fill="#020202" transform="translate(439.681396484375,18.8388671875)"/>
<path d="M0 0 C1.21788712 -0.00315216 2.43577423 -0.00630432 3.69056702 -0.009552 C5.02475012 -0.00776236 6.3589329 -0.00571144 7.69311523 -0.00341797 C9.05549639 -0.00409128 10.41787743 -0.00506153 11.78025818 -0.00631714 C14.63590641 -0.00779233 17.49152337 -0.00564495 20.34716797 -0.00097656 C24.01495884 0.00472604 27.68267662 0.00143726 31.35046482 -0.00454903 C34.16335099 -0.00815485 36.97621969 -0.00701605 39.78910637 -0.00442123 C41.14195705 -0.0037523 42.4948093 -0.00457922 43.84765816 -0.00690079 C45.73437598 -0.0094282 47.62109934 -0.0048959 49.5078125 0 C51.12092064 0.00119339 51.12092064 0.00119339 52.76661682 0.00241089 C55.18920898 0.12939453 55.18920898 0.12939453 56.18920898 1.12939453 C56.28895931 3.64075558 56.32803081 6.11842868 56.31420898 8.62939453 C56.31807617 9.33193359 56.32194336 10.03447266 56.32592773 10.75830078 C56.31582276 16.00278075 56.31582276 16.00278075 55.18920898 17.12939453 C53.83937151 17.25124596 52.48346197 17.30706284 51.12841797 17.3347168 C50.26760117 17.35466202 49.40678436 17.37460724 48.5198822 17.39515686 C47.11676537 17.4202256 47.11676537 17.4202256 45.68530273 17.44580078 C44.73228775 17.46658188 43.77927277 17.48736298 42.79737854 17.5087738 C39.74056488 17.5743763 36.68366242 17.63320371 33.62670898 17.69189453 C31.55964236 17.73506959 29.49258484 17.77868354 27.42553711 17.82275391 C22.34685303 17.93006854 17.26807928 18.03130544 12.18920898 18.12939453 C12.18920898 24.06939453 12.18920898 30.00939453 12.18920898 36.12939453 C14.18725586 36.10619141 16.18530273 36.08298828 18.24389648 36.05908203 C20.17667138 36.04517718 22.10944751 36.03134247 24.04223633 36.01953125 C26.04832259 36.00451346 28.05432223 35.97910472 30.06030273 35.95361328 C31.31713867 35.94716797 32.57397461 35.94072266 33.86889648 35.93408203 C35.03146973 35.9236084 36.19404297 35.91313477 37.3918457 35.90234375 C40.18920898 36.12939453 40.18920898 36.12939453 42.18920898 38.12939453 C42.45483398 41.31689453 42.45483398 41.31689453 42.43920898 45.12939453 C42.44694336 47.01658203 42.44694336 47.01658203 42.45483398 48.94189453 C42.18920898 52.12939453 42.18920898 52.12939453 40.18920898 54.12939453 C37.3918457 54.35644531 37.3918457 54.35644531 33.86889648 54.32470703 C31.98364258 54.31503906 31.98364258 54.31503906 30.06030273 54.30517578 C28.08223633 54.28003906 28.08223633 54.28003906 26.06420898 54.25439453 C24.72437178 54.24436436 23.38452747 54.23523857 22.04467773 54.22705078 C18.75944523 54.20341602 15.474305 54.16754403 12.18920898 54.12939453 C12.18920898 60.72939453 12.18920898 67.32939453 12.18920898 74.12939453 C15.19788086 74.11779297 18.20655273 74.10619141 21.30639648 74.09423828 C24.21215713 74.08644523 27.11791662 74.08036988 30.02368164 74.07446289 C32.04712442 74.06942622 34.07056355 74.06259664 36.09399414 74.05395508 C38.99813741 74.04186041 41.90223267 74.03615965 44.80639648 74.03173828 C45.71477264 74.026577 46.6231488 74.02141571 47.55905151 74.01609802 C48.39977203 74.01602249 49.24049255 74.01594696 50.10668945 74.01586914 C51.21921585 74.01253822 51.21921585 74.01253822 52.35421753 74.00914001 C54.18920898 74.12939453 54.18920898 74.12939453 56.18920898 75.12939453 C56.18920898 80.07939453 56.18920898 85.02939453 56.18920898 90.12939453 C53.51820616 91.46489594 51.47689674 91.25653454 48.48608398 91.25878906 C47.29144531 91.26194122 46.09680664 91.26509338 44.8659668 91.26834106 C43.57013672 91.26631683 42.27430664 91.2642926 40.93920898 91.26220703 C39.6016437 91.26288042 38.26407854 91.26385074 36.92651367 91.2651062 C34.12213985 91.26658151 31.31779786 91.26443396 28.51342773 91.25976562 C24.91523708 91.25406842 21.31712102 91.25734832 17.71893311 91.26333809 C14.95661861 91.26694819 12.19432186 91.26580304 9.43200684 91.2632103 C7.45882112 91.2622169 5.48563473 91.26525873 3.51245117 91.26834106 C2.3178125 91.2651889 1.12317383 91.26203674 -0.10766602 91.25878906 C-1.16308594 91.25799347 -2.21850586 91.25719788 -3.3059082 91.25637817 C-5.81079102 91.12939453 -5.81079102 91.12939453 -7.81079102 90.12939453 C-7.81079102 60.75939453 -7.81079102 31.38939453 -7.81079102 1.12939453 C-5.11402335 -0.2189893 -3.01931322 0.00223206 0 0 Z " fill="#020202" transform="translate(625.810791015625,18.87060546875)"/>
<path d="M0 0 C6.9128949 4.48966508 10.32404552 10.6600884 12.44921875 18.4921875 C12.9976772 21.52366693 12.78310906 23.92852835 11.87890625 26.8671875 C9.7482905 28.99780325 5.38448154 28.42114187 2.44140625 28.6171875 C1.25708008 28.71966797 1.25708008 28.71966797 0.04882812 28.82421875 C-2.2421875 28.9765625 -2.2421875 28.9765625 -6.12109375 28.8671875 C-8.12109375 25.8671875 -8.12109375 25.8671875 -9.05859375 22.4296875 C-10.05728318 19.08114058 -10.63695914 17.26260301 -13.12109375 14.8671875 C-17.93267714 12.51734445 -22.04297286 12.58980451 -27.12109375 13.8671875 C-30.95667231 15.61821249 -32.53803224 17.00688239 -34.12109375 20.8671875 C-34.43226356 22.92750589 -34.43226356 22.92750589 -34.41162109 25.09741211 C-34.4243808 25.92184311 -34.4371405 26.74627411 -34.45028687 27.59568787 C-34.45251251 28.47805618 -34.45473816 29.3604245 -34.45703125 30.26953125 C-34.46368805 31.18424698 -34.47034485 32.09896271 -34.47720337 33.04139709 C-34.4873173 34.97378532 -34.49202078 36.90620838 -34.49169922 38.83862305 C-34.49607316 41.79078811 -34.53240766 44.74145865 -34.5703125 47.69335938 C-34.57618081 49.57291156 -34.58015011 51.45247084 -34.58203125 53.33203125 C-34.59640228 54.21237534 -34.61077332 55.09271942 -34.62557983 55.9997406 C-34.59474594 60.14674791 -34.47859449 62.30138898 -32.21582031 65.88256836 C-28.14583044 69.73862287 -24.84472464 70.30855027 -19.375 70.19140625 C-15.89090509 69.69022795 -13.75745389 68.11773884 -11.12109375 65.8671875 C-9.3255596 63.17388628 -8.69412914 61.7211274 -7.99609375 58.6796875 C-7.56296875 56.7925 -7.56296875 56.7925 -7.12109375 54.8671875 C-4.72495249 54.81293524 -2.33005522 54.77339723 0.06640625 54.7421875 C0.73994141 54.72542969 1.41347656 54.70867187 2.10742188 54.69140625 C6.16698432 54.65180076 9.2288944 55.06698748 12.87890625 56.8671875 C12.70498753 64.29825994 11.26159866 70.72433021 6.87890625 76.8671875 C4.7109375 78.1484375 4.7109375 78.1484375 2.87890625 78.8671875 C2.87890625 79.5271875 2.87890625 80.1871875 2.87890625 80.8671875 C-5.04067608 87.04446172 -14.80830969 89.39209674 -24.80859375 88.8046875 C-35.08682348 87.35577406 -43.22891365 83.79104529 -50.12109375 75.8671875 C-53.24024182 71.01997956 -55.22709648 66.13304622 -55.2980957 60.35498047 C-55.31093094 59.44328094 -55.32376617 58.53158142 -55.33699036 57.59225464 C-55.34437729 56.60790436 -55.35176422 55.62355408 -55.359375 54.609375 C-55.36744675 53.59175079 -55.37551849 52.57412659 -55.38383484 51.52566528 C-55.39767179 49.36868999 -55.40839568 47.21169284 -55.41625977 45.0546875 C-55.43341885 41.77561126 -55.47730291 38.49755748 -55.52148438 35.21875 C-55.53161644 33.11979906 -55.54013093 31.02083956 -55.546875 28.921875 C-55.56438309 27.9496701 -55.58189117 26.97746521 -55.59992981 25.97579956 C-55.57927342 19.40507615 -54.23506079 14.64005561 -51.12109375 8.8671875 C-50.79109375 8.2071875 -50.46109375 7.5471875 -50.12109375 6.8671875 C-49.46109375 6.8671875 -48.80109375 6.8671875 -48.12109375 6.8671875 C-47.89421875 6.2896875 -47.66734375 5.7121875 -47.43359375 5.1171875 C-44.10378427 -0.59105732 -38.61584955 -2.49438687 -32.56640625 -4.3671875 C-21.2034875 -6.89228056 -10.24817079 -5.47324039 0 0 Z " fill="#000000" transform="translate(60.12109375,23.1328125)"/>
<path d="M0 0 C7.91885578 -0.04628946 15.83765526 -0.08185182 23.75661278 -0.10362434 C27.4334935 -0.11407274 31.11028183 -0.12825102 34.78710938 -0.15087891 C38.33379655 -0.17256991 41.88039472 -0.18456067 45.4271431 -0.18975449 C46.78197252 -0.193457 48.13679694 -0.20068689 49.49158859 -0.21146011 C51.38545757 -0.22592448 53.27941564 -0.22681649 55.17333984 -0.22705078 C56.25255707 -0.231492 57.33177429 -0.23593323 58.44369507 -0.24050903 C61 0 61 0 63 2 C63.22660954 4.48681895 63.32434998 6.82637349 63.3125 9.3125 C63.32925781 10.62863281 63.34601563 11.94476563 63.36328125 13.30078125 C62.97324074 17.27248403 62.30927248 18.81722011 60 22 C59.19611127 23.18325196 58.39276904 24.36687531 57.58984375 25.55078125 C56.70780187 26.80614637 55.82364609 28.0600286 54.9375 29.3125 C54.49083984 29.95767578 54.04417969 30.60285156 53.58398438 31.26757812 C52.44063183 32.88262768 51.22560529 34.44644544 50 36 C49.34 36 48.68 36 48 36 C47.9278125 36.53367188 47.855625 37.06734375 47.78125 37.6171875 C46.69109609 40.94215693 44.63446861 43.40900434 42.5 46.125 C39.48590933 49.88966644 39.48590933 49.88966644 37 54 C36.34 54 35.68 54 35 54 C34.78601563 54.66386719 34.57203125 55.32773438 34.3515625 56.01171875 C32.53640638 60.02499746 30.01827506 63.30714157 27.375 66.8125 C26.859375 67.50537109 26.34375 68.19824219 25.8125 68.91210938 C24.54657074 70.61173663 23.27394735 72.30637435 22 74 C23.17095215 73.99476318 24.3419043 73.98952637 25.54833984 73.98413086 C29.88313028 73.96606242 34.21791737 73.95456121 38.55273438 73.94506836 C40.43066975 73.94003237 42.3086012 73.93320329 44.18652344 73.92456055 C46.88217132 73.91246287 49.57776747 73.90676443 52.2734375 73.90234375 C53.11619232 73.89718246 53.95894714 73.89202118 54.82723999 73.88670349 C60.77225659 73.88612829 60.77225659 73.88612829 63 75 C63.05384521 77.29141286 63.09272087 79.58318188 63.125 81.875 C63.14820313 83.15117188 63.17140625 84.42734375 63.1953125 85.7421875 C63 89 63 89 61 91 C58.44369507 91.24050903 58.44369507 91.24050903 55.17333984 91.22705078 C53.34166763 91.22682419 53.34166763 91.22682419 51.47299194 91.22659302 C50.13563882 91.21637903 48.79828735 91.20594702 47.4609375 91.1953125 C46.09616299 91.1915828 44.73138581 91.18873563 43.36660767 91.18673706 C39.77279277 91.17909714 36.17913927 91.15944572 32.58538818 91.1373291 C28.91892683 91.11687832 25.25243943 91.107737 21.5859375 91.09765625 C14.39055138 91.07620003 7.1952983 91.04205992 0 91 C-2.2437894 84.4499255 -3.52181389 78.64997866 -0.5 72.125 C2.49373079 66.805205 6.05055124 61.65043317 10 57 C10.66 57 11.32 57 12 57 C12.31130859 56.02160156 12.31130859 56.02160156 12.62890625 55.0234375 C14.53652048 50.81690355 17.19963636 47.32921482 19.9375 43.625 C20.51072998 42.8400415 21.08395996 42.05508301 21.67456055 41.24633789 C23.44370549 38.8264169 25.22045597 36.41228174 27 34 C27.55655273 33.24541504 28.11310547 32.49083008 28.68652344 31.71337891 C29.48751465 30.62742432 29.48751465 30.62742432 30.3046875 29.51953125 C30.81265869 28.82972168 31.32062988 28.13991211 31.84399414 27.42919922 C32.80915142 26.12017958 33.7770113 24.81314751 34.74780273 23.50830078 C36.99524232 20.99571116 36.99524232 20.99571116 38 18 C25.46 17.67 12.92 17.34 0 17 C-3.35215453 6.9435364 -3.35215453 6.9435364 -0.984375 1.7890625 C-0.65953125 1.19867187 -0.3346875 0.60828125 0 0 Z " fill="#020202" transform="translate(775,19)"/>
<path d="M0 0 C0.82886719 -0.02900391 1.65773438 -0.05800781 2.51171875 -0.08789062 C8.54329703 -0.15122707 8.54329703 -0.15122707 11.0703125 1.86328125 C12.46645271 5.10542907 13.35114623 8.38138385 14.125 11.8125 C14.29378662 12.52156494 14.46257324 13.23062988 14.63647461 13.96118164 C14.97868499 15.39917783 15.31718508 16.83806236 15.65185547 18.27783203 C17.83628139 27.70191361 17.83628139 27.70191361 20.6875 36.9375 C22.03488252 40.79813488 22.83837811 44.62839787 23.5 48.66015625 C24.37131391 52.35779463 25.74657238 55.77278777 27.125 59.3125 C27.42792969 58.22195312 27.73085938 57.13140625 28.04296875 56.0078125 C28.24293457 55.28803223 28.44290039 54.56825195 28.64892578 53.82666016 C29.09671778 52.21441124 29.54430414 50.6021052 29.99169922 48.98974609 C31.14469602 44.83557829 32.30059365 40.68227917 33.46484375 36.53125 C35.30059737 29.97508584 37.12641015 23.42524617 38.75 16.8125 C39.67471111 13.06663634 40.63508712 9.33724245 41.6875 5.625 C41.91566406 4.81675781 42.14382813 4.00851563 42.37890625 3.17578125 C43.125 1.3125 43.125 1.3125 45.125 0.3125 C47.98931142 0.2144269 50.82375884 0.17347351 53.6875 0.1875 C54.48091797 0.18363281 55.27433594 0.17976563 56.09179688 0.17578125 C61.99836933 0.18586933 61.99836933 0.18586933 63.125 1.3125 C63.19552707 8.04078267 61.39765765 14.07327786 59.171875 20.35546875 C57.25546423 25.76861409 55.70207954 31.29272159 54.125 36.8125 C52.25477433 43.35828984 50.27776062 49.85421814 48.125 56.3125 C47.62098056 57.97795555 47.12135583 59.64474442 46.625 61.3125 C45.52606367 65.00492607 44.34329132 68.65762604 43.125 72.3125 C42.64323629 73.93673195 42.16433488 75.56181424 41.6875 77.1875 C40.34904632 81.65577215 38.92550261 86.00695029 37.125 90.3125 C33.70673253 92.02163373 29.89145237 91.49708479 26.125 91.5 C25.29226563 91.51224609 24.45953125 91.52449219 23.6015625 91.53710938 C22.80492187 91.53904297 22.00828125 91.54097656 21.1875 91.54296875 C20.45660156 91.54707764 19.72570312 91.55118652 18.97265625 91.55541992 C17.125 91.3125 17.125 91.3125 15.125 89.3125 C14.41747867 87.26712348 13.79146175 85.1932638 13.20703125 83.109375 C13.02914566 82.48391785 12.85126007 81.85846069 12.66798401 81.21405029 C12.28536897 79.86734324 11.90556036 78.51983635 11.52825928 77.17163086 C10.53218566 73.61544533 9.51395098 70.06562602 8.49609375 66.515625 C8.29336853 65.80720459 8.09064331 65.09878418 7.8817749 64.36889648 C6.19054896 58.48313671 4.38389635 52.63954885 2.5 46.8125 C0.03696178 39.18625165 -2.35760001 31.54308696 -4.6875 23.875 C-4.9777002 22.92109375 -5.26790039 21.9671875 -5.56689453 20.984375 C-6.34156821 18.42863742 -7.11028204 15.87123205 -7.875 13.3125 C-8.08471436 12.61608398 -8.29442871 11.91966797 -8.51049805 11.20214844 C-9.51726763 7.79133242 -10.19021078 4.8848888 -9.875 1.3125 C-7.70696761 -0.85553239 -2.99537831 0.03461531 0 0 Z " fill="#010101" transform="translate(359.875,18.6875)"/>
<path d="M0 0 C1.16804169 0.00444122 2.33608337 0.00888245 3.53952026 0.01345825 C4.18354797 0.0131662 4.82757568 0.01287415 5.49111938 0.01257324 C7.623112 0.0139683 9.75475655 0.02953729 11.88668823 0.04519653 C13.36356414 0.04892605 14.84044252 0.05177331 16.31732178 0.05377197 C20.20704971 0.0614133 24.09662861 0.08106596 27.98629761 0.10317993 C31.95437606 0.12362768 35.92247855 0.13277139 39.89059448 0.14285278 C47.67842289 0.16431147 55.46612844 0.19845331 63.25387573 0.24050903 C64.7381551 3.20906776 64.4632911 5.93962563 64.50387573 9.24050903 C64.52965698 10.49863403 64.55543823 11.75675903 64.58200073 13.05300903 C64.47371948 14.10488403 64.36543823 15.15675903 64.25387573 16.24050903 C60.99997585 18.40977562 60.11991616 18.48130952 56.36715698 18.43582153 C55.42936401 18.42937622 54.49157104 18.42293091 53.52536011 18.41629028 C52.06066284 18.39115356 52.06066284 18.39115356 50.56637573 18.36550903 C49.57830933 18.3564856 48.59024292 18.34746216 47.57223511 18.33816528 C45.13253808 18.31459333 42.69332877 18.28168926 40.25387573 18.24050903 C40.25831696 19.12556122 40.26275818 20.0106134 40.26733398 20.92248535 C40.3073588 29.25118834 40.33783365 37.57985916 40.35750008 45.90863609 C40.36795056 50.19085152 40.3821327 54.47298767 40.40475464 58.75515747 C40.42643811 62.88539029 40.43843482 67.01554673 40.44363022 71.14583206 C40.44733409 72.72394641 40.45456653 74.30205645 40.46533585 75.8801384 C40.47979123 78.08547855 40.48185621 80.29050045 40.48092651 82.49588013 C40.48536774 83.75274628 40.48980896 85.00961243 40.49438477 86.30456543 C40.25387573 89.24050903 40.25387573 89.24050903 38.25387573 91.24050903 C35.36255396 91.41229955 32.57945508 91.47280373 29.69137573 91.42800903 C28.89795776 91.4273645 28.10453979 91.42671997 27.28707886 91.42605591 C21.39413095 91.38076425 21.39413095 91.38076425 20.25387573 90.24050903 C20.15951044 88.00121017 20.13645246 85.75889153 20.14035034 83.51760864 C20.14020432 82.81520554 20.14005829 82.11280243 20.13990784 81.38911438 C20.14060701 79.05699625 20.14839956 76.72495704 20.15621948 74.39285278 C20.15808365 72.78002465 20.15950756 71.16719596 20.1605072 69.55436707 C20.1643325 65.30135546 20.17416288 61.0483778 20.18521118 56.79537964 C20.19542505 52.45873473 20.20000477 48.12208436 20.20504761 43.78543091 C20.21578514 35.27044134 20.2328617 26.75547941 20.25387573 18.24050903 C19.60314087 18.25098267 18.95240601 18.2614563 18.2819519 18.27224731 C15.33513243 18.31380739 12.38837462 18.33983512 9.44137573 18.36550903 C7.9051355 18.39064575 7.9051355 18.39064575 6.33786011 18.41629028 C5.35494995 18.4227356 4.37203979 18.42918091 3.35934448 18.43582153 C2.45337524 18.44629517 1.54740601 18.4567688 0.61398315 18.46755981 C-1.74612427 18.24050903 -1.74612427 18.24050903 -4.74612427 16.24050903 C-5.10940552 13.05300903 -5.10940552 13.05300903 -5.05862427 9.24050903 C-5.05475708 7.98238403 -5.05088989 6.72425903 -5.04690552 5.42800903 C-4.66555022 1.38663339 -4.10546676 0.35956197 0 0 Z " fill="#020202" transform="translate(246.74612426757813,18.759490966796875)"/>
<path d="M0 0 C0.79792969 0.00386719 1.59585937 0.00773437 2.41796875 0.01171875 C3.21589844 0.00785156 4.01382812 0.00398438 4.8359375 0 C10.79136108 0.01011108 10.79136108 0.01011108 11.91796875 1.13671875 C12.01236853 3.40663762 12.03539101 5.67953842 12.03149414 7.95141602 C12.03164017 8.66357269 12.03178619 9.37572937 12.03193665 10.10946655 C12.03123745 12.47404987 12.02344481 14.83855536 12.015625 17.203125 C12.01376084 18.83837338 12.01233693 20.47362232 12.01133728 22.10887146 C12.00751193 26.4210666 11.9976815 30.73322827 11.9866333 35.04541016 C11.97641955 39.44237821 11.97183974 43.83935164 11.96679688 48.23632812 C11.95605924 56.86980706 11.93898262 65.50325875 11.91796875 74.13671875 C13.81071533 74.12886353 13.81071533 74.12886353 15.74169922 74.12084961 C20.41193943 74.10278417 25.08217654 74.09128106 29.75244141 74.08178711 C31.77588418 74.07675044 33.79932331 74.06992086 35.82275391 74.0612793 C38.72689718 74.04918463 41.63099244 74.04348387 44.53515625 74.0390625 C45.44353241 74.03390121 46.35190857 74.02873993 47.28781128 74.02342224 C48.1285318 74.02334671 48.96925232 74.02327118 49.83544922 74.02319336 C50.94797562 74.01986244 50.94797562 74.01986244 52.08297729 74.01646423 C53.91796875 74.13671875 53.91796875 74.13671875 55.91796875 75.13671875 C55.91796875 80.08671875 55.91796875 85.03671875 55.91796875 90.13671875 C53.24318811 91.47410907 51.1939602 91.26386204 48.19897461 91.26611328 C46.40217506 91.27084152 46.40217506 91.27084152 44.56907654 91.27566528 C43.27010941 91.27364105 41.97114227 91.27161682 40.6328125 91.26953125 C39.29285159 91.27020457 37.95289079 91.27117483 36.6129303 91.27243042 C33.80436032 91.27390556 30.99582214 91.27175838 28.18725586 91.26708984 C24.57999873 91.26138715 20.9728159 91.26467611 17.36556149 91.27066231 C14.59899837 91.27426818 11.832453 91.27312931 9.06588936 91.27053452 C7.08656389 91.26953942 5.10723775 91.27258563 3.12791443 91.27566528 C1.93320023 91.27251312 0.73848602 91.26936096 -0.49243164 91.26611328 C-2.07889244 91.26491989 -2.07889244 91.26491989 -3.69740295 91.26370239 C-6.08203125 91.13671875 -6.08203125 91.13671875 -7.08203125 90.13671875 C-7.18253339 87.37270467 -7.218192 84.63364649 -7.21142578 81.86914062 C-7.2131781 81.00253311 -7.21493042 80.1359256 -7.21673584 79.24305725 C-7.2211555 76.36384102 -7.21821597 73.48468566 -7.21484375 70.60546875 C-7.21551676 68.61389148 -7.21648675 66.62231429 -7.21774292 64.6307373 C-7.21922005 60.4509198 -7.21706486 56.27112362 -7.21240234 52.09130859 C-7.20670505 46.72069349 -7.20998398 41.35012835 -7.21597481 35.97951508 C-7.21958002 31.86529155 -7.21844202 27.75107996 -7.21584702 23.63685608 C-7.21517764 21.65601089 -7.21600655 19.67516463 -7.21832657 17.69432068 C-7.22085244 14.93094999 -7.21701343 12.16766141 -7.21142578 9.40429688 C-7.21345001 8.57724747 -7.21547424 7.75019806 -7.21755981 6.89808655 C-7.19171719 0.03571654 -6.86648474 0.01165787 0 0 Z " fill="#010101" transform="translate(1147.08203125,18.86328125)"/>
<path d="M0 0 C0.78955078 -0.01224609 1.57910156 -0.02449219 2.39257812 -0.03710938 C4.45057435 -0.04237279 6.50812009 0.06543715 8.5625 0.1875 C11.14553084 2.77053084 10.79832174 4.50176711 10.81134033 8.02093506 C10.80414978 8.8366095 10.79695923 9.65228394 10.78955078 10.49267578 C10.78984283 11.35128204 10.79013489 12.20988831 10.79043579 13.09451294 C10.78903922 15.94071457 10.77346273 18.78665644 10.7578125 21.6328125 C10.75408353 23.60293434 10.75123601 25.57305802 10.74923706 27.54318237 C10.74159146 32.73493548 10.72193504 37.92657714 10.6998291 43.11828613 C10.6793906 48.4134775 10.67023962 53.70868683 10.66015625 59.00390625 C10.63869001 69.39848654 10.60454292 79.79298401 10.5625 90.1875 C7.26572112 91.83588944 3.61933956 91.33022738 0 91.3125 C-0.79341797 91.31636719 -1.58683594 91.32023437 -2.40429688 91.32421875 C-8.31086933 91.31413067 -8.31086933 91.31413067 -9.4375 90.1875 C-9.53800214 87.42348592 -9.57366075 84.68442774 -9.56689453 81.91992188 C-9.56864685 81.05331436 -9.57039917 80.18670685 -9.57220459 79.2938385 C-9.57662425 76.41462227 -9.57368472 73.53546691 -9.5703125 70.65625 C-9.57098551 68.66467273 -9.5719555 66.67309554 -9.57321167 64.68151855 C-9.5746888 60.50170105 -9.57253361 56.32190487 -9.56787109 52.14208984 C-9.5621738 46.77147474 -9.56545273 41.4009096 -9.57144356 36.03029633 C-9.57504877 31.9160728 -9.57391077 27.80186121 -9.57131577 23.68763733 C-9.57064639 21.70679214 -9.5714753 19.72594588 -9.57379532 17.74510193 C-9.57632119 14.98173124 -9.57248218 12.21844266 -9.56689453 9.45507812 C-9.56891876 8.62802872 -9.57094299 7.80097931 -9.57302856 6.9488678 C-9.54279202 -1.08028444 -7.2696731 0.0059055 0 0 Z " fill="#010101" transform="translate(516.4375,18.8125)"/>
<path d="M0 0 C2.93383336 -0.24817926 5.63632685 -0.32643881 8.5625 -0.25 C9.75262695 -0.24226563 9.75262695 -0.24226563 10.96679688 -0.234375 C16.84595509 -0.15404491 16.84595509 -0.15404491 18 1 C18.10050214 3.76401408 18.13616075 6.50307226 18.12939453 9.26757812 C18.13114685 10.13418564 18.13289917 11.00079315 18.13470459 11.8936615 C18.13912425 14.77287773 18.13618472 17.65203309 18.1328125 20.53125 C18.13348551 22.52282727 18.1344555 24.51440446 18.13571167 26.50598145 C18.1371888 30.68579895 18.13503361 34.86559513 18.13037109 39.04541016 C18.1246738 44.41602526 18.12795273 49.7865904 18.13394356 55.15720367 C18.13754877 59.2714272 18.13641077 63.38563879 18.13381577 67.49986267 C18.13314639 69.48070786 18.1339753 71.46155412 18.13629532 73.44239807 C18.13882119 76.20576876 18.13498218 78.96905734 18.12939453 81.73242188 C18.13141876 82.55947128 18.13344299 83.38652069 18.13552856 84.2386322 C18.11426244 89.88573756 18.11426244 89.88573756 17 91 C14.17583618 91.12663091 11.38705207 91.18520548 8.5625 91.1875 C7.77294922 91.19974609 6.98339844 91.21199219 6.16992188 91.22460938 C4.11192565 91.22987279 2.05437991 91.12206285 0 91 C-2.54977397 88.45022603 -2.24389837 86.80388585 -2.27105713 83.32681274 C-2.26700867 82.53455292 -2.26296021 81.74229309 -2.25878906 80.92602539 C-2.2622937 80.09174515 -2.26579834 79.2574649 -2.26940918 78.39790344 C-2.27823511 75.63107054 -2.27237381 72.86449191 -2.265625 70.09765625 C-2.26697153 68.17955984 -2.26891196 66.26146377 -2.27142334 64.34336853 C-2.27437587 60.31913002 -2.27007328 56.29498017 -2.26074219 52.27075195 C-2.24935526 47.1076936 -2.25590151 41.94484333 -2.26788712 36.78179264 C-2.27510876 32.81931486 -2.27281624 28.85688653 -2.26763153 24.89440727 C-2.26629548 22.99057427 -2.26794119 21.08673681 -2.27259064 19.18290901 C-2.27766 16.52294118 -2.26993951 13.86331172 -2.25878906 11.20336914 C-2.26283752 10.41313354 -2.26688599 9.62289795 -2.27105713 8.80871582 C-2.2414457 5.00282728 -2.16334996 3.24502494 0 0 Z " fill="#010101" transform="translate(322,19)"/>
<path d="M0 0 C5.3893909 -0.04976354 10.77864544 -0.08589047 16.16821289 -0.10986328 C17.99831475 -0.11986648 19.82840084 -0.13347335 21.65844727 -0.15087891 C24.30228588 -0.17537891 26.94591157 -0.18654013 29.58984375 -0.1953125 C30.39646957 -0.20563507 31.2030954 -0.21595764 32.03416443 -0.22659302 C39.75685329 -0.22808842 46.89524014 0.83697868 53.5625 4.9375 C54.40941406 5.44152344 55.25632812 5.94554687 56.12890625 6.46484375 C57.05509766 7.22474609 57.05509766 7.22474609 58 8 C58 8.99 58 9.98 58 11 C57.12988281 10.38511719 57.12988281 10.38511719 56.2421875 9.7578125 C55.07042969 8.94957031 55.07042969 8.94957031 53.875 8.125 C53.10929687 7.59132813 52.34359375 7.05765625 51.5546875 6.5078125 C45.43286383 2.89462605 39.71112732 2.6717776 32.7890625 2.5859375 C31.82092621 2.56657135 30.85278992 2.5472052 29.85531616 2.5272522 C26.7786323 2.4677167 23.70191049 2.4211753 20.625 2.375 C18.53253623 2.33679627 16.44008778 2.29774315 14.34765625 2.2578125 C9.23189604 2.16203655 4.11606224 2.07790958 -1 2 C-0.67 1.34 -0.34 0.68 0 0 Z " fill="#2F2F2F" transform="translate(1213,19)"/>
<path d="M0 0 C2.27775215 0.94991458 4.48113899 1.95931949 6.6875 3.0625 C6.3575 3.7225 6.0275 4.3825 5.6875 5.0625 C4.05989583 4.31380208 2.43229167 3.56510417 0.8046875 2.81640625 C-4.80603478 0.81849223 -10.79641087 0.78656813 -16.6875 0.5 C-17.51894531 0.45681641 -18.35039063 0.41363281 -19.20703125 0.36914062 C-21.24203228 0.26388195 -23.27724703 0.16276928 -25.3125 0.0625 C-18.31640544 -4.32101789 -7.36110805 -2.67765174 0 0 Z " fill="#424242" transform="translate(1029.3125,19.9375)"/>
<path d="M0 0 C1.37865234 0.47566406 1.37865234 0.47566406 2.78515625 0.9609375 C7.92495011 2.42945003 13.12457681 2.45907917 18.4375 2.625 C19.45521484 2.66367188 20.47292969 2.70234375 21.52148438 2.7421875 C24.01414936 2.83580872 26.5068195 2.92153993 29 3 C26.06391914 5.93608086 23.34047208 5.7272843 19.30078125 6.04296875 C12.96827711 5.96053378 5.71489193 4.85744596 0 2 C0 1.34 0 0.68 0 0 Z " fill="#323232" transform="translate(21,106)"/>
<path d="M0 0 C0.51175781 0.32355469 1.02351563 0.64710937 1.55078125 0.98046875 C-0.22425781 1.05394531 -0.22425781 1.05394531 -2.03515625 1.12890625 C-10.35699813 1.5098914 -18.32072859 2.01389855 -26.44921875 3.98046875 C-26.44921875 3.32046875 -26.44921875 2.66046875 -26.44921875 1.98046875 C-18.70682013 -1.27948856 -8.06304239 -3.35638607 0 0 Z " fill="#353535" transform="translate(48.44921875,19.01953125)"/>
<path d="M0 0 C0.99 0.33 1.98 0.66 3 1 C2.46890625 1.43570312 1.9378125 1.87140625 1.390625 2.3203125 C-5.55029076 8.17196046 -9.1549612 13.08231246 -11 22 C-11.33 22 -11.66 22 -12 22 C-12.50610724 15.92671312 -11.04157942 12.22771463 -8 7 C-7.34 7 -6.68 7 -6 7 C-5.7525 6.401875 -5.505 5.80375 -5.25 5.1875 C-3.80517427 2.65905497 -2.51719455 1.44929383 0 0 Z " fill="#171717" transform="translate(18,23)"/>
<path d="M0 0 C0.33 0.66 0.66 1.32 1 2 C-4.55371953 7.85392058 -4.55371953 7.85392058 -8.90112305 8.11352539 C-9.59761963 8.10828857 -10.29411621 8.10305176 -11.01171875 8.09765625 C-12.14770508 8.09282227 -12.14770508 8.09282227 -13.30664062 8.08789062 C-14.09232422 8.07951172 -14.87800781 8.07113281 -15.6875 8.0625 C-16.48478516 8.05798828 -17.28207031 8.05347656 -18.10351562 8.04882812 C-20.06904257 8.0370585 -22.03453085 8.01912348 -24 8 C-24 7.67 -24 7.34 -24 7 C-22.75863281 6.87882812 -21.51726562 6.75765625 -20.23828125 6.6328125 C-18.59631474 6.46392452 -16.95438977 6.2946324 -15.3125 6.125 C-14.49587891 6.04636719 -13.67925781 5.96773437 -12.83789062 5.88671875 C-6.69079321 5.27553603 -6.69079321 5.27553603 -1 3 C-0.67 2.01 -0.34 1.02 0 0 Z " fill="#111111" transform="translate(215,51)"/>
<path d="M0 0 C-1 2 -1 2 -2.65625 2.61328125 C-5.62721036 3.10348971 -8.48888954 3.17023446 -11.5 3.1875 C-12.6240625 3.20167969 -13.748125 3.21585937 -14.90625 3.23046875 C-17.86976056 3.00970218 -19.5067415 2.5460647 -22 1 C-19.45847098 0.83096719 -16.91681012 0.66470573 -14.375 0.5 C-13.30572266 0.42845703 -13.30572266 0.42845703 -12.21484375 0.35546875 C-8.13492439 0.09345558 -4.09108781 -0.05162256 0 0 Z " fill="#494949" transform="translate(1027,109)"/>
<path d="M0 0 C2.21264913 2.21264913 2.97452346 4.34250155 4.15234375 7.1953125 C6.17179394 11.49478709 9.62155365 14.74221245 13 18 C7.3868948 16.63924722 4.38968575 12.37378806 1 8 C-0.35439668 5.29120665 -0.06501451 2.99066732 0 0 Z " fill="#191919" transform="translate(7,88)"/>
<path d="M0 0 C0.79664063 0.49371094 1.59328125 0.98742187 2.4140625 1.49609375 C3.47367188 2.13675781 4.53328125 2.77742188 5.625 3.4375 C6.66914062 4.07558594 7.71328125 4.71367188 8.7890625 5.37109375 C11.9655677 6.98253252 14.48099171 7.62485047 18 8 C18 8.33 18 8.66 18 9 C12.04327229 9.49639398 8.02177765 8.26415547 3 5 C1.265625 3.48828125 1.265625 3.48828125 0 2 C0 1.34 0 0.68 0 0 Z " fill="#1D1D1D" transform="translate(991,101)"/>
<path d="M0 0 C6.16529701 0.31616908 10.17268433 3.49215061 15 7 C14.67 7.66 14.34 8.32 14 9 C13.40832031 8.59007812 12.81664062 8.18015625 12.20703125 7.7578125 C11.41683594 7.21898437 10.62664062 6.68015625 9.8125 6.125 C9.03519531 5.59132813 8.25789063 5.05765625 7.45703125 4.5078125 C5.0323391 3.01984561 2.6666501 1.97571922 0 1 C0 0.67 0 0.34 0 0 Z " fill="#1B1B1B" transform="translate(1257,21)"/>
<path d="M0 0 C0 0.33 0 0.66 0 1 C-1.423125 1.0928125 -1.423125 1.0928125 -2.875 1.1875 C-8.07127249 1.89171763 -12.45271375 4.52049381 -17 7 C-15.86308867 3.589266 -15.4839887 3.36853434 -12.4375 1.8125 C-8.09976135 -0.25047516 -4.74933268 -0.33923805 0 0 Z " fill="#181818" transform="translate(1009,20)"/>
<path d="M0 0 C0 0.99 0 1.98 0 3 C-2.75 5.25 -2.75 5.25 -6 7 C-7.32 6.67 -8.64 6.34 -10 6 C-6.7 4.02 -3.4 2.04 0 0 Z " fill="#282828" transform="translate(1038,102)"/>
<path d="M0 0 C1.18771723 3.42943519 0.80226223 5.37784675 -0.4375 8.75 C-0.86869141 9.94882812 -0.86869141 9.94882812 -1.30859375 11.171875 C-1.65083984 12.07679687 -1.65083984 12.07679687 -2 13 C-2.33 13 -2.66 13 -3 13 C-2.88557539 11.39504433 -2.75805306 9.79101881 -2.625 8.1875 C-2.55539063 7.29417969 -2.48578125 6.40085937 -2.4140625 5.48046875 C-2 3 -2 3 0 0 Z " fill="#121212" transform="translate(105,27)"/>
<path d="M0 0 C3.80881639 1.44472346 5.29742886 3.32603071 7 7 C6.67 7.99 6.34 8.98 6 10 C4.99421411 8.71283353 3.99553202 7.42011342 3 6.125 C2.443125 5.40570312 1.88625 4.68640625 1.3125 3.9453125 C0 2 0 2 0 0 Z " fill="#131313" transform="translate(1119,26)"/>
</svg>
