<?xml version="1.0" encoding="UTF-8"?>
<svg version="1.1" xmlns="http://www.w3.org/2000/svg" width="1280" height="139">
<path d="M0 0 C2.95887459 -0.08069658 5.9155659 -0.14034665 8.875 -0.1875 C9.71675781 -0.21263672 10.55851563 -0.23777344 11.42578125 -0.26367188 C12.23144531 -0.27333984 13.03710938 -0.28300781 13.8671875 -0.29296875 C14.98262939 -0.31653442 14.98262939 -0.31653442 16.12060547 -0.34057617 C17.05090576 -0.17199097 17.05090576 -0.17199097 18 0 C20.39118074 3.58677111 20.95181383 6.97297911 21.75 11.125 C23.40182 19.35885029 25.27395618 27.52552916 27.25 35.6875 C27.52038086 36.80463379 27.79076172 37.92176758 28.06933594 39.07275391 C28.71077372 41.7156922 29.35417389 44.35813117 30 47 C31.78773967 43.59626059 32.6268271 40.53487469 33.375 36.75 C34.46767856 31.41417879 35.69716132 26.1470058 37.0625 20.875 C38.58057613 15.00912546 39.71524219 9.16913321 40.5078125 3.16015625 C40.67023437 2.44730469 40.83265625 1.73445313 41 1 C43.296537 -0.1482685 44.58313167 -0.11561175 47.1328125 -0.09765625 C47.93847656 -0.09443359 48.74414062 -0.09121094 49.57421875 -0.08789062 C50.83685547 -0.07532227 50.83685547 -0.07532227 52.125 -0.0625 C52.97449219 -0.05798828 53.82398438 -0.05347656 54.69921875 -0.04882812 C56.79950909 -0.03702874 58.8997633 -0.01909306 61 0 C63.53925727 5.44545923 65.0577993 10.77351542 66.375 16.625 C66.8031904 18.47530556 67.23158221 20.32556452 67.66015625 22.17578125 C67.87816895 23.12662598 68.09618164 24.0774707 68.32080078 25.05712891 C69.45745072 29.98206721 70.63700518 34.89671756 71.8125 39.8125 C72.23587363 41.58979694 72.6590692 43.36713632 73.08203125 45.14453125 C73.53642578 47.05298828 73.53642578 47.05298828 74 49 C74.41572266 47.06833984 74.41572266 47.06833984 74.83984375 45.09765625 C75.20553472 43.41922846 75.57143072 41.74084532 75.9375 40.0625 C76.11990234 39.21236328 76.30230469 38.36222656 76.49023438 37.48632812 C76.66748047 36.67744141 76.84472656 35.86855469 77.02734375 35.03515625 C77.27085571 33.91185913 77.27085571 33.91185913 77.51928711 32.76586914 C78 31 78 31 79 30 C79.4726978 27.60640286 79.90333822 25.21705261 80.3125 22.8125 C81.6930836 15.02830214 83.67276528 7.56055951 86 0 C88.79173055 -0.02690104 91.58320348 -0.04679053 94.375 -0.0625 C95.1690625 -0.07087891 95.963125 -0.07925781 96.78125 -0.08789062 C102.7734375 -0.11328125 102.7734375 -0.11328125 105 1 C104.04952285 8.62020474 102.3003152 15.90891566 100.3125 23.3125 C97.77382485 32.7858417 95.51082098 42.30460734 93.375 51.875 C93.15170013 52.87412415 93.15170013 52.87412415 92.92388916 53.89343262 C92.20489722 57.11175881 91.48755803 60.33044805 90.77099609 63.54931641 C89.76348905 68.05853254 88.73690379 72.56286131 87.6875 77.0625 C87.40261719 78.29097656 87.11773438 79.51945312 86.82421875 80.78515625 C86.0213837 83.91659345 85.06368101 86.94830382 84 90 C80.87517438 90.08687496 77.75065754 90.14034568 74.625 90.1875 C73.73554687 90.21263672 72.84609375 90.23777344 71.9296875 90.26367188 C70.65351562 90.27817383 70.65351562 90.27817383 69.3515625 90.29296875 C68.56604004 90.3086792 67.78051758 90.32438965 66.97119141 90.34057617 C66.32069824 90.22818604 65.67020508 90.1157959 65 90 C62.93790603 86.90685904 62.3962984 84.95543388 61.6328125 81.36328125 C61.38877686 80.23567383 61.14474121 79.10806641 60.89331055 77.94628906 C60.63976807 76.74713867 60.38622559 75.54798828 60.125 74.3125 C59.59416586 71.85509702 59.06161938 69.3980633 58.52734375 66.94140625 C58.13844971 65.15307373 58.13844971 65.15307373 57.74169922 63.32861328 C56.53886296 57.93049955 55.16991115 52.58194106 53.76171875 47.234375 C52.96141225 43.83615048 52.44365008 40.46134911 52 37 C51.83918945 37.72888428 51.67837891 38.45776855 51.51269531 39.20874023 C48.68518699 52.01219001 45.8476234 64.8104209 42.8125 77.56640625 C41.8337656 81.70250018 40.90601171 85.84744635 40 90 C37.04142591 90.05379226 34.08382279 90.09357093 31.125 90.125 C29.86236328 90.15013672 29.86236328 90.15013672 28.57421875 90.17578125 C27.76855469 90.18222656 26.96289062 90.18867187 26.1328125 90.1953125 C25.38918457 90.20578613 24.64555664 90.21625977 23.87939453 90.22705078 C22 90 22 90 20 88 C19.51118957 86.00984324 19.03806665 84.01505825 18.625 82.0078125 C16.24008688 70.5304181 13.28891237 59.2490336 10 48 C9.09380048 44.85704818 8.20071529 41.71057639 7.3125 38.5625 C7.09795166 37.81685791 6.88340332 37.07121582 6.66235352 36.30297852 C5.41759735 31.878007 4.6340849 27.56096157 4 23 C3.36414535 20.95390668 3.36414535 20.95390668 2.5625 19.1875 C0.06481874 12.86332183 -1.66795664 6.70756848 0 0 Z " fill="#FEFEFE" transform="translate(867,26)"/>
<path d="M0 0 C0.85892349 -0.00570007 1.71784698 -0.01140015 2.60279846 -0.01727295 C4.42781338 -0.02673439 6.25284547 -0.03326146 8.07788086 -0.03710938 C10.83674275 -0.046728 13.59483148 -0.07770296 16.35351562 -0.109375 C40.00597937 -0.25143829 40.00597937 -0.25143829 48.44140625 7.203125 C55.10028148 15.46654848 56.75272155 22.81525611 56.7421875 33.1953125 C56.74647263 34.14068878 56.75075775 35.08606506 56.75517273 36.06008911 C56.76089305 38.05193281 56.76143331 40.04379738 56.75708008 42.03564453 C56.75392318 45.0618909 56.77739777 48.08715567 56.80273438 51.11328125 C56.80500811 53.05729045 56.80571052 55.00130224 56.8046875 56.9453125 C56.81389725 57.83934784 56.82310699 58.73338318 56.83259583 59.6545105 C56.7698751 68.29049973 54.75799354 76.93344306 48.44140625 83.203125 C40.38038215 88.91554245 32.53455355 90.51496006 22.859375 90.43359375 C21.96398514 90.43313553 21.06859528 90.43267731 20.14607239 90.4322052 C18.26606917 90.42919956 16.38606806 90.42136426 14.50610352 90.40893555 C11.62051651 90.39057161 8.73524899 90.38842685 5.84960938 90.38867188 C4.01952846 90.38376002 2.18944972 90.37793316 0.359375 90.37109375 C-0.9374395 90.36942451 -0.9374395 90.36942451 -2.26045227 90.36772156 C-8.32637954 90.3192321 -8.32637954 90.3192321 -10.55859375 89.203125 C-10.55859375 60.163125 -10.55859375 31.123125 -10.55859375 1.203125 C-7.26941314 -0.4414653 -3.61639038 0.01851443 0 0 Z M9.44140625 17.203125 C9.44140625 35.683125 9.44140625 54.163125 9.44140625 73.203125 C12.35382032 74.65933203 14.94816779 74.37351931 18.19140625 74.390625 C19.403125 74.40480469 20.61484375 74.41898438 21.86328125 74.43359375 C25.40386243 74.20554322 28.1482998 73.48097152 31.44140625 72.203125 C31.44140625 71.543125 31.44140625 70.883125 31.44140625 70.203125 C32.92640625 69.708125 32.92640625 69.708125 34.44140625 69.203125 C36.97317466 64.83638087 36.7638526 60.29508534 36.77734375 55.39453125 C36.78400055 54.55019028 36.79065735 53.7058493 36.79751587 52.83592224 C36.80761456 51.05494354 36.81233375 49.27392722 36.81201172 47.49291992 C36.81638656 44.77784584 36.85273853 42.06439637 36.890625 39.34960938 C36.89649356 37.61458886 36.90046269 35.87956067 36.90234375 34.14453125 C36.91671478 33.33810684 36.93108582 32.53168243 36.94589233 31.70082092 C36.90353872 26.4406198 36.07067693 23.28130162 32.44140625 19.203125 C25.55350365 16.08895297 25.55350365 16.08895297 9.44140625 17.203125 Z " fill="#FDFDFD" transform="translate(1218.55859375,25.796875)"/>
<path d="M0 0 C0.94912262 -0.00807175 1.89824524 -0.01614349 2.87612915 -0.02445984 C4.89542808 -0.03832834 6.91475072 -0.04903804 8.93408203 -0.05688477 C11.99168216 -0.07395424 15.04816017 -0.11779697 18.10546875 -0.16210938 C40.00513965 -0.33701808 40.00513965 -0.33701808 48.6015625 6.61328125 C54.64891239 14.30990838 57.81413282 21.25275003 56.6640625 31.23828125 C55.37885944 38.09629757 53.12200527 43.70503127 47.6640625 48.23828125 C45.36636393 49.64921576 43.0308933 50.94269377 40.6640625 52.23828125 C44.50636411 61.26769003 48.47627245 70.16310891 53.0859375 78.83203125 C55.05993719 82.63790265 56.20457459 85.97160781 56.6640625 90.23828125 C53.74640359 90.34634269 50.83275125 90.42561002 47.9140625 90.48828125 C47.0890625 90.52179688 46.2640625 90.5553125 45.4140625 90.58984375 C39.3613925 90.68746746 39.3613925 90.68746746 36.29296875 88.7109375 C34.14941424 85.45705259 32.73155777 82.04725295 31.3515625 78.42578125 C30.73705911 76.90829378 30.12114171 75.39137825 29.50390625 73.875 C28.29890284 70.87351478 27.15647576 67.85671588 26.04296875 64.8203125 C25.50170973 63.4589544 24.95881306 62.09824596 24.4140625 60.73828125 C23.72570312 58.8975 23.72570312 58.8975 23.0234375 57.01953125 C20.17613186 53.66310474 19.17858711 53.72942993 14.9296875 53.33203125 C13.17525126 53.27131619 11.41953282 53.23074381 9.6640625 53.23828125 C9.67191772 54.86624634 9.67191772 54.86624634 9.67993164 56.52709961 C9.69798086 60.53946107 9.70949421 64.55181892 9.71899414 68.56420898 C9.72403454 70.30347293 9.7308668 72.04273261 9.73950195 73.78198242 C9.75158042 76.27654062 9.75729358 78.77104298 9.76171875 81.265625 C9.76688004 82.04791977 9.77204132 82.83021454 9.77735901 83.63621521 C9.77755476 85.50395239 9.72605944 87.37157329 9.6640625 89.23828125 C8.1419666 90.76037715 6.78196168 90.36787646 4.6640625 90.37109375 C3.8596875 90.37238281 3.0553125 90.37367187 2.2265625 90.375 C1.3809375 90.37113281 0.5353125 90.36726563 -0.3359375 90.36328125 C-1.1815625 90.36714844 -2.0271875 90.37101562 -2.8984375 90.375 C-3.7028125 90.37371094 -4.5071875 90.37242188 -5.3359375 90.37109375 C-6.0784375 90.36996582 -6.8209375 90.36883789 -7.5859375 90.36767578 C-9.3359375 90.23828125 -9.3359375 90.23828125 -10.3359375 89.23828125 C-10.43642273 86.50477377 -10.47210011 83.79650233 -10.46533203 81.0625 C-10.46708435 80.20564606 -10.46883667 79.34879211 -10.47064209 78.4659729 C-10.47506167 75.61922205 -10.47212225 72.77253278 -10.46875 69.92578125 C-10.46942301 67.95662423 -10.47039301 65.98746728 -10.47164917 64.01831055 C-10.47312629 59.8855714 -10.47097114 55.75285383 -10.46630859 51.62011719 C-10.4606113 46.31003604 -10.46389023 41.00000544 -10.46988106 35.68992615 C-10.4734863 31.62202572 -10.47234826 27.55413736 -10.46975327 23.48623657 C-10.46908389 21.52772007 -10.46991277 19.56920249 -10.47223282 17.61068726 C-10.47475874 14.87844925 -10.47091961 12.14629428 -10.46533203 9.4140625 C-10.46735626 8.59636383 -10.46938049 7.77866516 -10.47146606 6.93618774 C-10.43965311 -1.41664507 -7.45595651 0.05968573 0 0 Z M9.6640625 17.23828125 C9.6640625 24.49828125 9.6640625 31.75828125 9.6640625 39.23828125 C13.9025 39.36203125 13.9025 39.36203125 18.2265625 39.48828125 C19.5405603 39.54290527 19.5405603 39.54290527 20.88110352 39.59863281 C26.65706109 39.67951579 29.94899342 38.61225603 34.6640625 35.23828125 C37.34616161 31.21513259 37.35249665 27.96608206 36.6640625 23.23828125 C34.55014373 19.73938121 33.54670191 18.53249439 29.6640625 17.23828125 C28.10984521 17.15721439 26.55239223 17.13071227 24.99609375 17.140625 C23.7891687 17.14437134 23.7891687 17.14437134 22.55786133 17.14819336 C21.54103271 17.15729736 20.5242041 17.16640137 19.4765625 17.17578125 C16.2384375 17.19640625 13.0003125 17.21703125 9.6640625 17.23828125 Z " fill="#FEFEFE" transform="translate(178.3359375,25.76171875)"/>
<path d="M0 0 C0.83169205 -0.00960754 1.66338409 -0.01921509 2.52027893 -0.02911377 C3.42229538 -0.03336365 4.32431183 -0.03761353 5.25366211 -0.04199219 C6.64904457 -0.0505423 6.64904457 -0.0505423 8.07261658 -0.05926514 C10.04726014 -0.0687256 12.02191956 -0.07525326 13.99658203 -0.07910156 C16.99467308 -0.08875026 19.99206185 -0.11973982 22.98999023 -0.15136719 C24.91121014 -0.15790307 26.83243493 -0.16315124 28.75366211 -0.16699219 C29.64150894 -0.17933899 30.52935577 -0.19168579 31.44410706 -0.20440674 C39.92683896 -0.17458852 47.27265207 1.83878749 53.96850586 7.16113281 C53.96850586 7.82113281 53.96850586 8.48113281 53.96850586 9.16113281 C54.62850586 9.16113281 55.28850586 9.16113281 55.96850586 9.16113281 C60.78107251 18.13000703 62.6971279 26.93693969 59.84350586 36.84863281 C56.91813674 44.58582403 52.00800909 48.3160961 44.96850586 52.16113281 C46.31991617 55.03743595 47.67502308 57.91198269 49.03100586 60.78613281 C49.43569092 61.64609863 49.84037598 62.50606445 50.25732422 63.39208984 C52.15797086 67.41299017 54.07602445 71.41642144 56.12475586 75.36425781 C56.60996704 76.30277588 56.60996704 76.30277588 57.10498047 77.26025391 C57.97949114 78.93734082 58.86620439 80.60804841 59.75366211 82.27832031 C60.97908947 85.18624762 61.23849132 87.04768345 60.96850586 90.16113281 C58.0304559 90.24199657 55.09462511 90.30156111 52.15600586 90.34863281 C51.32262695 90.37376953 50.48924805 90.39890625 49.63061523 90.42480469 C48.82817383 90.43447266 48.02573242 90.44414063 47.19897461 90.45410156 C46.4605835 90.46981201 45.72219238 90.48552246 44.96142578 90.50170898 C42.37867975 90.06033563 41.57723743 89.19375706 39.96850586 87.16113281 C38.80578953 84.75511586 37.73927947 82.37561374 36.71850586 79.91113281 C36.10815723 78.47554266 35.49613271 77.04066403 34.88256836 75.60644531 C34.56964844 74.87329102 34.25672852 74.14013672 33.93432617 73.38476562 C32.38646713 69.82109017 30.74551494 66.30247817 29.09350586 62.78613281 C28.79541016 62.15030273 28.49731445 61.51447266 28.19018555 60.859375 C27.13564901 58.61648996 26.07692768 56.37797646 24.96850586 54.16113281 C21.66850586 54.16113281 18.36850586 54.16113281 14.96850586 54.16113281 C14.94344971 55.2161499 14.91839355 56.27116699 14.89257812 57.3581543 C14.79866477 61.25883909 14.69840552 65.15933907 14.59619141 69.05981445 C14.55278147 70.7505258 14.51111097 72.44128272 14.47119141 74.13208008 C14.41363492 76.55726887 14.34989937 78.98222696 14.28491211 81.40722656 C14.25984337 82.54785805 14.25984337 82.54785805 14.23426819 83.71153259 C14.08237757 89.04726111 14.08237757 89.04726111 12.96850586 90.16113281 C10.14594095 90.26120289 7.35327396 90.29988879 4.53100586 90.28613281 C3.74145508 90.29 2.9519043 90.29386719 2.13842773 90.29785156 C-3.77823281 90.28776348 -3.77823281 90.28776348 -6.03149414 89.16113281 C-6.03149414 60.12113281 -6.03149414 31.08113281 -6.03149414 1.16113281 C-3.77052216 0.03064682 -2.51001624 0.02340341 0 0 Z M13.96850586 17.16113281 C13.96850586 24.42113281 13.96850586 31.68113281 13.96850586 39.16113281 C18.23788086 39.25394531 18.23788086 39.25394531 22.59350586 39.34863281 C23.4786084 39.37594482 24.36371094 39.40325684 25.27563477 39.43139648 C30.25235726 39.48348237 33.70507529 39.00982141 37.96850586 36.16113281 C40.7540239 33.31647426 41.4396895 31.17458713 41.53100586 27.22363281 C41.57354492 26.38960937 41.61608398 25.55558594 41.65991211 24.69628906 C40.83011133 21.65368621 39.47687865 20.01819393 36.96728516 18.1184082 C32.89417573 16.16767386 28.50640672 16.65580304 24.09350586 16.84863281 C19.08163086 17.00332031 19.08163086 17.00332031 13.96850586 17.16113281 Z " fill="#FEFEFE" transform="translate(1064.031494140625,25.8388671875)"/>
<path d="M0 0 C1.24988708 0.00136711 1.24988708 0.00136711 2.52502441 0.00276184 C3.38631958 -0.00152328 4.24761475 -0.00580841 5.13500977 -0.01022339 C6.96422446 -0.01597609 8.79346204 -0.01646006 10.62268066 -0.01213074 C13.39262323 -0.00900059 16.16146637 -0.03231269 18.93127441 -0.05778503 C36.1853102 -0.1196201 36.1853102 -0.1196201 43.93127441 3.30354309 C44.56452637 3.56699524 45.19777832 3.83044739 45.85021973 4.10188293 C51.69680741 6.94098591 55.4705351 11.90099475 57.98913574 17.76765442 C59.26863169 22.56966009 59.25609251 27.12330211 59.26721191 32.07307434 C59.27719711 33.62643745 59.27719711 33.62643745 59.28738403 35.21118164 C59.29748569 37.39730561 59.30220182 39.58346026 59.30187988 41.76960754 C59.30624625 45.09459397 59.3425748 48.41824492 59.38049316 51.74299622 C59.38636337 53.87385109 59.3903314 56.00471222 59.39221191 58.13557434 C59.40658295 59.12024185 59.42095398 60.10490936 59.4357605 61.11941528 C59.38392402 69.04619681 57.30707988 74.73983489 52.93127441 81.30354309 C52.27127441 81.30354309 51.61127441 81.30354309 50.93127441 81.30354309 C50.93127441 81.96354309 50.93127441 82.62354309 50.93127441 83.30354309 C43.43136528 89.42189001 34.49174878 90.77053167 25.05627441 90.63166809 C24.16512939 90.62979492 23.27398438 90.62792175 22.35583496 90.62599182 C20.4937357 90.61932803 18.63164905 90.60552873 16.76965332 90.58479309 C13.9106353 90.55331586 11.05216825 90.54378206 8.19299316 90.53791809 C6.37658014 90.52875924 4.56017273 90.51838706 2.74377441 90.50666809 C1.88864258 90.50241821 1.03351074 90.49816833 0.15246582 90.49378967 C-5.83413517 90.4208383 -5.83413517 90.4208383 -8.06872559 89.30354309 C-8.11499457 77.99471074 -8.15056705 66.68590078 -8.17234993 55.37699318 C-8.18280276 50.12623891 -8.19698922 44.87554924 -8.21960449 39.62483215 C-8.24127953 34.56092567 -8.25328291 29.49708145 -8.25848007 24.43313217 C-8.26218545 22.49776097 -8.26942077 20.5623933 -8.2801857 18.62704849 C-8.29462973 15.92359712 -8.29670652 13.22040553 -8.29577637 10.516922 C-8.30296692 9.7105983 -8.31015747 8.9042746 -8.31756592 8.07351685 C-8.29131296 1.05719837 -6.95535176 0.086281 0 0 Z M11.93127441 17.30354309 C11.90814526 24.58775857 11.8903564 31.87196619 11.87946224 39.1562109 C11.87423467 42.53826122 11.86713931 45.92028649 11.85583496 49.30232239 C11.84293175 53.18684086 11.83804518 57.07134906 11.83361816 60.95588684 C11.82845688 62.1756572 11.82329559 63.39542755 11.81797791 64.65216064 C11.81790237 65.77324722 11.81782684 66.8943338 11.81774902 68.0493927 C11.81552841 69.04200607 11.8133078 70.03461945 11.8110199 71.05731201 C11.678775 73.27380834 11.678775 73.27380834 12.93127441 74.30354309 C24.44849714 75.20709218 24.44849714 75.20709218 34.93127441 71.30354309 C40.86740002 64.11770683 40.14583535 56.52486924 40.17150879 47.60334778 C40.18118027 45.57330298 40.21222813 43.54428693 40.24377441 41.51448059 C40.46978067 29.84599213 40.46978067 29.84599213 35.51428223 19.63264465 C32.69346332 17.26427048 30.00327225 17.18225451 26.48205566 17.20588684 C25.63449707 17.2091095 24.78693848 17.21233215 23.91369629 17.21565247 C23.03262207 17.22403137 22.15154785 17.23241028 21.24377441 17.24104309 C19.90476074 17.24781067 19.90476074 17.24781067 18.53869629 17.25471497 C16.33615455 17.26649326 14.13374842 17.28294145 11.93127441 17.30354309 Z " fill="#FEFEFE" transform="translate(546.0687255859375,25.696456909179688)"/>
<path d="M0 0 C6.9907833 5.6988521 10.55101769 13.54442767 11.6875 22.375 C11.93140668 27.2642781 11.97564751 32.13652029 11.94824219 37.03100586 C11.93753933 39.30414609 11.94817408 41.5764934 11.9609375 43.84960938 C11.97566063 57.14322916 11.22309207 67.35675637 1.796875 77.38671875 C-6.66495993 85.33218186 -15.36289708 86.21119695 -26.66015625 86.41796875 C-35.71811684 85.97411224 -44.85114314 81.01072983 -50.9140625 74.37109375 C-56.07664863 67.00215098 -57.46793048 58.76797126 -57.515625 49.98828125 C-57.52132507 49.1718364 -57.52702515 48.35539154 -57.53289795 47.51420593 C-57.54233183 45.78690886 -57.54887552 44.05959392 -57.55273438 42.33227539 C-57.56240205 39.71402762 -57.59342439 37.09657808 -57.625 34.47851562 C-57.63153471 32.79427546 -57.63678334 31.11002971 -57.640625 29.42578125 C-57.6529718 28.65357742 -57.6653186 27.8813736 -57.67803955 27.08576965 C-57.6405806 17.75943489 -54.41818573 9.43844036 -48.3125 2.375 C-34.48086561 -9.58115854 -15.101107 -10.02941446 0 0 Z M-34.99194336 15.41967773 C-37.918077 19.72323949 -38.0236683 23.50987473 -37.94140625 28.59765625 C-37.94381821 29.46136337 -37.94623016 30.3250705 -37.94871521 31.21495056 C-37.94774052 33.03112403 -37.93443762 34.84732861 -37.90942383 36.66333008 C-37.87504981 39.43348584 -37.88879987 42.20045814 -37.90820312 44.97070312 C-37.90130538 46.74220099 -37.89163365 48.51369068 -37.87890625 50.28515625 C-37.88386612 51.10718033 -37.88882599 51.92920441 -37.89393616 52.77613831 C-37.78548666 58.10250853 -36.81529441 61.13675912 -33.3125 65.375 C-29.25784068 68.95818731 -25.93588891 70.13190882 -20.62890625 69.8984375 C-15.92372664 68.83520973 -11.97366384 65.76297002 -9.23388672 61.82446289 C-7.82887939 58.08931755 -7.96692366 54.4410344 -7.94140625 50.48046875 C-7.93237778 49.61488846 -7.9233493 48.74930817 -7.91404724 47.85749817 C-7.89955646 46.02767386 -7.89066091 44.19779787 -7.88696289 42.36791992 C-7.87508431 39.5822714 -7.82590482 36.79885195 -7.77539062 34.01367188 C-7.76592352 32.23178159 -7.75868986 30.44987776 -7.75390625 28.66796875 C-7.73437393 27.84169479 -7.71484161 27.01542084 -7.69471741 26.16410828 C-7.73472324 20.98121468 -8.72508622 17.88726303 -11.89659119 13.76875305 C-14.98010382 10.7334904 -18.56146164 9.63765575 -22.8125 9 C-27.99981088 9.77809663 -31.78954126 11.24986604 -34.99194336 15.41967773 Z " fill="#FEFEFE" transform="translate(1035.3125,31.625)"/>
<path d="M0 0 C1.01513672 -0.03287109 2.03027344 -0.06574219 3.07617188 -0.09960938 C5.82625714 -0.11962985 8.35877754 -0.06768678 11.0625 0.4375 C13.88068997 3.39188502 14.56695998 6.7015957 15.5 10.625 C16.42721028 14.24256133 17.47532938 17.62727987 18.9375 21.0625 C21.08462533 26.213968 22.60034933 31.4826314 24.1340332 36.83959961 C25.51682637 41.64690462 27.0164485 46.38816122 28.625 51.125 C30.64710464 57.08388962 32.40346491 63.08113855 34.08203125 69.14453125 C35.27197412 73.1410326 36.74017643 76.98601472 38.328125 80.83984375 C39.0625 83.4375 39.0625 83.4375 39.0625 90.4375 C32.7925 90.4375 26.5225 90.4375 20.0625 90.4375 C16.0625 82.0625 16.0625 82.0625 16.0625 76.4375 C5.5025 76.4375 -5.0575 76.4375 -15.9375 76.4375 C-16.2675 79.4075 -16.5975 82.3775 -16.9375 85.4375 C-17.89453125 88.48046875 -17.89453125 88.48046875 -19.9375 90.4375 C-23.18753768 91.0433064 -26.33401799 90.90648415 -29.625 90.75 C-30.96401367 90.71616211 -30.96401367 90.71616211 -32.33007812 90.68164062 C-34.53424272 90.62270574 -36.73502672 90.54050818 -38.9375 90.4375 C-40.16159035 86.76522896 -39.57751613 85.53667588 -38.41796875 81.890625 C-38.06001221 80.75085205 -37.70205566 79.6110791 -37.33325195 78.43676758 C-36.93452881 77.19950928 -36.53580566 75.96225098 -36.125 74.6875 C-35.71440669 73.39303814 -35.30450628 72.09835631 -34.89526367 70.8034668 C-33.80902166 67.37558289 -32.71117851 63.95153133 -31.60974121 60.52850342 C-30.94512704 58.46122388 -30.28314014 56.39312244 -29.62207031 54.32470703 C-25.40973674 41.14787577 -21.18197958 27.97502946 -16.73754883 14.87426758 C-15.69736486 11.79552816 -14.7487861 8.73411182 -13.90625 5.59375 C-11.73092269 -1.49360671 -6.37040955 0.03626419 0 0 Z M-0.9375 24.4375 C-1.19144531 25.39269531 -1.44539063 26.34789063 -1.70703125 27.33203125 C-2.42240186 30.02139182 -3.14023163 32.71008347 -3.859375 35.3984375 C-4.50119045 37.79792648 -5.13670951 40.19863066 -5.765625 42.6015625 C-6.87753332 46.80079072 -8.05147367 50.88603735 -9.625 54.9375 C-11.11306172 58.28266432 -11.11306172 58.28266432 -10.9375 61.4375 C-4.0075 61.4375 2.9225 61.4375 10.0625 61.4375 C11.68183752 58.19882497 9.96697007 55.16813645 8.9375 51.875 C8.46954333 50.34260319 8.00211143 48.81004604 7.53515625 47.27734375 C7.29168457 46.48440918 7.04821289 45.69147461 6.79736328 44.87451172 C6.06493606 42.44557865 5.3685017 40.00912971 4.68359375 37.56640625 C4.46396973 36.79047119 4.2443457 36.01453613 4.01806641 35.21508789 C3.594378 33.71448456 3.17594878 32.21238485 2.76318359 30.70874023 C2.25519444 28.93373408 1.66599687 27.18234708 1.0625 25.4375 C0.4025 25.1075 -0.2575 24.7775 -0.9375 24.4375 Z " fill="#FEFEFE" transform="translate(118.9375,25.5625)"/>
<path d="M0 0 C1.01964844 -0.02900391 2.03929687 -0.05800781 3.08984375 -0.08789062 C4.06824219 -0.09626953 5.04664063 -0.10464844 6.0546875 -0.11328125 C6.95429199 -0.12786377 7.85389648 -0.14244629 8.78076172 -0.1574707 C11.125 0.3125 11.125 0.3125 12.86132812 2.1027832 C14.78750511 5.47098798 15.7154572 9.09955902 16.75 12.8125 C19.19255614 21.25633972 21.79400572 29.63685673 24.5 38 C24.87987061 39.17578613 25.25974121 40.35157227 25.65112305 41.56298828 C26.42312521 43.95178215 27.19550513 46.34045398 27.96826172 48.72900391 C30.18208231 55.58726871 32.37074728 62.45359377 34.56201172 69.3190918 C34.87025879 70.28371338 35.17850586 71.24833496 35.49609375 72.2421875 C35.77952637 73.13647461 36.06295898 74.03076172 36.35498047 74.95214844 C36.97124581 76.84119515 37.64947525 78.70998356 38.34765625 80.5703125 C39.29037335 83.89587734 39.26254785 86.87380384 39.125 90.3125 C36.16660645 90.33939449 33.20845573 90.35928741 30.25 90.375 C29.40824219 90.38337891 28.56648437 90.39175781 27.69921875 90.40039062 C26.89355469 90.40361328 26.08789062 90.40683594 25.2578125 90.41015625 C24.14237061 90.41801147 24.14237061 90.41801147 23.00439453 90.42602539 C21.125 90.3125 21.125 90.3125 19.125 89.3125 C18.2734375 87.38671875 18.2734375 87.38671875 17.5 85 C17.23960937 84.22011719 16.97921875 83.44023438 16.7109375 82.63671875 C16.125 80.3125 16.125 80.3125 16.125 76.3125 C0.78 76.8075 0.78 76.8075 -14.875 77.3125 C-15.865 80.9425 -16.855 84.5725 -17.875 88.3125 C-19.875 90.3125 -19.875 90.3125 -21.73852539 90.55541992 C-22.47578857 90.55131104 -23.21305176 90.54720215 -23.97265625 90.54296875 C-24.77380859 90.54103516 -25.57496094 90.53910156 -26.40039062 90.53710938 C-27.23763672 90.52486328 -28.07488281 90.51261719 -28.9375 90.5 C-29.77861328 90.49935547 -30.61972656 90.49871094 -31.48632812 90.49804688 C-37.73476816 90.45273184 -37.73476816 90.45273184 -38.875 89.3125 C-38.77119359 83.33586624 -37.31838477 77.89181681 -35.3125 72.3125 C-34.7653135 70.72972358 -34.21983683 69.14635535 -33.67578125 67.5625 C-33.38396973 66.71816406 -33.0921582 65.87382813 -32.79150391 65.00390625 C-31.13087532 60.12730274 -29.56710473 55.21980061 -28 50.3125 C-27.66572998 49.26892334 -27.33145996 48.22534668 -26.98706055 47.15014648 C-25.19711826 41.53927578 -23.44181756 35.91932511 -21.7265625 30.28515625 C-21.3744873 29.12951172 -21.02241211 27.97386719 -20.65966797 26.78320312 C-19.9904343 24.57874301 -19.32512692 22.37308546 -18.66455078 20.16601562 C-12.58711354 0.11844837 -12.58711354 0.11844837 0 0 Z M0.125 23.3125 C-3.86457898 35.90256481 -7.67043234 48.49422938 -10.875 61.3125 C-3.615 61.3125 3.645 61.3125 11.125 61.3125 C10.4066819 57.00259141 9.61559621 53.35657013 8.3125 49.25 C7.95929687 48.12335938 7.60609375 46.99671875 7.2421875 45.8359375 C6.87351562 44.67320313 6.50484375 43.51046875 6.125 42.3125 C5.3921387 40.00116822 4.66284781 37.68870068 3.9375 35.375 C3.61394531 34.35535156 3.29039062 33.33570313 2.95703125 32.28515625 C2.12294602 29.30516161 1.57637182 26.37179787 1.125 23.3125 C0.795 23.3125 0.465 23.3125 0.125 23.3125 Z " fill="#FEFEFE" transform="translate(725.875,25.6875)"/>
<path d="M0 0 C1.1947142 -0.00315216 2.38942841 -0.00630432 3.62034607 -0.009552 C4.92133743 -0.00752777 6.2223288 -0.00550354 7.56274414 -0.00341797 C8.90173866 -0.00409114 10.24073307 -0.00506128 11.57972717 -0.00631714 C14.39007731 -0.00779399 17.20039573 -0.0056403 20.01074219 -0.00097656 C23.61680858 0.00471525 27.22280046 0.00144514 30.8288641 -0.00454903 C33.5954698 -0.00815966 36.36205779 -0.00701364 39.12866402 -0.00442123 C41.10627923 -0.0034275 43.08389512 -0.00647021 45.06150818 -0.009552 C46.25937454 -0.00639984 47.45724091 -0.00324768 48.69140625 0 C50.27906044 0.00119339 50.27906044 0.00119339 51.89878845 0.00241089 C54.41040039 0.12939453 54.41040039 0.12939453 56.41040039 1.12939453 C56.4642456 3.4208074 56.50312126 5.71257641 56.53540039 8.00439453 C56.55860352 9.28056641 56.58180664 10.55673828 56.60571289 11.87158203 C56.41040039 15.12939453 56.41040039 15.12939453 54.41040039 17.12939453 C51.325151 17.30492872 48.33075837 17.3606225 45.24633789 17.32470703 C43.88552597 17.32046219 43.88552597 17.32046219 42.4972229 17.31613159 C39.59314916 17.30491606 36.68938127 17.27980916 33.78540039 17.25439453 C31.819259 17.2443665 29.85311279 17.23524034 27.88696289 17.22705078 C23.06122877 17.20667184 18.23615785 17.16752607 13.41040039 17.12939453 C13.41040039 23.39939453 13.41040039 29.66939453 13.41040039 36.12939453 C15.33625977 36.10619141 17.26211914 36.08298828 19.24633789 36.05908203 C21.75935486 36.04032817 24.27237601 36.02212757 26.78540039 36.00439453 C28.69192383 35.97925781 28.69192383 35.97925781 30.63696289 35.95361328 C32.45454102 35.94394531 32.45454102 35.94394531 34.30883789 35.93408203 C35.4295166 35.9236084 36.55019531 35.91313477 37.70483398 35.90234375 C40.41040039 36.12939453 40.41040039 36.12939453 42.41040039 38.12939453 C42.64086914 41.09814453 42.64086914 41.09814453 42.59790039 44.62939453 C42.59145508 45.79470703 42.58500977 46.96001953 42.57836914 48.16064453 C42.41040039 51.12939453 42.41040039 51.12939453 41.41040039 53.12939453 C38.16241296 54.21205701 36.05143212 54.16375639 32.64868164 54.00830078 C31.53041992 53.95996094 30.4121582 53.91162109 29.26000977 53.86181641 C28.09276367 53.80574219 26.92551758 53.74966797 25.72290039 53.69189453 C24.54405273 53.6396875 23.36520508 53.58748047 22.15063477 53.53369141 C19.23699595 53.40393421 16.32366429 53.26731307 13.41040039 53.12939453 C13.41040039 60.05939453 13.41040039 66.98939453 13.41040039 74.12939453 C16.43067383 74.11779297 19.45094727 74.10619141 22.56274414 74.09423828 C25.47509659 74.08644844 28.38744789 74.08037127 31.29980469 74.07446289 C33.33008337 74.06942175 35.36035841 74.06258896 37.390625 74.05395508 C40.30217386 74.04187986 43.21367489 74.03616419 46.12524414 74.03173828 C47.03878159 74.026577 47.95231903 74.02141571 48.89353943 74.01609802 C51.06615466 74.01590285 53.23867335 74.06727649 55.41040039 74.12939453 C56.41040039 75.12939453 56.41040039 75.12939453 56.54321289 78.25439453 C56.54063477 79.53314453 56.53805664 80.81189453 56.53540039 82.12939453 C56.53926758 84.04751953 56.53926758 84.04751953 56.54321289 86.00439453 C56.41040039 89.12939453 56.41040039 89.12939453 55.41040039 90.12939453 C53.5134119 90.22855248 51.61271252 90.25738767 49.71313477 90.25878906 C48.49517212 90.26194122 47.27720947 90.26509338 46.02233887 90.26834106 C44.68294234 90.26655128 43.34354615 90.26450033 42.00415039 90.26220703 C40.64033999 90.26288013 39.27652971 90.2638502 37.91271973 90.2651062 C35.05109518 90.26658291 32.18950179 90.2644295 29.32788086 90.25976562 C25.65221425 90.25406834 21.97662065 90.25734749 18.30095673 90.26333809 C15.48377936 90.26694444 12.66661941 90.26580478 9.84944153 90.2632103 C8.49379976 90.26254123 7.13815643 90.26336874 5.78251648 90.26568985 C3.89089995 90.26821754 1.9992779 90.26368467 0.10766602 90.25878906 C-1.50996643 90.25759567 -1.50996643 90.25759567 -3.16027832 90.25637817 C-5.58959961 90.12939453 -5.58959961 90.12939453 -6.58959961 89.12939453 C-6.69008484 86.39588705 -6.72576222 83.68761561 -6.71899414 80.95361328 C-6.72074646 80.09675934 -6.72249878 79.2399054 -6.7243042 78.35708618 C-6.72872378 75.51033534 -6.72578436 72.66364607 -6.72241211 69.81689453 C-6.72308512 67.84773751 -6.72405512 65.87858057 -6.72531128 63.90942383 C-6.7267884 59.77668468 -6.72463325 55.64396711 -6.7199707 51.51123047 C-6.71427341 46.20114932 -6.71755234 40.89111872 -6.72354317 35.58103943 C-6.72714841 31.513139 -6.72601037 27.44525064 -6.72341537 23.37734985 C-6.722746 21.41883335 -6.72357488 19.46031578 -6.72589493 17.50180054 C-6.72842085 14.76956253 -6.72458172 12.03740756 -6.71899414 9.30517578 C-6.72101837 8.48747711 -6.7230426 7.66977844 -6.72512817 6.82730103 C-6.70009301 0.25405002 -6.48284482 0.00487662 0 0 Z " fill="#FDFDFD" transform="translate(623.589599609375,25.87060546875)"/>
<path d="M0 0 C1.1947142 -0.00315216 2.38942841 -0.00630432 3.62034607 -0.009552 C4.92133743 -0.00752777 6.2223288 -0.00550354 7.56274414 -0.00341797 C8.90173866 -0.00409114 10.24073307 -0.00506128 11.57972717 -0.00631714 C14.39007731 -0.00779399 17.20039573 -0.0056403 20.01074219 -0.00097656 C23.61680858 0.00471525 27.22280046 0.00144514 30.8288641 -0.00454903 C33.5954698 -0.00815966 36.36205779 -0.00701364 39.12866402 -0.00442123 C41.10627923 -0.0034275 43.08389512 -0.00647021 45.06150818 -0.009552 C46.25937454 -0.00639984 47.45724091 -0.00324768 48.69140625 0 C50.27906044 0.00119339 50.27906044 0.00119339 51.89878845 0.00241089 C54.41040039 0.12939453 54.41040039 0.12939453 56.41040039 1.12939453 C56.41040039 6.07939453 56.41040039 11.02939453 56.41040039 16.12939453 C54.12408545 17.272552 52.86692633 17.25052185 50.32788086 17.24291992 C49.06680008 17.24280663 49.06680008 17.24280663 47.78024292 17.24269104 C46.41767868 17.23494911 46.41767868 17.23494911 45.02758789 17.22705078 C44.0981839 17.22563583 43.16877991 17.22422089 42.21121216 17.22276306 C39.23590915 17.21715506 36.26068075 17.20460121 33.28540039 17.19189453 C31.27107856 17.18688056 29.25675555 17.18231748 27.24243164 17.17822266 C22.29836919 17.16803292 17.35446854 17.14845906 12.41040039 17.12939453 C12.41040039 23.39939453 12.41040039 29.66939453 12.41040039 36.12939453 C15.42487305 36.11199219 15.42487305 36.11199219 18.50024414 36.09423828 C20.43961463 36.08728713 22.37898543 36.08037057 24.31835938 36.07446289 C25.66960425 36.06942396 27.02084365 36.06259276 28.37207031 36.05395508 C30.31060473 36.04187034 32.24917839 36.03669625 34.18774414 36.03173828 C35.93945923 36.02388306 35.93945923 36.02388306 37.7265625 36.01586914 C40.41040039 36.12939453 40.41040039 36.12939453 41.41040039 37.12939453 C41.4835966 39.82594307 41.50282576 42.49630911 41.47290039 45.19189453 C41.46838867 45.95050781 41.46387695 46.70912109 41.45922852 47.49072266 C41.44740719 49.37031324 41.42947117 51.24986352 41.41040039 53.12939453 C32.59476576 56.06793941 21.47810091 53.85481057 12.41040039 53.12939453 C12.74040039 59.72939453 13.07040039 66.32939453 13.41040039 73.12939453 C17.94081055 73.22027344 17.94081055 73.22027344 22.56274414 73.31298828 C25.47512447 73.37472623 28.38746392 73.43813521 31.29980469 73.50170898 C33.33004143 73.54512694 35.36031631 73.58679679 37.390625 73.62670898 C40.3022819 73.684246 43.21374553 73.74798731 46.12524414 73.81298828 C47.03878159 73.82970078 47.95231903 73.84641327 48.89353943 73.8636322 C55.29652868 74.01552282 55.29652868 74.01552282 56.41040039 75.12939453 C56.50949341 77.46099508 56.54010543 79.79569395 56.53540039 82.12939453 C56.53926758 84.04751953 56.53926758 84.04751953 56.54321289 86.00439453 C56.41040039 89.12939453 56.41040039 89.12939453 55.41040039 90.12939453 C53.5134119 90.22855248 51.61271252 90.25738767 49.71313477 90.25878906 C48.49517212 90.26194122 47.27720947 90.26509338 46.02233887 90.26834106 C44.68294234 90.26655128 43.34354615 90.26450033 42.00415039 90.26220703 C40.64033999 90.26288013 39.27652971 90.2638502 37.91271973 90.2651062 C35.05109518 90.26658291 32.18950179 90.2644295 29.32788086 90.25976562 C25.65221425 90.25406834 21.97662065 90.25734749 18.30095673 90.26333809 C15.48377936 90.26694444 12.66661941 90.26580478 9.84944153 90.2632103 C8.49379976 90.26254123 7.13815643 90.26336874 5.78251648 90.26568985 C3.89089995 90.26821754 1.9992779 90.26368467 0.10766602 90.25878906 C-1.50996643 90.25759567 -1.50996643 90.25759567 -3.16027832 90.25637817 C-5.58959961 90.12939453 -5.58959961 90.12939453 -6.58959961 89.12939453 C-6.69008484 86.39588705 -6.72576222 83.68761561 -6.71899414 80.95361328 C-6.72074646 80.09675934 -6.72249878 79.2399054 -6.7243042 78.35708618 C-6.72872378 75.51033534 -6.72578436 72.66364607 -6.72241211 69.81689453 C-6.72308512 67.84773751 -6.72405512 65.87858057 -6.72531128 63.90942383 C-6.7267884 59.77668468 -6.72463325 55.64396711 -6.7199707 51.51123047 C-6.71427341 46.20114932 -6.71755234 40.89111872 -6.72354317 35.58103943 C-6.72714841 31.513139 -6.72601037 27.44525064 -6.72341537 23.37734985 C-6.722746 21.41883335 -6.72357488 19.46031578 -6.72589493 17.50180054 C-6.72842085 14.76956253 -6.72458172 12.03740756 -6.71899414 9.30517578 C-6.72101837 8.48747711 -6.7230426 7.66977844 -6.72512817 6.82730103 C-6.70009301 0.25405002 -6.48284482 0.00487662 0 0 Z " fill="#FDFDFD" transform="translate(438.589599609375,25.87060546875)"/>
<path d="M0 0 C4.76527502 3.00375242 7.36494373 6.9787333 9.953125 11.90234375 C10.38625 12.70671875 10.819375 13.51109375 11.265625 14.33984375 C12.27719498 18.11024095 12.65845314 22.0419994 11.953125 25.90234375 C8.16149473 28.43009726 5.14438469 28.1267741 0.765625 28.02734375 C0.01603516 28.01832031 -0.73355469 28.00929687 -1.50585938 28 C-3.35300154 27.97646953 -5.19997912 27.94059936 -7.046875 27.90234375 C-7.20542969 27.226875 -7.36398438 26.55140625 -7.52734375 25.85546875 C-9.00145024 20.1218419 -9.00145024 20.1218419 -12.421875 15.40234375 C-17.14789523 12.60107309 -17.14789523 12.60107309 -22.484375 12.08984375 C-26.54827752 13.37839821 -29.95039994 14.55949702 -32.70385742 17.93164062 C-34.57366055 22.06757309 -34.45848245 25.69541362 -34.41015625 30.18359375 C-34.41065475 31.07469849 -34.41115326 31.96580322 -34.41166687 32.88391113 C-34.40933195 34.76328772 -34.3996378 36.64266776 -34.38305664 38.52197266 C-34.35945562 41.39253819 -34.36250132 44.26217449 -34.36914062 47.1328125 C-34.36356358 48.9622451 -34.35645353 50.7916738 -34.34765625 52.62109375 C-34.34856766 53.476427 -34.34947906 54.33176025 -34.35041809 55.2130127 C-34.2995247 59.50752261 -34.17605717 63.04715492 -32.046875 66.90234375 C-26.97982453 70.01894098 -21.74483355 70.24303988 -16.046875 68.90234375 C-15.2425 68.71671875 -14.438125 68.53109375 -13.609375 68.33984375 C-12.8359375 68.12328125 -12.8359375 68.12328125 -12.046875 67.90234375 C-12.046875 67.24234375 -12.046875 66.58234375 -12.046875 65.90234375 C-11.386875 65.90234375 -10.726875 65.90234375 -10.046875 65.90234375 C-9.93730469 65.20367187 -9.82773437 64.505 -9.71484375 63.78515625 C-9.55628906 62.87507813 -9.39773437 61.965 -9.234375 61.02734375 C-9.08355469 60.12242188 -8.93273438 59.2175 -8.77734375 58.28515625 C-8.046875 55.90234375 -8.046875 55.90234375 -5.046875 53.90234375 C0.26831735 53.29459889 5.71867118 53.92088366 10.953125 54.90234375 C11.953125 55.90234375 11.953125 55.90234375 12.328125 59.83984375 C12.24990851 66.84580646 9.00616781 72.40539979 4.640625 77.71484375 C-3.50187378 84.34245904 -10.77016368 87.29812494 -21.296875 87.27734375 C-22.14080811 87.27573242 -22.98474121 87.27412109 -23.85424805 87.27246094 C-30.28000501 87.14608916 -35.42622266 86.16118662 -41.046875 82.90234375 C-42.119375 82.34546875 -43.191875 81.78859375 -44.296875 81.21484375 C-50.595858 75.91797168 -54.5256337 68.8462895 -55.24804688 60.60829163 C-55.34304676 57.97929641 -55.37642626 55.35727316 -55.3828125 52.7265625 C-55.3894693 51.76136185 -55.3961261 50.79616119 -55.40298462 49.80171204 C-55.41307206 47.76699721 -55.41780285 45.73224957 -55.41748047 43.69750977 C-55.42184703 40.60962501 -55.45819058 37.52317867 -55.49609375 34.43554688 C-55.50196431 32.44922358 -55.5059321 30.46289358 -55.5078125 28.4765625 C-55.52218353 27.56581467 -55.53655457 26.65506683 -55.55136108 25.71672058 C-55.4973185 18.00910659 -53.33088119 11.767585 -49.421875 5.15234375 C-35.85590382 -7.69962895 -15.97685427 -8.56774055 0 0 Z " fill="#FEFEFE" transform="translate(60.046875,30.09765625)"/>
<path d="M0 0 C1.21796265 -0.00315216 2.43592529 -0.00630432 3.6907959 -0.009552 C5.03019242 -0.00776222 6.36958862 -0.00571127 7.70898438 -0.00341797 C9.07279477 -0.00409106 10.43660505 -0.00506114 11.80041504 -0.00631714 C14.66203959 -0.00779385 17.52363297 -0.00564044 20.38525391 -0.00097656 C24.06092051 0.00472073 27.73651411 0.00144157 31.41217804 -0.00454903 C34.22935541 -0.00815538 37.04651535 -0.00701571 39.86369324 -0.00442123 C41.21933501 -0.00375217 42.57497834 -0.00457968 43.93061829 -0.00690079 C45.82223482 -0.00942848 47.71385687 -0.00489561 49.60546875 0 C51.2231012 0.00119339 51.2231012 0.00119339 52.87341309 0.00241089 C55.30273438 0.12939453 55.30273438 0.12939453 56.30273438 1.12939453 C57.60619885 10.77503166 57.40396902 18.20787953 51.42773438 26.19189453 C49.80089501 28.32039739 48.17289501 30.19485132 46.30273438 32.12939453 C45.64273438 32.12939453 44.98273437 32.12939453 44.30273438 32.12939453 C43.97208984 33.14453125 43.97208984 33.14453125 43.63476562 34.18017578 C41.91054645 37.9977285 39.54775543 41.01890946 36.99023438 44.31689453 C35.9119467 45.7298404 34.8351829 47.14395023 33.75976562 48.55908203 C32.91599365 49.66848145 32.91599365 49.66848145 32.05517578 50.80029297 C29.04036952 54.80715445 26.10824877 58.87318007 23.17773438 62.94189453 C22.62174561 63.71235107 22.06575684 64.48280762 21.49291992 65.27661133 C19.38574572 68.20336935 17.30352735 71.12820506 15.30273438 74.12939453 C28.83273437 74.12939453 42.36273437 74.12939453 56.30273438 74.12939453 C56.30273438 79.07939453 56.30273438 84.02939453 56.30273438 89.12939453 C54.53549627 90.89663264 51.99954597 90.25702286 49.60546875 90.25878906 C48.3875061 90.26194122 47.16954346 90.26509338 45.91467285 90.26834106 C44.57527633 90.26655128 43.23588013 90.26450033 41.89648438 90.26220703 C40.53267398 90.26288013 39.1688637 90.2638502 37.80505371 90.2651062 C34.94342916 90.26658291 32.08183578 90.2644295 29.22021484 90.25976562 C25.54454824 90.25406834 21.86895464 90.25734749 18.19329071 90.26333809 C15.37611334 90.26694444 12.5589534 90.26580478 9.74177551 90.2632103 C8.38613374 90.26254123 7.03049041 90.26336874 5.67485046 90.26568985 C3.78323393 90.26821754 1.89161188 90.26368467 0 90.25878906 C-1.61763245 90.25759567 -1.61763245 90.25759567 -3.26794434 90.25637817 C-5.69726562 90.12939453 -5.69726562 90.12939453 -6.69726562 89.12939453 C-8.44394778 73.31921995 -8.44394778 73.31921995 -3.57226562 66.75439453 C-2.42281335 65.41404382 -1.27097065 64.07540861 -0.09277344 62.76025391 C2.83271473 59.3413839 5.40482785 55.63920858 8.05273438 52.00439453 C9.26621261 50.35981648 10.47975465 48.7152855 11.69335938 47.07080078 C15.60777345 41.73515651 19.43182298 36.33813116 23.21972656 30.91210938 C26.48490518 26.24339478 29.85960273 21.66840948 33.30273438 17.12939453 C32.1620752 17.13463135 31.02141602 17.13986816 29.84619141 17.14526367 C25.62321758 17.16333322 21.40024719 17.17483372 17.17724609 17.18432617 C15.34781317 17.1893619 13.51838428 17.1961908 11.68896484 17.20483398 C9.0628154 17.21693278 6.43671906 17.22263036 3.81054688 17.22705078 C2.98966583 17.23221207 2.16878479 17.23737335 1.32302856 17.24269104 C-4.46952221 17.24326624 -4.46952221 17.24326624 -6.69726562 16.12939453 C-6.72411658 13.65015652 -6.7440311 11.17120613 -6.75976562 8.69189453 C-6.77233398 7.63131836 -6.77233398 7.63131836 -6.78515625 6.54931641 C-6.7938015 4.74245894 -6.74946574 2.9355185 -6.69726562 1.12939453 C-4.93002752 -0.63784358 -2.39407722 0.0017662 0 0 Z " fill="#FEFEFE" transform="translate(778.697265625,25.87060546875)"/>
<path d="M0 0 C2.95857409 -0.05379226 5.91617721 -0.09357093 8.875 -0.125 C9.71675781 -0.14175781 10.55851562 -0.15851562 11.42578125 -0.17578125 C12.23144531 -0.18222656 13.03710938 -0.18867188 13.8671875 -0.1953125 C14.98262939 -0.21102295 14.98262939 -0.21102295 16.12060547 -0.22705078 C18 0 18 0 20 2 C20.71992432 4.52119245 21.35692615 7.00937404 21.9375 9.5625 C23.12767528 14.71992621 24.5341984 19.69928973 26.24829102 24.70776367 C27.50839817 28.55029244 28.49769889 32.45880911 29.5 36.375 C29.9319517 38.03915078 30.36424183 39.70321375 30.796875 41.3671875 C31.00248047 42.16092773 31.20808594 42.95466797 31.41992188 43.77246094 C33.52926646 51.93915624 33.52926646 51.93915624 36 60 C38.09806006 52.15324103 40.1865559 44.30412415 42.25390625 36.44921875 C42.63733726 34.99413205 43.02080101 33.53905398 43.40429688 32.08398438 C43.98645149 29.87514171 44.56809984 27.66617204 45.14819336 25.45678711 C48.75660354 11.71828935 48.75660354 11.71828935 50.65234375 5.01953125 C50.86753662 4.25358643 51.08272949 3.4876416 51.30444336 2.69848633 C52 1 52 1 54 0 C56.88370333 -0.07194869 59.74239664 -0.09291708 62.625 -0.0625 C63.82769531 -0.05573242 63.82769531 -0.05573242 65.0546875 -0.04882812 C67.03649006 -0.03703168 69.01825433 -0.01909605 71 0 C72.20715442 4.24306498 71.71510122 6.82861042 70.3203125 10.9765625 C69.94551758 12.1202832 69.57072266 13.26400391 69.18457031 14.44238281 C68.79366211 15.61639648 68.40275391 16.79041016 68 18 C67.30405416 20.23516866 66.61385682 22.47213606 65.9296875 24.7109375 C64.89506623 28.06657226 63.86042349 31.42219756 62.82421875 34.77734375 C61.16213219 40.1711649 59.52830392 45.56680947 58 51 C57.50405406 52.68869591 57.00447905 54.3763336 56.5 56.0625 C56.2628125 56.85785156 56.025625 57.65320313 55.78125 58.47265625 C55.22938317 60.25794544 54.65415529 62.03609311 54.0625 63.80859375 C52.82542706 67.52436064 51.66007526 71.25963613 50.5 75 C46.22888283 88.77111717 46.22888283 88.77111717 45 90 C42.02895987 90.15357265 39.09722447 90.23168121 36.125 90.25 C35.29613281 90.270625 34.46726562 90.29125 33.61328125 90.3125 C32.41638672 90.32023437 32.41638672 90.32023437 31.1953125 90.328125 C30.46328613 90.3374707 29.73125977 90.34681641 28.97705078 90.35644531 C26.38479256 89.88908337 25.58787886 89.0787515 24 87 C23.11206055 84.97314453 23.11206055 84.97314453 22.38671875 82.6328125 C22.11142334 81.75794189 21.83612793 80.88307129 21.55249023 79.98168945 C21.26704346 79.03898193 20.98159668 78.09627441 20.6875 77.125 C20.38336182 76.1455542 20.07922363 75.1661084 19.76586914 74.15698242 C17.46793685 66.69842425 15.31132971 59.2011691 13.19995117 51.68798828 C11.57337274 45.92176505 9.830456 40.20454407 8 34.5 C5.78056556 27.5423311 3.62557495 20.56825804 1.5625 13.5625 C1.29115234 12.66789062 1.01980469 11.77328125 0.74023438 10.8515625 C0.49724609 10.01496094 0.25425781 9.17835937 0.00390625 8.31640625 C-0.21450928 7.57849854 -0.4329248 6.84059082 -0.65795898 6.08032227 C-1.04123266 3.74921947 -0.72484886 2.22863507 0 0 Z " fill="#FEFEFE" transform="translate(350,26)"/>
<path d="M0 0 C1.31806641 -0.00315216 2.63613281 -0.00630432 3.99414062 -0.009552 C5.44401075 -0.00776222 6.89388058 -0.00571127 8.34375 -0.00341797 C9.81966162 -0.00409104 11.29557313 -0.0050611 12.77148438 -0.00631714 C15.86850029 -0.00779395 18.96548742 -0.00564011 22.0625 -0.00097656 C26.04083549 0.00472073 30.01910352 0.00144163 33.99743652 -0.00454903 C37.04622917 -0.0081551 40.09500571 -0.00701584 43.14379883 -0.00442123 C44.61108406 -0.00375209 46.07837074 -0.00457994 47.5456543 -0.00690079 C49.59293593 -0.00942804 51.64022266 -0.00489607 53.6875 0 C55.43836914 0.00119339 55.43836914 0.00119339 57.22460938 0.00241089 C59.84375 0.12939453 59.84375 0.12939453 60.84375 1.12939453 C60.94350032 3.64075558 60.98257183 6.11842868 60.96875 8.62939453 C60.97261719 9.33193359 60.97648437 10.03447266 60.98046875 10.75830078 C60.97036378 16.00278075 60.97036378 16.00278075 59.84375 17.12939453 C51.92375 17.12939453 44.00375 17.12939453 35.84375 17.12939453 C35.84375 41.21939453 35.84375 65.30939453 35.84375 90.12939453 C29.90375 90.12939453 23.96375 90.12939453 17.84375 90.12939453 C15.96165302 88.24729755 16.66938076 85.00548572 16.63842773 82.49829102 C16.62852814 81.80564148 16.61862854 81.11299194 16.60842896 80.39935303 C16.5767297 78.09976674 16.55202349 75.80015976 16.52734375 73.50048828 C16.50678148 71.91007436 16.48578521 70.31966599 16.46437073 68.72926331 C16.40907491 64.53549691 16.3596989 60.34168058 16.31152344 56.14782715 C16.26136309 51.87145525 16.20564856 47.59515619 16.15039062 43.31884766 C16.04271726 34.9224248 15.94129284 26.52594116 15.84375 18.12939453 C14.85193726 18.0918103 14.85193726 18.0918103 13.84008789 18.0534668 C10.86192695 17.93786351 7.8841108 17.814977 4.90625 17.69189453 C3.86533203 17.65257813 2.82441406 17.61326172 1.75195312 17.57275391 C0.26791992 17.50991211 0.26791992 17.50991211 -1.24609375 17.44580078 C-2.16253662 17.40914307 -3.07897949 17.37248535 -4.02319336 17.3347168 C-6.15625 17.12939453 -6.15625 17.12939453 -7.15625 16.12939453 C-7.25600032 13.61803349 -7.29507183 11.14036038 -7.28125 8.62939453 C-7.28511719 7.92685547 -7.28898438 7.22431641 -7.29296875 6.50048828 C-7.27998191 -0.23968305 -6.54816832 0.00446322 0 0 Z " fill="#FDFDFD" transform="translate(249.15625,25.87060546875)"/>
<path d="M0 0 C5.94 0 11.88 0 18 0 C19.45550803 2.91101606 19.1651099 5.49317198 19.20532227 8.74462891 C19.21522186 9.43742447 19.22512146 10.13022003 19.23532104 10.8440094 C19.26695497 13.13815878 19.29170086 15.43232889 19.31640625 17.7265625 C19.33697415 19.31554712 19.35797058 20.90452624 19.37937927 22.49349976 C19.43461691 26.67903195 19.48401869 30.86461366 19.53222656 35.05023193 C19.58242926 39.3199912 19.63812174 43.58967842 19.69335938 47.859375 C19.80096163 56.23952245 19.90240199 64.6197301 20 73 C21.85516235 73.03758423 21.85516235 73.03758423 23.74780273 73.07592773 C28.31936713 73.16982253 32.89077318 73.27008629 37.4621582 73.37231445 C39.44389146 73.41573144 41.42566378 73.45740137 43.4074707 73.49731445 C46.2496317 73.55485383 49.09159483 73.61859445 51.93359375 73.68359375 C52.82525742 73.70030624 53.71692108 73.71701874 54.63560486 73.73423767 C60.88612829 73.88612829 60.88612829 73.88612829 62 75 C62.09909302 77.33160055 62.12970504 79.66629942 62.125 82 C62.12886719 83.918125 62.12886719 83.918125 62.1328125 85.875 C62 89 62 89 61 90 C59.10301151 90.09915795 57.20231213 90.12799314 55.30273438 90.12939453 C54.08477173 90.13254669 52.86680908 90.13569885 51.61193848 90.13894653 C50.27254195 90.13715675 48.93314576 90.1351058 47.59375 90.1328125 C46.2299396 90.1334856 44.86612932 90.13445567 43.50231934 90.13571167 C40.64069479 90.13718838 37.7791014 90.13503497 34.91748047 90.13037109 C31.24181386 90.12467381 27.56622026 90.12795296 23.89055634 90.13394356 C21.07337896 90.13754991 18.25621902 90.13641025 15.43904114 90.13381577 C14.08339937 90.1331467 12.72775604 90.13397421 11.37211609 90.13629532 C9.48049956 90.13882301 7.58887751 90.13429014 5.69726562 90.12939453 C4.07963318 90.12820114 4.07963318 90.12820114 2.42932129 90.12698364 C0 90 0 90 -1 89 C-1.10046992 86.30227029 -1.13616448 83.63011347 -1.12939453 80.93188477 C-1.13114685 80.08639069 -1.13289917 79.24089661 -1.13470459 78.36978149 C-1.13912458 75.56030252 -1.13618434 72.75088593 -1.1328125 69.94140625 C-1.13348556 67.9970651 -1.1344556 66.05272404 -1.13571167 64.10838318 C-1.13718889 60.02691855 -1.13503354 55.94547577 -1.13037109 51.86401367 C-1.12467757 46.62353302 -1.12795027 41.38310362 -1.13394356 36.14262486 C-1.13755173 32.12529614 -1.13640933 28.10797964 -1.13381577 24.09065056 C-1.13314701 22.15808036 -1.13397313 20.22550906 -1.13629532 18.29294014 C-1.13882561 15.59443335 -1.13497571 12.89601029 -1.12939453 10.19750977 C-1.13141876 9.39275711 -1.13344299 8.58800446 -1.13552856 7.75886536 C-1.11426329 2.22852658 -1.11426329 2.22852658 0 0 Z " fill="#FDFDFD" transform="translate(1137,26)"/>
<path d="M0 0 C1.56125851 0.00399299 3.12251789 0.01875614 4.68359375 0.04296875 C5.47701172 0.04361328 6.27042969 0.04425781 7.08789062 0.04492188 C12.98083853 0.09021353 12.98083853 0.09021353 14.12109375 1.23046875 C14.22157898 3.96397623 14.25725636 6.67224767 14.25048828 9.40625 C14.2522406 10.26310394 14.25399292 11.11995789 14.25579834 12.0027771 C14.26021792 14.84952795 14.2572785 17.69621722 14.25390625 20.54296875 C14.25457926 22.51212577 14.25554926 24.48128272 14.25680542 26.45043945 C14.25828254 30.5831786 14.25612739 34.71589617 14.25146484 38.84863281 C14.24576755 44.15871396 14.24904648 49.46874456 14.25503731 54.77882385 C14.25864255 58.84672428 14.25750451 62.91461264 14.25490952 66.98251343 C14.25424014 68.94102993 14.25506902 70.89954751 14.25738907 72.85806274 C14.25991499 75.59030075 14.25607586 78.32245572 14.25048828 81.0546875 C14.25251251 81.87238617 14.25453674 82.69008484 14.25662231 83.53256226 C14.23535621 89.11620629 14.23535621 89.11620629 13.12109375 90.23046875 C10.29852884 90.33053883 7.50586185 90.36922473 4.68359375 90.35546875 C3.89404297 90.35933594 3.10449219 90.36320312 2.29101562 90.3671875 C-3.62564492 90.35709942 -3.62564492 90.35709942 -5.87890625 89.23046875 C-5.92517523 77.9216364 -5.96074771 66.61282644 -5.98253059 55.30391884 C-5.99298342 50.05316457 -6.00716988 44.8024749 -6.02978516 39.55175781 C-6.0514602 34.48785133 -6.06346357 29.42400711 -6.06866074 24.36005783 C-6.07236612 22.42468663 -6.07960144 20.48931896 -6.09036636 18.55397415 C-6.10481039 15.85052278 -6.10688718 13.14733119 -6.10595703 10.44384766 C-6.11314758 9.63752396 -6.12033813 8.83120026 -6.12774658 8.0004425 C-6.09916728 0.36238758 -6.09916728 0.36238758 0 0 Z " fill="#FEFEFE" transform="translate(510.87890625,25.76953125)"/>
<path d="M0 0 C0.79792969 0.00386719 1.59585937 0.00773437 2.41796875 0.01171875 C3.21589844 0.00785156 4.01382812 0.00398438 4.8359375 0 C10.79136108 0.01011108 10.79136108 0.01011108 11.91796875 1.13671875 C12.01845398 3.87022623 12.05413136 6.57849767 12.04736328 9.3125 C12.0491156 10.16935394 12.05086792 11.02620789 12.05267334 11.9090271 C12.05709292 14.75577795 12.0541535 17.60246722 12.05078125 20.44921875 C12.05145426 22.41837577 12.05242426 24.38753272 12.05368042 26.35668945 C12.05515754 30.4894286 12.05300239 34.62214617 12.04833984 38.75488281 C12.04264255 44.06496396 12.04592148 49.37499456 12.05191231 54.68507385 C12.05551755 58.75297428 12.05437951 62.82086264 12.05178452 66.88876343 C12.05111514 68.84727993 12.05194402 70.80579751 12.05426407 72.76431274 C12.05678999 75.49655075 12.05295086 78.22870572 12.04736328 80.9609375 C12.04938751 81.77863617 12.05141174 82.59633484 12.05349731 83.43881226 C12.03223121 89.02245629 12.03223121 89.02245629 10.91796875 90.13671875 C8.07461827 90.2365885 5.26099712 90.27549756 2.41796875 90.26171875 C1.62003906 90.26558594 0.82210938 90.26945312 0 90.2734375 C-5.95542358 90.26332642 -5.95542358 90.26332642 -7.08203125 89.13671875 C-7.18251648 86.40321127 -7.21819386 83.69493983 -7.21142578 80.9609375 C-7.2131781 80.10408356 -7.21493042 79.24722961 -7.21673584 78.3644104 C-7.22115542 75.51765955 -7.218216 72.67097028 -7.21484375 69.82421875 C-7.21551676 67.85506173 -7.21648676 65.88590478 -7.21774292 63.91674805 C-7.21922004 59.7840089 -7.21706489 55.65129133 -7.21240234 51.51855469 C-7.20670505 46.20847354 -7.20998398 40.89844294 -7.21597481 35.58836365 C-7.21958005 31.52046322 -7.21844201 27.45257486 -7.21584702 23.38467407 C-7.21517764 21.42615757 -7.21600652 19.46763999 -7.21832657 17.50912476 C-7.22085249 14.77688675 -7.21701336 12.04473178 -7.21142578 9.3125 C-7.21345001 8.49480133 -7.21547424 7.67710266 -7.21755981 6.83462524 C-7.19155561 0.00694174 -6.82537452 0.01158807 0 0 Z " fill="#FEFEFE" transform="translate(327.08203125,25.86328125)"/>
</svg>
